<svg version="1.1" xmlns="http://www.w3.org/2000/svg" xmlns:xlink="http://www.w3.org/1999/xlink" stroke-linecap="round" stroke-linejoin="round" stroke-width="0" fill-rule="evenodd" clip-rule="evenodd" id="hc80QB4-5BR5_bottom" viewBox="116840 -114300 30480 17780" width="30.48mm" height="17.78mm"><defs><style>.hc80QB4-5BR5_fr4 {color: #666666;}
.hc80QB4-5BR5_cu {color: #cccccc;}
.hc80QB4-5BR5_cf {color: #cc9933;}
.hc80QB4-5BR5_sm {color: #004200; opacity: 0.7490196078431373;}
.hc80QB4-5BR5_ss {color: #ffffff;}
.hc80QB4-5BR5_sp {color: #999999;}
.hc80QB4-5BR5_out {color: #000000;}</style><rect x="-850" y="-850" width="1700" height="1700" id="RVtQ45viJqsk_pad-10"/><rect x="-850" y="-850" width="1700" height="1700" rx="850" ry="850" id="RVtQ45viJqsk_pad-11"/><circle cx="0" cy="0" r="400" id="RVtQ45viJqsk_pad-12"/><g id="zBEEHjRfB5jd_pad-10"><polygon points="850,850 -850,850 -850,-850 850,-850"/><circle cx="850" cy="850" r="200"/><circle cx="-850" cy="850" r="200"/><circle cx="-850" cy="-850" r="200"/><circle cx="850" cy="-850" r="200"/><polygon points="850,650 -850,650 -850,1050 850,1050"/><polygon points="-650,850 -650,-850 -1050,-850 -1050,850"/><polygon points="-850,-1050 850,-1050 850,-650 -850,-650"/><polygon points="1050,-850 1050,850 650,850 650,-850"/></g><rect x="-1050" y="-1050" width="2100" height="2100" rx="1050" ry="1050" id="zBEEHjRfB5jd_pad-11"/><circle cx="0" cy="0" r="200" id="T7-ZtegQLxxy_pad-1"/><circle cx="0" cy="0" r="500" id="T7-ZtegQLxxy_pad-2"/><g id="hc80QB4-5BR5_bottom_copper"><use xlink:href="#RVtQ45viJqsk_pad-10" x="119380" y="-111760"/><use xlink:href="#RVtQ45viJqsk_pad-11" x="119380" y="-109220"/><use xlink:href="#RVtQ45viJqsk_pad-11" x="119380" y="-106680"/><use xlink:href="#RVtQ45viJqsk_pad-11" x="119380" y="-104140"/><use xlink:href="#RVtQ45viJqsk_pad-11" x="119380" y="-101600"/><use xlink:href="#RVtQ45viJqsk_pad-11" x="119380" y="-99060"/><use xlink:href="#RVtQ45viJqsk_pad-10" x="124460" y="-111760"/><use xlink:href="#RVtQ45viJqsk_pad-11" x="124460" y="-109220"/><use xlink:href="#RVtQ45viJqsk_pad-10" x="144780" y="-111760"/><use xlink:href="#RVtQ45viJqsk_pad-11" x="144780" y="-109220"/><use xlink:href="#RVtQ45viJqsk_pad-11" x="144780" y="-106680"/><use xlink:href="#RVtQ45viJqsk_pad-11" x="144780" y="-104140"/><use xlink:href="#RVtQ45viJqsk_pad-11" x="144780" y="-101600"/><use xlink:href="#RVtQ45viJqsk_pad-11" x="144780" y="-99060"/><use xlink:href="#RVtQ45viJqsk_pad-10" x="139700" y="-111760"/><use xlink:href="#RVtQ45viJqsk_pad-11" x="139700" y="-109220"/><use xlink:href="#RVtQ45viJqsk_pad-12" x="136652" y="-102235"/><use xlink:href="#RVtQ45viJqsk_pad-12" x="127508" y="-102235"/><path d="M 144780 -106680 142240 -106680 139700 -109220 M 136652 -102235 136652 -106172 139700 -109220 M 139573 -111760 139700 -111760 M 127508 -102235 127508 -106172 M 121920 -106680 124460 -109220 M 119380 -106680 121920 -106680 M 127508 -106172 124460 -109220" fill="none" stroke-width="250"/><path d="M 146627.121 -97175.002 146673.614 -97228.658 146685 -97281 146685 -113539 146664.998 -113607.121 146611.342 -113653.614 146559 -113665 134111 -113665 134042.879 -113644.998 133996.386 -113591.342 133985 -113539 133985 -102235 135738.496 -102235 135758.457 -102424.927 135762.468 -102437.27 135817.473 -102606.556 135817.476 -102606.561 135895.203 -102741.189 135912.96 -102771.944 135986.137 -102853.215 136016.853 -102917.22 136018.5 -102937.524 136018.5 -106234.396 136019.095 -106237.386 136042.845 -106356.785 136090.6 -106472.075 136159.929 -106575.833 136159.931 -106575.835 138350.132 -108766.036 138384.158 -108828.348 138383.182 -108886.061 138355.436 -108995.628 138336.844 -109220 138355.437 -109444.375 138410.702 -109662.612 138410.703 -109662.613 138501.141 -109868.793 138624.275 -110057.265 138624.279 -110057.27 138767.841 -110213.217 138799.262 -110276.882 138791.276 -110347.428 138746.417 -110402.457 138719.173 -110416.61 138604.039 -110459.553 138604.034 -110459.555 138487.095 -110547.095 138399.555 -110664.034 138399.555 -110664.035 138348.505 -110800.906 138342 -110861.402 138342 -111506 139269.297 -111506 139234.075 -111567.007 139200 -111694.174 139200 -111825.826 139234.075 -111952.993 139269.297 -112014 138342 -112014 138342 -112658.597 138348.505 -112719.093 138399.555 -112855.964 138399.555 -112855.965 138487.095 -112972.904 138604.034 -113060.444 138740.906 -113111.494 138801.402 -113117.999 138801.415 -113118 139446 -113118 139446 -112190.702 139507.007 -112225.925 139634.174 -112260 139765.826 -112260 139892.993 -112225.925 139954 -112190.702 139954 -113118 140598.585 -113118 140598.597 -113117.999 140659.093 -113111.494 140795.964 -113060.444 140795.965 -113060.444 140912.904 -112972.904 141000.444 -112855.965 141000.444 -112855.964 141051.494 -112719.093 141057.999 -112658.597 141058 -112658.585 141058 -112014 140130.703 -112014 140165.925 -111952.993 140200 -111825.826 140200 -111694.174 140165.925 -111567.007 140130.703 -111506 141058 -111506 141058 -110861.414 141057.999 -110861.402 141051.494 -110800.906 141000.444 -110664.035 141000.444 -110664.034 140912.904 -110547.095 140795.966 -110459.556 140680.826 -110416.611 140623.991 -110374.064 140599.18 -110307.543 140614.272 -110238.169 140632.154 -110213.222 140775.722 -110057.268 140898.86 -109868.791 140989.296 -109662.616 141044.564 -109444.368 141063.156 -109220 141044.564 -108995.632 141016.817 -108886.061 141019.484 -108815.116 141049.862 -108766.04 142465.501 -107350.402 142527.811 -107316.379 142554.594 -107313.5 143502.962 -107313.5 143571.083 -107333.502 143608.445 -107370.585 143704.275 -107517.265 143704.279 -107517.27 143856.762 -107682.908 143911.331 -107725.381 144034.424 -107821.189 144067.68 -107839.186 144118.071 -107889.2 144133.423 -107958.516 144108.862 -108025.129 144067.68 -108060.813 144034.426 -108078.81 144034.424 -108078.811 143856.762 -108217.091 143704.279 -108382.729 143704.275 -108382.734 143581.141 -108571.206 143490.703 -108777.386 143490.702 -108777.387 143435.437 -108995.624 143416.844 -109220 143435.437 -109444.375 143490.702 -109662.612 143490.703 -109662.613 143581.141 -109868.793 143704.275 -110057.265 143704.279 -110057.27 143847.841 -110213.217 143879.262 -110276.882 143871.276 -110347.428 143826.417 -110402.457 143799.173 -110416.61 143684.039 -110459.553 143684.034 -110459.555 143567.095 -110547.095 143479.555 -110664.034 143479.555 -110664.035 143428.505 -110800.906 143422 -110861.402 143422 -111506 144349.297 -111506 144314.075 -111567.007 144280 -111694.174 144280 -111825.826 144314.075 -111952.993 144349.297 -112014 143422 -112014 143422 -112658.597 143428.505 -112719.093 143479.555 -112855.964 143479.555 -112855.965 143567.095 -112972.904 143684.034 -113060.444 143820.906 -113111.494 143881.402 -113117.999 143881.415 -113118 144526 -113118 144526 -112190.702 144587.007 -112225.925 144714.174 -112260 144845.826 -112260 144972.993 -112225.925 145034 -112190.702 145034 -113118 145678.585 -113118 145678.597 -113117.999 145739.093 -113111.494 145875.964 -113060.444 145875.965 -113060.444 145992.904 -112972.904 146080.444 -112855.965 146080.444 -112855.964 146131.494 -112719.093 146137.999 -112658.597 146138 -112658.585 146138 -112014 145210.703 -112014 145245.925 -111952.993 145280 -111825.826 145280 -111694.174 145245.925 -111567.007 145210.703 -111506 146138 -111506 146138 -110861.414 146137.999 -110861.402 146131.494 -110800.906 146080.444 -110664.035 146080.444 -110664.034 145992.904 -110547.095 145875.966 -110459.556 145760.826 -110416.611 145703.991 -110374.064 145679.18 -110307.543 145694.272 -110238.169 145712.154 -110213.222 145855.722 -110057.268 145978.86 -109868.791 146069.296 -109662.616 146124.564 -109444.368 146143.156 -109220 146124.564 -108995.632 146082.202 -108828.348 146069.297 -108777.387 146069.296 -108777.386 146069.296 -108777.384 145978.86 -108571.209 145972.14 -108560.924 145855.724 -108382.734 145855.72 -108382.729 145703.237 -108217.091 145621.382 -108153.381 145525.576 -108078.811 145492.319 -108060.813 145441.929 -108010.802 145426.576 -107941.485 145451.136 -107874.872 145492.32 -107839.186 145525.576 -107821.189 145703.24 -107682.906 145855.722 -107517.268 145978.86 -107328.791 146069.296 -107122.616 146124.564 -106904.368 146143.156 -106680 146124.564 -106455.632 146099.533 -106356.787 146069.297 -106237.387 146069.296 -106237.386 146069.296 -106237.384 145978.86 -106031.209 145923.518 -105946.501 145855.724 -105842.734 145855.72 -105842.729 145703.237 -105677.091 145621.382 -105613.381 145525.576 -105538.811 145492.319 -105520.813 145441.929 -105470.802 145426.576 -105401.485 145451.136 -105334.872 145492.32 -105299.186 145525.576 -105281.189 145703.24 -105142.906 145855.722 -104977.268 145978.86 -104788.791 146069.296 -104582.616 146124.564 -104364.368 146143.156 -104140 146124.564 -103915.632 146069.296 -103697.384 145978.86 -103491.209 145972.14 -103480.924 145855.724 -103302.734 145855.72 -103302.729 145703.237 -103137.091 145621.382 -103073.381 145525.576 -102998.811 145492.319 -102980.813 145441.929 -102930.802 145426.576 -102861.485 145451.136 -102794.872 145492.32 -102759.186 145525.576 -102741.189 145703.24 -102602.906 145855.722 -102437.268 145978.86 -102248.791 146069.296 -102042.616 146124.564 -101824.368 146143.156 -101600 146124.564 -101375.632 146069.296 -101157.384 145978.86 -100951.209 145972.14 -100940.924 145855.724 -100762.734 145855.72 -100762.729 145703.237 -100597.091 145621.382 -100533.381 145525.576 -100458.811 145492.319 -100440.813 145441.929 -100390.802 145426.576 -100321.485 145451.136 -100254.872 145492.32 -100219.186 145525.576 -100201.189 145703.24 -100062.906 145855.722 -99897.268 145978.86 -99708.791 146069.296 -99502.616 146124.564 -99284.368 146143.156 -99060 146124.564 -98835.632 146069.296 -98617.384 145978.86 -98411.209 145972.14 -98400.924 145855.724 -98222.734 145855.72 -98222.729 145703.237 -98057.091 145621.382 -97993.381 145525.576 -97918.811 145327.574 -97811.658 145327.572 -97811.657 145327.571 -97811.656 145114.639 -97738.557 145114.63 -97738.555 145070.476 -97731.187 144892.569 -97701.5 144667.431 -97701.5 144519.211 -97726.233 144445.369 -97738.555 144445.36 -97738.557 144232.428 -97811.656 144232.426 -97811.658 144034.426 -97918.81 144034.424 -97918.811 143856.762 -98057.091 143704.279 -98222.729 143704.275 -98222.734 143581.141 -98411.206 143490.703 -98617.386 143490.702 -98617.387 143435.437 -98835.624 143416.844 -99060 143435.437 -99284.375 143490.702 -99502.612 143490.703 -99502.613 143581.141 -99708.793 143704.275 -99897.265 143704.279 -99897.27 143856.762 -100062.908 143911.331 -100105.381 144034.424 -100201.189 144067.68 -100219.186 144118.071 -100269.2 144133.423 -100338.516 144108.862 -100405.129 144067.68 -100440.813 144034.426 -100458.81 144034.424 -100458.811 143856.762 -100597.091 143704.279 -100762.729 143704.275 -100762.734 143581.141 -100951.206 143490.703 -101157.386 143490.702 -101157.387 143435.437 -101375.624 143435.436 -101375.63 143435.436 -101375.632 143416.844 -101600 143424.969 -101698.058 143435.437 -101824.375 143490.702 -102042.612 143490.703 -102042.613 143490.704 -102042.616 143575.091 -102235 143581.141 -102248.793 143704.275 -102437.265 143704.279 -102437.27 143856.762 -102602.908 143911.331 -102645.381 144034.424 -102741.189 144067.68 -102759.186 144118.071 -102809.2 144133.423 -102878.516 144108.862 -102945.129 144067.68 -102980.813 144034.426 -102998.81 144034.424 -102998.811 143856.762 -103137.091 143704.279 -103302.729 143704.275 -103302.734 143581.141 -103491.206 143490.703 -103697.386 143490.702 -103697.387 143435.437 -103915.624 143416.844 -104140 143435.437 -104364.375 143490.702 -104582.612 143490.703 -104582.613 143581.141 -104788.793 143704.275 -104977.265 143704.279 -104977.27 143856.762 -105142.908 143911.331 -105185.381 144034.424 -105281.189 144067.68 -105299.186 144118.071 -105349.2 144133.423 -105418.516 144108.862 -105485.129 144067.68 -105520.813 144034.426 -105538.81 144034.424 -105538.811 143856.762 -105677.091 143704.279 -105842.729 143704.275 -105842.734 143608.445 -105989.415 143554.442 -106035.504 143502.962 -106046.5 142177.603 -106046.5 142104.568 -106061.028 142055.215 -106070.845 142055.213 -106070.845 142055.212 -106070.846 141987.675 -106098.821 141961.639 -106109.606 141939.923 -106118.601 141836.171 -106187.926 141836.169 -106187.927 140157.794 -107866.301 140095.482 -107900.326 140039.781 -107899.382 140039.776 -107899.414 140039.563 -107899.378 140037.764 -107899.348 140034.642 -107898.557 139978.567 -107889.2 139812.569 -107861.5 139587.431 -107861.5 139460.664 -107882.653 139365.356 -107898.557 139362.227 -107899.35 139360.905 -107899.3 139360.224 -107899.414 139360.2 -107899.273 139291.281 -107896.681 139242.204 -107866.3 137322.405 -105946.501 137288.379 -105884.189 137285.5 -105857.406 137285.5 -102937.524 137305.502 -102869.403 137317.858 -102853.22 137391.04 -102771.944 137486.527 -102606.556 137545.542 -102424.928 137565.504 -102235 137545.542 -102045.072 137486.527 -101863.444 137391.04 -101698.056 137391.038 -101698.054 137391.034 -101698.048 137263.255 -101556.135 137108.752 -101443.882 136934.288 -101366.206 136747.487 -101326.5 136556.513 -101326.5 136369.711 -101366.206 136195.247 -101443.882 136040.744 -101556.135 135912.965 -101698.048 135912.958 -101698.058 135817.476 -101863.438 135817.473 -101863.445 135758.457 -102045.072 135738.496 -102235 133985 -102235 133985 -97281 134005.002 -97212.879 134058.658 -97166.386 134111 -97155 146559 -97155 146627.121 -97175.002"/><path d="M 130117.121 -97175.002 130163.614 -97228.658 130175 -97281 130175 -113539 130154.998 -113607.121 130101.342 -113653.614 130049 -113665 117601 -113665 117532.879 -113644.998 117486.386 -113591.342 117475 -113539 117475 -99060 118016.844 -99060 118035.437 -99284.375 118090.702 -99502.612 118090.703 -99502.613 118181.141 -99708.793 118304.275 -99897.265 118304.279 -99897.27 118456.762 -100062.908 118511.331 -100105.381 118634.424 -100201.189 118667.68 -100219.186 118718.071 -100269.2 118733.423 -100338.516 118708.862 -100405.129 118667.68 -100440.813 118634.426 -100458.81 118634.424 -100458.811 118456.762 -100597.091 118304.279 -100762.729 118304.275 -100762.734 118181.141 -100951.206 118090.703 -101157.386 118090.702 -101157.387 118035.437 -101375.624 118035.436 -101375.63 118035.436 -101375.632 118016.844 -101600 118024.969 -101698.058 118035.437 -101824.375 118090.702 -102042.612 118090.703 -102042.613 118090.704 -102042.616 118175.091 -102235 118181.141 -102248.793 118304.275 -102437.265 118304.279 -102437.27 118456.762 -102602.908 118511.331 -102645.381 118634.424 -102741.189 118667.68 -102759.186 118718.071 -102809.2 118733.423 -102878.516 118708.862 -102945.129 118667.68 -102980.813 118634.426 -102998.81 118634.424 -102998.811 118456.762 -103137.091 118304.279 -103302.729 118304.275 -103302.734 118181.141 -103491.206 118090.703 -103697.386 118090.702 -103697.387 118035.437 -103915.624 118016.844 -104140 118035.437 -104364.375 118090.702 -104582.612 118090.703 -104582.613 118181.141 -104788.793 118304.275 -104977.265 118304.279 -104977.27 118456.762 -105142.908 118511.331 -105185.381 118634.424 -105281.189 118667.68 -105299.186 118718.071 -105349.2 118733.423 -105418.516 118708.862 -105485.129 118667.68 -105520.813 118634.426 -105538.81 118634.424 -105538.811 118456.762 -105677.091 118304.279 -105842.729 118304.275 -105842.734 118181.141 -106031.206 118090.703 -106237.386 118090.702 -106237.387 118035.437 -106455.624 118035.436 -106455.63 118035.436 -106455.632 118025.476 -106575.832 118016.844 -106680 118035.437 -106904.375 118090.702 -107122.612 118090.703 -107122.613 118181.141 -107328.793 118304.275 -107517.265 118304.279 -107517.27 118456.762 -107682.908 118511.331 -107725.381 118634.424 -107821.189 118667.68 -107839.186 118718.071 -107889.2 118733.423 -107958.516 118708.862 -108025.129 118667.68 -108060.813 118634.426 -108078.81 118634.424 -108078.811 118456.762 -108217.091 118304.279 -108382.729 118304.275 -108382.734 118181.141 -108571.206 118090.703 -108777.386 118090.702 -108777.387 118035.437 -108995.624 118016.844 -109220 118035.437 -109444.375 118090.702 -109662.612 118090.703 -109662.613 118181.141 -109868.793 118304.275 -110057.265 118304.279 -110057.27 118447.841 -110213.217 118479.262 -110276.882 118471.276 -110347.428 118426.417 -110402.457 118399.173 -110416.61 118284.039 -110459.553 118284.034 -110459.555 118167.095 -110547.095 118079.555 -110664.034 118079.555 -110664.035 118028.505 -110800.906 118022 -110861.402 118022 -111506 118949.297 -111506 118914.075 -111567.007 118880 -111694.174 118880 -111825.826 118914.075 -111952.993 118949.297 -112014 118022 -112014 118022 -112658.597 118028.505 -112719.093 118079.555 -112855.964 118079.555 -112855.965 118167.095 -112972.904 118284.034 -113060.444 118420.906 -113111.494 118481.402 -113117.999 118481.415 -113118 119126 -113118 119126 -112190.702 119187.007 -112225.925 119314.174 -112260 119445.826 -112260 119572.993 -112225.925 119634 -112190.702 119634 -113118 120278.585 -113118 120278.597 -113117.999 120339.093 -113111.494 120475.964 -113060.444 120475.965 -113060.444 120592.904 -112972.904 120680.444 -112855.965 120680.444 -112855.964 120731.494 -112719.093 120737.999 -112658.597 120738 -112658.585 120738 -112014 119810.703 -112014 119845.925 -111952.993 119880 -111825.826 119880 -111694.174 119845.925 -111567.007 119810.703 -111506 120738 -111506 120738 -110861.414 120737.999 -110861.402 120731.494 -110800.906 120680.444 -110664.035 120680.444 -110664.034 120592.904 -110547.095 120475.966 -110459.556 120360.826 -110416.611 120303.991 -110374.064 120279.18 -110307.543 120294.272 -110238.169 120312.154 -110213.222 120455.722 -110057.268 120578.86 -109868.791 120669.296 -109662.616 120724.564 -109444.368 120743.156 -109220 120724.564 -108995.632 120682.202 -108828.348 120669.297 -108777.387 120669.296 -108777.386 120669.296 -108777.384 120578.86 -108571.209 120572.14 -108560.924 120455.724 -108382.734 120455.72 -108382.729 120303.237 -108217.091 120221.382 -108153.381 120125.576 -108078.811 120092.319 -108060.813 120041.929 -108010.802 120026.576 -107941.485 120051.136 -107874.872 120092.32 -107839.186 120125.576 -107821.189 120303.24 -107682.906 120455.722 -107517.268 120551.555 -107370.585 120605.558 -107324.496 120657.038 -107313.5 121605.406 -107313.5 121673.527 -107333.502 121694.501 -107350.405 123110.132 -108766.036 123144.158 -108828.348 123143.182 -108886.061 123115.436 -108995.628 123096.844 -109220 123115.437 -109444.375 123170.702 -109662.612 123170.703 -109662.613 123261.141 -109868.793 123384.275 -110057.265 123384.279 -110057.27 123527.841 -110213.217 123559.262 -110276.882 123551.276 -110347.428 123506.417 -110402.457 123479.173 -110416.61 123364.039 -110459.553 123364.034 -110459.555 123247.095 -110547.095 123159.555 -110664.034 123159.555 -110664.035 123108.505 -110800.906 123102 -110861.402 123102 -111506 124029.297 -111506 123994.075 -111567.007 123960 -111694.174 123960 -111825.826 123994.075 -111952.993 124029.297 -112014 123102 -112014 123102 -112658.597 123108.505 -112719.093 123159.555 -112855.964 123159.555 -112855.965 123247.095 -112972.904 123364.034 -113060.444 123500.906 -113111.494 123561.402 -113117.999 123561.415 -113118 124206 -113118 124206 -112190.702 124267.007 -112225.925 124394.174 -112260 124525.826 -112260 124652.993 -112225.925 124714 -112190.702 124714 -113118 125358.585 -113118 125358.597 -113117.999 125419.093 -113111.494 125555.964 -113060.444 125555.965 -113060.444 125672.904 -112972.904 125760.444 -112855.965 125760.444 -112855.964 125811.494 -112719.093 125817.999 -112658.597 125818 -112658.585 125818 -112014 124890.703 -112014 124925.925 -111952.993 124960 -111825.826 124960 -111694.174 124925.925 -111567.007 124890.703 -111506 125818 -111506 125818 -110861.414 125817.999 -110861.402 125811.494 -110800.906 125760.444 -110664.035 125760.444 -110664.034 125672.904 -110547.095 125555.966 -110459.556 125440.826 -110416.611 125383.991 -110374.064 125359.18 -110307.543 125374.272 -110238.169 125392.154 -110213.222 125535.722 -110057.268 125658.86 -109868.791 125749.296 -109662.616 125804.564 -109444.368 125823.156 -109220 125804.564 -108995.632 125776.817 -108886.061 125779.484 -108815.116 125809.862 -108766.04 128000.071 -106575.833 128069.4 -106472.075 128117.155 -106356.785 128141.5 -106234.394 128141.5 -106109.606 128141.5 -102937.524 128161.502 -102869.403 128173.858 -102853.22 128247.04 -102771.944 128342.527 -102606.556 128401.542 -102424.928 128421.504 -102235 128401.542 -102045.072 128342.527 -101863.444 128247.04 -101698.056 128247.038 -101698.054 128247.034 -101698.048 128119.255 -101556.135 127964.752 -101443.882 127790.288 -101366.206 127603.487 -101326.5 127412.513 -101326.5 127225.711 -101366.206 127051.247 -101443.882 126896.744 -101556.135 126768.965 -101698.048 126768.958 -101698.058 126673.476 -101863.438 126673.473 -101863.445 126614.457 -102045.072 126594.496 -102235 126614.457 -102424.927 126618.468 -102437.27 126673.473 -102606.556 126673.476 -102606.561 126751.203 -102741.189 126768.96 -102771.944 126842.137 -102853.215 126872.853 -102917.22 126874.5 -102937.524 126874.5 -105857.405 126854.498 -105925.526 126837.595 -105946.5 124917.794 -107866.3 124855.482 -107900.326 124799.781 -107899.382 124799.776 -107899.414 124799.563 -107899.378 124797.764 -107899.348 124794.642 -107898.557 124738.567 -107889.2 124572.569 -107861.5 124347.431 -107861.5 124220.664 -107882.653 124125.356 -107898.557 124122.227 -107899.35 124120.905 -107899.3 124120.224 -107899.414 124120.2 -107899.273 124051.281 -107896.681 124002.204 -107866.3 122323.835 -106187.931 122323.833 -106187.929 122220.075 -106118.6 122104.785 -106070.845 122031.086 -106056.185 121982.396 -106046.5 121982.394 -106046.5 120657.038 -106046.5 120588.917 -106026.498 120551.555 -105989.415 120455.724 -105842.734 120455.72 -105842.729 120303.237 -105677.091 120221.382 -105613.381 120125.576 -105538.811 120092.319 -105520.813 120041.929 -105470.802 120026.576 -105401.485 120051.136 -105334.872 120092.32 -105299.186 120125.576 -105281.189 120303.24 -105142.906 120455.722 -104977.268 120578.86 -104788.791 120669.296 -104582.616 120724.564 -104364.368 120743.156 -104140 120724.564 -103915.632 120669.296 -103697.384 120578.86 -103491.209 120572.14 -103480.924 120455.724 -103302.734 120455.72 -103302.729 120303.237 -103137.091 120221.382 -103073.381 120125.576 -102998.811 120092.319 -102980.813 120041.929 -102930.802 120026.576 -102861.485 120051.136 -102794.872 120092.32 -102759.186 120125.576 -102741.189 120303.24 -102602.906 120455.722 -102437.268 120578.86 -102248.791 120669.296 -102042.616 120724.564 -101824.368 120743.156 -101600 120724.564 -101375.632 120669.296 -101157.384 120578.86 -100951.209 120572.14 -100940.924 120455.724 -100762.734 120455.72 -100762.729 120303.237 -100597.091 120221.382 -100533.381 120125.576 -100458.811 120092.319 -100440.813 120041.929 -100390.802 120026.576 -100321.485 120051.136 -100254.872 120092.32 -100219.186 120125.576 -100201.189 120303.24 -100062.906 120455.722 -99897.268 120578.86 -99708.791 120669.296 -99502.616 120724.564 -99284.368 120743.156 -99060 120724.564 -98835.632 120669.296 -98617.384 120578.86 -98411.209 120572.14 -98400.924 120455.724 -98222.734 120455.72 -98222.729 120303.237 -98057.091 120221.382 -97993.381 120125.576 -97918.811 119927.574 -97811.658 119927.572 -97811.657 119927.571 -97811.656 119714.639 -97738.557 119714.63 -97738.555 119670.476 -97731.187 119492.569 -97701.5 119267.431 -97701.5 119119.211 -97726.233 119045.369 -97738.555 119045.36 -97738.557 118832.428 -97811.656 118832.426 -97811.658 118634.426 -97918.81 118634.424 -97918.811 118456.762 -98057.091 118304.279 -98222.729 118304.275 -98222.734 118181.141 -98411.206 118090.703 -98617.386 118090.702 -98617.387 118035.437 -98835.624 118016.844 -99060 117475 -99060 117475 -97281 117495.002 -97212.879 117548.658 -97166.386 117601 -97155 130049 -97155 130117.121 -97175.002"/></g><g id="hc80QB4-5BR5_bottom_soldermask"><use xlink:href="#zBEEHjRfB5jd_pad-10" x="119380" y="-111760"/><use xlink:href="#zBEEHjRfB5jd_pad-11" x="119380" y="-109220"/><use xlink:href="#zBEEHjRfB5jd_pad-11" x="119380" y="-106680"/><use xlink:href="#zBEEHjRfB5jd_pad-11" x="119380" y="-104140"/><use xlink:href="#zBEEHjRfB5jd_pad-11" x="119380" y="-101600"/><use xlink:href="#zBEEHjRfB5jd_pad-11" x="119380" y="-99060"/><use xlink:href="#zBEEHjRfB5jd_pad-10" x="124460" y="-111760"/><use xlink:href="#zBEEHjRfB5jd_pad-11" x="124460" y="-109220"/><use xlink:href="#zBEEHjRfB5jd_pad-10" x="144780" y="-111760"/><use xlink:href="#zBEEHjRfB5jd_pad-11" x="144780" y="-109220"/><use xlink:href="#zBEEHjRfB5jd_pad-11" x="144780" y="-106680"/><use xlink:href="#zBEEHjRfB5jd_pad-11" x="144780" y="-104140"/><use xlink:href="#zBEEHjRfB5jd_pad-11" x="144780" y="-101600"/><use xlink:href="#zBEEHjRfB5jd_pad-11" x="144780" y="-99060"/><use xlink:href="#zBEEHjRfB5jd_pad-10" x="139700" y="-111760"/><use xlink:href="#zBEEHjRfB5jd_pad-11" x="139700" y="-109220"/></g><g id="hc80QB4-5BR5_bottom_drill1"><use xlink:href="#T7-ZtegQLxxy_pad-1" x="127508" y="-102235"/><use xlink:href="#T7-ZtegQLxxy_pad-1" x="136652" y="-102235"/><use xlink:href="#T7-ZtegQLxxy_pad-2" x="119380" y="-99060"/><use xlink:href="#T7-ZtegQLxxy_pad-2" x="119380" y="-101600"/><use xlink:href="#T7-ZtegQLxxy_pad-2" x="119380" y="-104140"/><use xlink:href="#T7-ZtegQLxxy_pad-2" x="119380" y="-106680"/><use xlink:href="#T7-ZtegQLxxy_pad-2" x="119380" y="-109220"/><use xlink:href="#T7-ZtegQLxxy_pad-2" x="119380" y="-111760"/><use xlink:href="#T7-ZtegQLxxy_pad-2" x="124460" y="-109220"/><use xlink:href="#T7-ZtegQLxxy_pad-2" x="124460" y="-111760"/><use xlink:href="#T7-ZtegQLxxy_pad-2" x="139700" y="-109220"/><use xlink:href="#T7-ZtegQLxxy_pad-2" x="139700" y="-111760"/><use xlink:href="#T7-ZtegQLxxy_pad-2" x="144780" y="-99060"/><use xlink:href="#T7-ZtegQLxxy_pad-2" x="144780" y="-101600"/><use xlink:href="#T7-ZtegQLxxy_pad-2" x="144780" y="-104140"/><use xlink:href="#T7-ZtegQLxxy_pad-2" x="144780" y="-106680"/><use xlink:href="#T7-ZtegQLxxy_pad-2" x="144780" y="-109220"/><use xlink:href="#T7-ZtegQLxxy_pad-2" x="144780" y="-111760"/></g><clipPath id="hc80QB4-5BR5_bottom_outline"><path d="M 118110 -96520 147320 -96520 147320 -114300 116840 -114300 116840 -96520 118110 -96520" fill="none" stroke-width="150"/></clipPath><mask id="hc80QB4-5BR5_bottom_mech-mask"><g fill="#000" stroke="#000"><rect x="116840" y="-114300" width="30480" height="17780" fill="#fff"/><use xlink:href="#hc80QB4-5BR5_bottom_drill1"/></g></mask><mask id="hc80QB4-5BR5_bottom_cf-mask"><g fill="#fff" stroke="#fff"><use xlink:href="#hc80QB4-5BR5_bottom_soldermask"/></g></mask><mask id="hc80QB4-5BR5_bottom_sm-mask"><g fill="#000" stroke="#000"><rect x="116840" y="-114300" width="30480" height="17780" fill="#fff"/><use xlink:href="#hc80QB4-5BR5_bottom_soldermask"/></g></mask></defs><g transform="translate(0,-210820) scale(1,-1)"><g mask="url(#hc80QB4-5BR5_bottom_mech-mask)" clip-path="url(#hc80QB4-5BR5_bottom_outline)" transform="translate(264160,0) scale(-1,1)"><rect x="116840" y="-114300" width="30480" height="17780" fill="currentColor" class="hc80QB4-5BR5_fr4"/><use xlink:href="#hc80QB4-5BR5_bottom_copper" fill="currentColor" stroke="currentColor" class="hc80QB4-5BR5_cu"/><use xlink:href="#hc80QB4-5BR5_bottom_copper" fill="currentColor" stroke="currentColor" class="hc80QB4-5BR5_cf" mask="url(#hc80QB4-5BR5_bottom_cf-mask)"/><g mask="url(#hc80QB4-5BR5_bottom_sm-mask)"><rect x="116840" y="-114300" width="30480" height="17780" fill="currentColor" class="hc80QB4-5BR5_sm"/></g></g></g></svg>