<svg version="1.1" xmlns="http://www.w3.org/2000/svg" xmlns:xlink="http://www.w3.org/1999/xlink" stroke-linecap="round" stroke-linejoin="round" stroke-width="0" fill-rule="evenodd" clip-rule="evenodd" id="hc80QB4-5BR5_top" viewBox="116840 -114300 30480 17780" width="30.48mm" height="17.78mm"><defs><style>.hc80QB4-5BR5_fr4 {color: #666666;}
.hc80QB4-5BR5_cu {color: #cccccc;}
.hc80QB4-5BR5_cf {color: #cc9933;}
.hc80QB4-5BR5_sm {color: #004200; opacity: 0.7490196078431373;}
.hc80QB4-5BR5_ss {color: #ffffff;}
.hc80QB4-5BR5_sp {color: #999999;}
.hc80QB4-5BR5_out {color: #000000;}</style><rect x="-571.5" y="-254" width="1143" height="508" id="WtcMP_p-CLul_pad-10"/><g id="WtcMP_p-CLul_pad-11"><polygon points="-475,337.5 -475,-337.5 475,-337.5 475,337.5"/><circle cx="-475" cy="337.5" r="250"/><circle cx="-475" cy="-337.5" r="250"/><circle cx="475" cy="-337.5" r="250"/><circle cx="475" cy="337.5" r="250"/><polygon points="-225,337.5 -225,-337.5 -725,-337.5 -725,337.5"/><polygon points="-475,-587.5 475,-587.5 475,-87.5 -475,-87.5"/><polygon points="725,-337.5 725,337.5 225,337.5 225,-337.5"/><polygon points="475,87.5 -475,87.5 -475,587.5 475,587.5"/></g><g id="WtcMP_p-CLul_pad-12"><polygon points="450,-325 450,325 -450,325 -450,-325"/><circle cx="450" cy="-325" r="250"/><circle cx="450" cy="325" r="250"/><circle cx="-450" cy="325" r="250"/><circle cx="-450" cy="-325" r="250"/><polygon points="700,-325 700,325 200,325 200,-325"/><polygon points="450,75 -450,75 -450,575 450,575"/><polygon points="-200,325 -200,-325 -700,-325 -700,325"/><polygon points="-450,-575 450,-575 450,-75 -450,-75"/></g><rect x="-850" y="-850" width="1700" height="1700" id="WtcMP_p-CLul_pad-13"/><rect x="-850" y="-850" width="1700" height="1700" rx="850" ry="850" id="WtcMP_p-CLul_pad-14"/><g id="WtcMP_p-CLul_pad-15"><polygon points="450,-350 450,350 -450,350 -450,-350"/><circle cx="450" cy="-350" r="250"/><circle cx="450" cy="350" r="250"/><circle cx="-450" cy="350" r="250"/><circle cx="-450" cy="-350" r="250"/><polygon points="700,-350 700,350 200,350 200,-350"/><polygon points="450,100 -450,100 -450,600 450,600"/><polygon points="-200,350 -200,-350 -700,-350 -700,350"/><polygon points="-450,-600 450,-600 450,-100 -450,-100"/></g><circle cx="0" cy="0" r="400" id="WtcMP_p-CLul_pad-16"/><g id="XaXXdCsu9rW__pad-10"><polygon points="-571.5,254 -571.5,-254 571.5,-254 571.5,254"/><circle cx="-571.5" cy="254" r="200"/><circle cx="-571.5" cy="-254" r="200"/><circle cx="571.5" cy="-254" r="200"/><circle cx="571.5" cy="254" r="200"/><polygon points="-371.5,254 -371.5,-254 -771.5,-254 -771.5,254"/><polygon points="-571.5,-454 571.5,-454 571.5,-54 -571.5,-54"/><polygon points="771.5,-254 771.5,254 371.5,254 371.5,-254"/><polygon points="571.5,54 -571.5,54 -571.5,454 571.5,454"/></g><g id="XaXXdCsu9rW__pad-11"><polygon points="-589.894,452.394 -589.894,-452.394 589.894,-452.394 589.894,452.394"/><circle cx="-589.894" cy="452.394" r="335.106"/><circle cx="-589.894" cy="-452.394" r="335.106"/><circle cx="589.894" cy="-452.394" r="335.106"/><circle cx="589.894" cy="452.394" r="335.106"/><polygon points="-254.788,452.394 -254.788,-452.394 -925,-452.394 -925,452.394"/><polygon points="-589.894,-787.5 589.894,-787.5 589.894,-117.288 -589.894,-117.288"/><polygon points="925,-452.394 925,452.394 254.788,452.394 254.788,-452.394"/><polygon points="589.894,117.288 -589.894,117.288 -589.894,787.5 589.894,787.5"/></g><g id="XaXXdCsu9rW__pad-12"><polygon points="563.044,-438.044 563.044,438.044 -563.044,438.044 -563.044,-438.044"/><circle cx="563.044" cy="-438.044" r="336.956"/><circle cx="563.044" cy="438.044" r="336.956"/><circle cx="-563.044" cy="438.044" r="336.956"/><circle cx="-563.044" cy="-438.044" r="336.956"/><polygon points="900,-438.044 900,438.044 226.088,438.044 226.088,-438.044"/><polygon points="563.044,101.088 -563.044,101.088 -563.044,775 563.044,775"/><polygon points="-226.088,438.044 -226.088,-438.044 -900,-438.044 -900,438.044"/><polygon points="-563.044,-775 563.044,-775 563.044,-101.088 -563.044,-101.088"/></g><g id="XaXXdCsu9rW__pad-13"><polygon points="850,850 -850,850 -850,-850 850,-850"/><circle cx="850" cy="850" r="200"/><circle cx="-850" cy="850" r="200"/><circle cx="-850" cy="-850" r="200"/><circle cx="850" cy="-850" r="200"/><polygon points="850,650 -850,650 -850,1050 850,1050"/><polygon points="-650,850 -650,-850 -1050,-850 -1050,850"/><polygon points="-850,-1050 850,-1050 850,-650 -850,-650"/><polygon points="1050,-850 1050,850 650,850 650,-850"/></g><rect x="-1050" y="-1050" width="2100" height="2100" rx="1050" ry="1050" id="XaXXdCsu9rW__pad-14"/><g id="XaXXdCsu9rW__pad-15"><polygon points="566.667,-466.667 566.667,466.667 -566.667,466.667 -566.667,-466.667"/><circle cx="566.667" cy="-466.667" r="333.333"/><circle cx="566.667" cy="466.667" r="333.333"/><circle cx="-566.667" cy="466.667" r="333.333"/><circle cx="-566.667" cy="-466.667" r="333.333"/><polygon points="900,-466.667 900,466.667 233.334,466.667 233.334,-466.667"/><polygon points="566.667,133.334 -566.667,133.334 -566.667,800 566.667,800"/><polygon points="-233.334,466.667 -233.334,-466.667 -900,-466.667 -900,466.667"/><polygon points="-566.667,-800 566.667,-800 566.667,-133.334 -566.667,-133.334"/></g><rect x="-571.5" y="-254" width="1143" height="508" id="ZyNaO18bgPYI_pad-10"/><g id="ZyNaO18bgPYI_pad-11"><polygon points="-475,337.5 -475,-337.5 475,-337.5 475,337.5"/><circle cx="-475" cy="337.5" r="250"/><circle cx="-475" cy="-337.5" r="250"/><circle cx="475" cy="-337.5" r="250"/><circle cx="475" cy="337.5" r="250"/><polygon points="-225,337.5 -225,-337.5 -725,-337.5 -725,337.5"/><polygon points="-475,-587.5 475,-587.5 475,-87.5 -475,-87.5"/><polygon points="725,-337.5 725,337.5 225,337.5 225,-337.5"/><polygon points="475,87.5 -475,87.5 -475,587.5 475,587.5"/></g><g id="ZyNaO18bgPYI_pad-12"><polygon points="450,-325 450,325 -450,325 -450,-325"/><circle cx="450" cy="-325" r="250"/><circle cx="450" cy="325" r="250"/><circle cx="-450" cy="325" r="250"/><circle cx="-450" cy="-325" r="250"/><polygon points="700,-325 700,325 200,325 200,-325"/><polygon points="450,75 -450,75 -450,575 450,575"/><polygon points="-200,325 -200,-325 -700,-325 -700,325"/><polygon points="-450,-575 450,-575 450,-75 -450,-75"/></g><g id="ZyNaO18bgPYI_pad-13"><polygon points="450,-350 450,350 -450,350 -450,-350"/><circle cx="450" cy="-350" r="250"/><circle cx="450" cy="350" r="250"/><circle cx="-450" cy="350" r="250"/><circle cx="-450" cy="-350" r="250"/><polygon points="700,-350 700,350 200,350 200,-350"/><polygon points="450,100 -450,100 -450,600 450,600"/><polygon points="-200,350 -200,-350 -700,-350 -700,350"/><polygon points="-450,-600 450,-600 450,-100 -450,-100"/></g><circle cx="0" cy="0" r="200" id="T7-ZtegQLxxy_pad-1"/><circle cx="0" cy="0" r="500" id="T7-ZtegQLxxy_pad-2"/><g id="hc80QB4-5BR5_top_copper"><use xlink:href="#WtcMP_p-CLul_pad-10" x="128905" y="-102235"/><use xlink:href="#WtcMP_p-CLul_pad-10" x="128905" y="-103505"/><use xlink:href="#WtcMP_p-CLul_pad-10" x="128905" y="-104775"/><use xlink:href="#WtcMP_p-CLul_pad-10" x="128905" y="-106045"/><use xlink:href="#WtcMP_p-CLul_pad-10" x="135255" y="-106045"/><use xlink:href="#WtcMP_p-CLul_pad-10" x="135255" y="-104775"/><use xlink:href="#WtcMP_p-CLul_pad-10" x="135255" y="-103505"/><use xlink:href="#WtcMP_p-CLul_pad-10" x="135255" y="-102235"/><use xlink:href="#WtcMP_p-CLul_pad-11" x="128270" y="-109452.5"/><use xlink:href="#WtcMP_p-CLul_pad-11" x="128270" y="-111527.5"/><use xlink:href="#WtcMP_p-CLul_pad-11" x="135890" y="-109452.5"/><use xlink:href="#WtcMP_p-CLul_pad-11" x="135890" y="-111527.5"/><use xlink:href="#WtcMP_p-CLul_pad-12" x="125730" y="-101355"/><use xlink:href="#WtcMP_p-CLul_pad-12" x="125730" y="-99305"/><use xlink:href="#WtcMP_p-CLul_pad-12" x="138430" y="-101355"/><use xlink:href="#WtcMP_p-CLul_pad-12" x="138430" y="-99305"/><use xlink:href="#WtcMP_p-CLul_pad-13" x="119380" y="-111760"/><use xlink:href="#WtcMP_p-CLul_pad-14" x="119380" y="-109220"/><use xlink:href="#WtcMP_p-CLul_pad-14" x="119380" y="-106680"/><use xlink:href="#WtcMP_p-CLul_pad-14" x="119380" y="-104140"/><use xlink:href="#WtcMP_p-CLul_pad-14" x="119380" y="-101600"/><use xlink:href="#WtcMP_p-CLul_pad-14" x="119380" y="-99060"/><use xlink:href="#WtcMP_p-CLul_pad-13" x="124460" y="-111760"/><use xlink:href="#WtcMP_p-CLul_pad-14" x="124460" y="-109220"/><use xlink:href="#WtcMP_p-CLul_pad-13" x="144780" y="-111760"/><use xlink:href="#WtcMP_p-CLul_pad-14" x="144780" y="-109220"/><use xlink:href="#WtcMP_p-CLul_pad-14" x="144780" y="-106680"/><use xlink:href="#WtcMP_p-CLul_pad-14" x="144780" y="-104140"/><use xlink:href="#WtcMP_p-CLul_pad-14" x="144780" y="-101600"/><use xlink:href="#WtcMP_p-CLul_pad-14" x="144780" y="-99060"/><use xlink:href="#WtcMP_p-CLul_pad-13" x="139700" y="-111760"/><use xlink:href="#WtcMP_p-CLul_pad-14" x="139700" y="-109220"/><use xlink:href="#WtcMP_p-CLul_pad-15" x="123190" y="-101330"/><use xlink:href="#WtcMP_p-CLul_pad-15" x="123190" y="-99330"/><use xlink:href="#WtcMP_p-CLul_pad-15" x="140970" y="-101330"/><use xlink:href="#WtcMP_p-CLul_pad-15" x="140970" y="-99330"/><use xlink:href="#WtcMP_p-CLul_pad-16" x="136652" y="-102235"/><use xlink:href="#WtcMP_p-CLul_pad-16" x="127508" y="-102235"/><path d="M 136652 -102235 136652 -99782.7 M 135890 -109240 136840.3 -109240 M 136652 -99782.7 137129.7 -99305 M 135890 -109452.5 136122.5 -109220 M 138430 -99305 137129.7 -99305 M 139700 -109220 138524.7 -109220 M 136122.5 -109220 139700 -109220 M 135255 -102235 136652 -102235 M 144780 -104140 136786.8 -104140 M 135255 -104775 136151.8 -104775 M 136786.8 -104140 136151.8 -104775 M 138504.7 -111740 135890 -111740 M 139700 -111760 138524.7 -111760 138504.7 -111740 M 144780 -111760 139700 -111760 M 125655.3 -111740 125635.3 -111760 M 128270 -111740 125655.3 -111740 M 124460 -111760 125635.3 -111760 M 119380 -111760 124460 -111760 M 128905 -104775 128008.2 -104775 M 119380 -104140 127373.2 -104140 128008.2 -104775 M 119380 -101600 120555.3 -101600 122460.3 -103505 128905 -103505 M 125730 -99305 126864 -99305 M 127508 -102235 127508 -99949 126864 -99305 M 127299.7 -109220 127319.7 -109240 M 128270 -109240 127319.7 -109240 M 124460 -109220 127299.7 -109220 M 128905 -102235 127508 -102235 M 123190 -101680 125730 -101680 M 140970 -101680 138430 -101680 M 141732 -103505 135255 -103505 M 143637 -101600 141732 -103505 M 144780 -101600 143637 -101600" fill="none" stroke-width="250"/><path d="M 146627.121 -97175.002 146673.614 -97228.658 146685 -97281 146685 -113539 146664.998 -113607.121 146611.342 -113653.614 146559 -113665 134111 -113665 134042.879 -113644.998 133996.386 -113591.342 133985 -113539 133985 -111915.516 134657 -111915.516 134667.605 -112019.318 134667.606 -112019.321 134723.342 -112187.525 134816.365 -112338.339 134816.37 -112338.345 134941.654 -112463.629 134941.66 -112463.634 135092.474 -112556.657 135260.678 -112612.393 135260.681 -112612.394 135364.483 -112622.999 135364.483 -112623 135636 -112623 136144 -112623 136415.517 -112623 136415.516 -112622.999 136519.318 -112612.394 136519.321 -112612.393 136687.525 -112556.657 136838.339 -112463.634 136838.345 -112463.629 136963.629 -112338.345 136963.634 -112338.339 137056.657 -112187.525 137112.393 -112019.321 137112.394 -112019.318 137122.999 -111915.516 137123 -111915.516 137123 -111781.5 136144 -111781.5 136144 -112623 135636 -112623 135636 -111781.5 134657 -111781.5 134657 -111915.516 133985 -111915.516 133985 -109064.446 134656.5 -109064.446 134656.5 -109840.544 134667.112 -109944.425 134722.885 -110112.738 134815.97 -110263.652 134815.975 -110263.658 134941.345 -110389.028 134944.45 -110391.483 134946.027 -110393.71 134946.537 -110394.22 134946.449 -110394.307 134985.481 -110449.422 134988.673 -110520.347 134953.014 -110581.739 134944.454 -110589.157 134941.654 -110591.37 134816.37 -110716.654 134816.365 -110716.66 134723.342 -110867.474 134667.606 -111035.678 134667.605 -111035.681 134657 -111139.483 134657 -111273.5 137123 -111273.5 137123 -111139.483 137112.394 -111035.681 137112.393 -111035.678 137056.657 -110867.474 136963.634 -110716.66 136963.629 -110716.654 136838.344 -110591.369 136835.551 -110589.161 136834.131 -110587.156 136833.15 -110586.175 136833.317 -110586.007 136794.519 -110531.222 136791.325 -110460.298 136826.983 -110398.905 136835.554 -110391.478 136838.639 -110389.037 136838.652 -110389.03 136964.03 -110263.652 137057.115 -110112.738 137112.887 -109944.426 137112.887 -109944.424 137114.397 -109939.868 137154.811 -109881.496 137220.367 -109854.24 137234.002 -109853.5 138422.962 -109853.5 138491.083 -109873.502 138528.445 -109910.585 138624.275 -110057.265 138624.279 -110057.27 138767.841 -110213.217 138799.262 -110276.882 138791.276 -110347.428 138746.417 -110402.457 138719.173 -110416.61 138604.039 -110459.553 138604.034 -110459.555 138487.095 -110547.095 138399.555 -110664.034 138399.555 -110664.035 138348.505 -110800.906 138342 -110861.402 138342 -111506 139269.297 -111506 139234.075 -111567.007 139200 -111694.174 139200 -111825.826 139234.075 -111952.993 139269.297 -112014 138342 -112014 138342 -112658.597 138348.505 -112719.093 138399.555 -112855.964 138399.555 -112855.965 138487.095 -112972.904 138604.034 -113060.444 138740.906 -113111.494 138801.402 -113117.999 138801.415 -113118 139446 -113118 139446 -112190.702 139507.007 -112225.925 139634.174 -112260 139765.826 -112260 139892.993 -112225.925 139954 -112190.702 139954 -113118 140598.585 -113118 140598.597 -113117.999 140659.093 -113111.494 140795.964 -113060.444 140795.965 -113060.444 140912.904 -112972.904 141000.444 -112855.965 141000.444 -112855.964 141051.494 -112719.093 141057.999 -112658.597 141058 -112658.585 141058 -112014 140130.703 -112014 140165.925 -111952.993 140200 -111825.826 140200 -111694.174 140165.925 -111567.007 140130.703 -111506 141058 -111506 141058 -110861.414 141057.999 -110861.402 141051.494 -110800.906 141000.444 -110664.035 141000.444 -110664.034 140912.904 -110547.095 140795.966 -110459.556 140680.826 -110416.611 140623.991 -110374.064 140599.18 -110307.543 140614.272 -110238.169 140632.154 -110213.222 140775.722 -110057.268 140898.86 -109868.791 140989.296 -109662.616 141044.564 -109444.368 141063.156 -109220 141044.564 -108995.632 140989.296 -108777.384 140898.86 -108571.209 140862.771 -108515.97 140775.724 -108382.734 140775.72 -108382.729 140623.237 -108217.091 140541.382 -108153.381 140445.576 -108078.811 140247.574 -107971.658 140247.572 -107971.657 140247.571 -107971.656 140034.639 -107898.557 140034.63 -107898.555 139978.567 -107889.2 139812.569 -107861.5 139587.431 -107861.5 139439.211 -107886.233 139365.369 -107898.555 139365.36 -107898.557 139152.428 -107971.656 139152.426 -107971.658 138954.432 -108078.807 138954.426 -108078.81 138954.424 -108078.811 138776.762 -108217.091 138624.279 -108382.729 138624.275 -108382.734 138528.445 -108529.415 138474.442 -108575.504 138422.962 -108586.5 136961.372 -108586.5 136893.251 -108566.498 136872.28 -108549.598 136838.652 -108515.97 136687.738 -108422.885 136566.553 -108382.729 136519.427 -108367.113 136519.42 -108367.112 136415.553 -108356.5 135364.455 -108356.5 135260.574 -108367.112 135092.261 -108422.885 134941.347 -108515.97 134941.341 -108515.975 134815.975 -108641.341 134815.97 -108641.347 134722.885 -108792.262 134667.113 -108960.572 134667.112 -108960.579 134656.5 -109064.446 133985 -109064.446 133985 -106578.273 134005.002 -106510.152 134058.658 -106463.659 134128.932 -106453.555 134193.512 -106483.049 134229.056 -106534.241 134233.055 -106544.965 134320.595 -106661.904 134437.534 -106749.444 134574.406 -106800.494 134634.902 -106806.999 134634.915 -106807 135001 -106807 135509 -106807 135875.085 -106807 135875.097 -106806.999 135935.593 -106800.494 136072.464 -106749.444 136072.465 -106749.444 136189.404 -106661.904 136276.944 -106544.965 136276.944 -106544.964 136327.994 -106408.093 136334.499 -106347.597 136334.5 -106347.585 136334.5 -106299 135509 -106299 135509 -106807 135001 -106807 135001 -106171 135021.002 -106102.879 135074.658 -106056.386 135127 -106045 135255 -106045 135255 -105917 135275.002 -105848.879 135328.658 -105802.386 135381 -105791 136334.5 -105791 136334.5 -105742.414 136334.499 -105742.402 136327.994 -105681.906 136275.438 -105540.996 136270.374 -105470.181 136304.399 -105407.868 136345.276 -105380.555 136451.875 -105336.4 136555.633 -105267.071 137012.301 -104810.404 137074.613 -104776.379 137101.396 -104773.5 143502.962 -104773.5 143571.083 -104793.502 143608.445 -104830.585 143704.275 -104977.265 143704.279 -104977.27 143856.762 -105142.908 143911.331 -105185.381 144034.424 -105281.189 144067.68 -105299.186 144118.071 -105349.2 144133.423 -105418.516 144108.862 -105485.129 144067.68 -105520.813 144034.426 -105538.81 144034.424 -105538.811 143856.762 -105677.091 143704.279 -105842.729 143704.275 -105842.734 143581.141 -106031.206 143490.703 -106237.386 143490.702 -106237.387 143435.437 -106455.624 143435.436 -106455.63 143435.436 -106455.632 143416.844 -106680 143422.598 -106749.444 143435.437 -106904.375 143490.702 -107122.612 143490.703 -107122.613 143581.141 -107328.793 143704.275 -107517.265 143704.279 -107517.27 143856.762 -107682.908 143911.331 -107725.381 144034.424 -107821.189 144067.68 -107839.186 144118.071 -107889.2 144133.423 -107958.516 144108.862 -108025.129 144067.68 -108060.813 144034.426 -108078.81 144034.424 -108078.811 143856.762 -108217.091 143704.279 -108382.729 143704.275 -108382.734 143581.141 -108571.206 143490.703 -108777.386 143490.702 -108777.387 143435.437 -108995.624 143416.844 -109220 143435.437 -109444.375 143490.702 -109662.612 143490.703 -109662.613 143490.704 -109662.616 143581.14 -109868.791 143581.141 -109868.793 143704.275 -110057.265 143704.279 -110057.27 143847.841 -110213.217 143879.262 -110276.882 143871.276 -110347.428 143826.417 -110402.457 143799.173 -110416.61 143684.039 -110459.553 143684.034 -110459.555 143567.095 -110547.095 143479.555 -110664.034 143479.555 -110664.035 143428.505 -110800.906 143422 -110861.402 143422 -111506 144349.297 -111506 144314.075 -111567.007 144280 -111694.174 144280 -111825.826 144314.075 -111952.993 144349.297 -112014 143422 -112014 143422 -112658.597 143428.505 -112719.093 143479.555 -112855.964 143479.555 -112855.965 143567.095 -112972.904 143684.034 -113060.444 143820.906 -113111.494 143881.402 -113117.999 143881.415 -113118 144526 -113118 144526 -112190.702 144587.007 -112225.925 144714.174 -112260 144845.826 -112260 144972.993 -112225.925 145034 -112190.702 145034 -113118 145678.585 -113118 145678.597 -113117.999 145739.093 -113111.494 145875.964 -113060.444 145875.965 -113060.444 145992.904 -112972.904 146080.444 -112855.965 146080.444 -112855.964 146131.494 -112719.093 146137.999 -112658.597 146138 -112658.585 146138 -112014 145210.703 -112014 145245.925 -111952.993 145280 -111825.826 145280 -111694.174 145245.925 -111567.007 145210.703 -111506 146138 -111506 146138 -110861.414 146137.999 -110861.402 146131.494 -110800.906 146080.444 -110664.035 146080.444 -110664.034 145992.904 -110547.095 145875.966 -110459.556 145760.826 -110416.611 145703.991 -110374.064 145679.18 -110307.543 145694.272 -110238.169 145712.154 -110213.222 145855.722 -110057.268 145978.86 -109868.791 146069.296 -109662.616 146124.564 -109444.368 146143.156 -109220 146124.564 -108995.632 146069.296 -108777.384 145978.86 -108571.209 145942.771 -108515.97 145855.724 -108382.734 145855.72 -108382.729 145703.237 -108217.091 145621.382 -108153.381 145525.576 -108078.811 145492.319 -108060.813 145441.929 -108010.802 145426.576 -107941.485 145451.136 -107874.872 145492.32 -107839.186 145525.576 -107821.189 145703.24 -107682.906 145855.722 -107517.268 145978.86 -107328.791 146069.296 -107122.616 146124.564 -106904.368 146143.156 -106680 146124.564 -106455.632 146124.038 -106453.555 146069.297 -106237.387 146069.296 -106237.386 146069.296 -106237.384 145978.86 -106031.209 145904.244 -105917 145855.724 -105842.734 145855.72 -105842.729 145703.237 -105677.091 145621.382 -105613.381 145525.576 -105538.811 145523.153 -105537.5 145492.32 -105520.814 145441.929 -105470.802 145426.576 -105401.485 145451.136 -105334.872 145492.32 -105299.186 145525.576 -105281.189 145703.24 -105142.906 145855.722 -104977.268 145978.86 -104788.791 146069.296 -104582.616 146124.564 -104364.368 146143.156 -104140 146124.564 -103915.632 146069.296 -103697.384 145978.86 -103491.209 145894.815 -103362.568 145855.724 -103302.734 145855.72 -103302.729 145703.237 -103137.091 145533.265 -103004.796 145525.576 -102998.811 145492.319 -102980.813 145441.929 -102930.802 145426.576 -102861.485 145451.136 -102794.872 145492.32 -102759.186 145525.576 -102741.189 145703.24 -102602.906 145855.722 -102437.268 145978.86 -102248.791 146069.296 -102042.616 146124.564 -101824.368 146143.156 -101600 146124.564 -101375.632 146124.562 -101375.624 146069.297 -101157.387 146069.296 -101157.386 146069.296 -101157.384 145978.86 -100951.209 145960.402 -100922.957 145855.724 -100762.734 145855.72 -100762.729 145703.237 -100597.091 145621.382 -100533.381 145525.576 -100458.811 145492.319 -100440.813 145441.929 -100390.802 145426.576 -100321.485 145451.136 -100254.872 145492.32 -100219.186 145525.576 -100201.189 145703.24 -100062.906 145855.722 -99897.268 145978.86 -99708.791 146069.296 -99502.616 146124.564 -99284.368 146143.156 -99060 146124.564 -98835.632 146101.258 -98743.6 146069.297 -98617.387 146069.296 -98617.386 146069.296 -98617.384 145978.86 -98411.209 145959.104 -98380.97 145855.724 -98222.734 145855.72 -98222.729 145703.237 -98057.091 145621.382 -97993.381 145525.576 -97918.811 145327.574 -97811.658 145327.572 -97811.657 145327.571 -97811.656 145114.639 -97738.557 145114.63 -97738.555 145070.476 -97731.187 144892.569 -97701.5 144667.431 -97701.5 144519.211 -97726.233 144445.369 -97738.555 144445.36 -97738.557 144232.428 -97811.656 144232.426 -97811.658 144034.426 -97918.81 144034.424 -97918.811 143856.762 -98057.091 143704.279 -98222.729 143704.275 -98222.734 143581.141 -98411.206 143490.703 -98617.386 143490.702 -98617.387 143435.437 -98835.624 143435.436 -98835.63 143435.436 -98835.632 143416.844 -99060 143428.776 -99204 143435.437 -99284.375 143490.702 -99502.612 143490.703 -99502.613 143490.704 -99502.616 143532.506 -99597.915 143581.141 -99708.793 143704.275 -99897.265 143704.279 -99897.27 143856.762 -100062.908 143909.11 -100103.652 144034.424 -100201.189 144067.68 -100219.186 144118.071 -100269.2 144133.423 -100338.516 144108.862 -100405.129 144067.68 -100440.813 144034.426 -100458.81 144034.424 -100458.811 143856.762 -100597.091 143704.279 -100762.729 143599.597 -100922.957 143545.593 -100969.045 143518.698 -100977.619 143452.222 -100990.843 143452.215 -100990.845 143336.924 -101038.6 143233.171 -101107.926 143233.169 -101107.927 142375.914 -101965.182 142313.602 -101999.207 142242.786 -101994.142 142185.951 -101951.595 142161.14 -101885.075 142166.623 -101841.193 142166.446 -101841.155 142166.884 -101839.104 142167.217 -101836.447 142167.887 -101834.426 142178.5 -101730.545 142178.499 -100929.456 142167.887 -100825.574 142112.115 -100657.262 142019.03 -100506.348 142019.029 -100506.347 142019.024 -100506.341 141931.424 -100418.741 141897.398 -100356.429 141902.463 -100285.614 141931.424 -100240.551 142018.629 -100153.345 142018.634 -100153.339 142111.657 -100002.525 142167.393 -99834.321 142167.394 -99834.318 142177.999 -99730.516 142178 -99730.516 142178 -99584 141096 -99584 141027.879 -99563.998 140981.386 -99510.342 140970 -99458 140970 -99330 140842 -99330 140773.879 -99309.998 140727.386 -99256.342 140716 -99204 140716 -99076 141224 -99076 142178 -99076 142178 -98929.483 142167.394 -98825.681 142167.393 -98825.678 142111.657 -98657.474 142018.634 -98506.66 142018.629 -98506.654 141893.345 -98381.37 141893.339 -98381.365 141742.525 -98288.342 141574.321 -98232.606 141574.318 -98232.605 141470.516 -98222 141224 -98222 141224 -99076 140716 -99076 140716 -98222 140469.483 -98222 140365.681 -98232.605 140365.678 -98232.606 140197.474 -98288.342 140046.66 -98381.365 140046.654 -98381.37 139921.37 -98506.654 139921.365 -98506.66 139828.34 -98657.478 139819.866 -98683.05 139779.451 -98741.421 139713.894 -98768.675 139644.009 -98756.159 139591.984 -98707.848 139580.658 -98683.045 139572.186 -98657.478 139572.115 -98657.262 139479.03 -98506.348 139479.029 -98506.347 139479.024 -98506.341 139353.658 -98380.975 139353.652 -98380.97 139202.738 -98287.885 139118.582 -98259.999 139034.427 -98232.113 139034.42 -98232.112 138930.553 -98221.5 137929.455 -98221.5 137825.574 -98232.112 137657.261 -98287.885 137506.347 -98380.97 137506.341 -98380.975 137380.975 -98506.341 137380.97 -98506.347 137316.021 -98611.647 137263.235 -98659.125 137208.78 -98671.5 137067.303 -98671.5 136994.268 -98686.028 136944.915 -98695.845 136944.913 -98695.845 136944.912 -98695.846 136829.623 -98743.601 136725.871 -98812.926 136725.864 -98812.931 136159.931 -99378.864 136159.929 -99378.867 136090.6 -99482.625 136079.119 -99510.342 136042.846 -99597.912 136018.5 -99720.303 136018.5 -101347.64 135998.498 -101415.761 135944.842 -101462.254 135879.037 -101472.919 135875.143 -101472.5 135875.138 -101472.5 134634.862 -101472.5 134634.85 -101472.5 134574.303 -101479.009 134574.295 -101479.011 134437.297 -101530.11 134437.292 -101530.112 134320.238 -101617.738 134232.612 -101734.792 134232.611 -101734.795 134229.055 -101744.33 134186.508 -101801.165 134119.987 -101825.975 134050.613 -101810.883 134000.412 -101760.68 133985 -101700.296 133985 -97281 134005.002 -97212.879 134058.658 -97166.386 134111 -97155 146559 -97155 146627.121 -97175.002"/><path d="M 130117.121 -97175.002 130163.614 -97228.658 130175 -97281 130175 -101700.296 130154.998 -101768.417 130101.342 -101814.91 130031.068 -101825.014 129966.488 -101795.52 129930.945 -101744.33 129927.389 -101734.796 129927.387 -101734.794 129927.387 -101734.792 129839.761 -101617.738 129722.707 -101530.112 129722.702 -101530.11 129585.704 -101479.011 129585.696 -101479.009 129525.149 -101472.5 129525.138 -101472.5 128284.862 -101472.5 128284.856 -101472.5 128280.963 -101472.919 128211.095 -101460.31 128159.135 -101411.929 128141.5 -101347.64 128141.5 -99886.607 128141.499 -99886.603 128117.155 -99764.215 128094.215 -99708.833 128069.401 -99648.925 128000.072 -99545.167 127267.833 -98812.929 127164.075 -98743.6 127048.785 -98695.845 126984.445 -98683.047 126928.373 -98671.893 126865.463 -98638.985 126845.718 -98614.466 126779.03 -98506.348 126779.029 -98506.347 126779.024 -98506.341 126653.658 -98380.975 126653.652 -98380.97 126502.738 -98287.885 126418.582 -98259.999 126334.427 -98232.113 126334.42 -98232.112 126230.553 -98221.5 125229.455 -98221.5 125125.574 -98232.112 124957.261 -98287.885 124806.347 -98380.97 124806.341 -98380.975 124680.975 -98506.341 124680.97 -98506.347 124614.285 -98614.461 124599.159 -98638.985 124587.884 -98657.264 124579.34 -98683.048 124538.925 -98741.419 124473.369 -98768.674 124403.484 -98756.16 124351.458 -98707.85 124340.132 -98683.047 124331.659 -98657.478 124238.634 -98506.66 124238.629 -98506.654 124113.345 -98381.37 124113.339 -98381.365 123962.525 -98288.342 123794.321 -98232.606 123794.318 -98232.605 123690.516 -98222 123444 -98222 123444 -99204 123423.998 -99272.121 123370.342 -99318.614 123318 -99330 123190 -99330 123190 -99458 123169.998 -99526.121 123116.342 -99572.614 123064 -99584 121982 -99584 121982 -99730.516 121992.605 -99834.318 121992.606 -99834.321 122048.342 -100002.525 122141.365 -100153.339 122141.37 -100153.345 122228.576 -100240.551 122262.602 -100302.863 122257.537 -100373.678 122228.576 -100418.741 122140.975 -100506.341 122140.97 -100506.347 122047.885 -100657.262 121992.113 -100825.572 121992.112 -100825.579 121981.5 -100929.446 121981.5 -101730.544 121990.991 -101823.444 121978.015 -101893.245 121929.362 -101944.95 121860.478 -101962.143 121793.235 -101939.366 121776.548 -101925.344 120959.135 -101107.931 120959.133 -101107.929 120855.375 -101038.6 120773.856 -101004.833 120740.088 -100990.846 120740.086 -100990.845 120740.085 -100990.845 120682.823 -100979.455 120636.478 -100970.236 120573.569 -100937.328 120555.578 -100915.573 120455.72 -100762.729 120303.237 -100597.091 120221.382 -100533.381 120125.576 -100458.811 120092.319 -100440.813 120041.929 -100390.802 120026.576 -100321.485 120051.136 -100254.872 120092.32 -100219.186 120125.576 -100201.189 120303.24 -100062.906 120455.722 -99897.268 120578.86 -99708.791 120669.296 -99502.616 120724.564 -99284.368 120743.156 -99060 120732.341 -98929.483 121982 -98929.483 121982 -99076 122936 -99076 122936 -98222 122689.483 -98222 122585.681 -98232.605 122585.678 -98232.606 122417.474 -98288.342 122266.66 -98381.365 122266.654 -98381.37 122141.37 -98506.654 122141.365 -98506.66 122048.342 -98657.474 121992.606 -98825.678 121992.605 -98825.681 121982 -98929.483 120732.341 -98929.483 120724.564 -98835.632 120689.165 -98695.845 120669.297 -98617.387 120669.296 -98617.386 120669.296 -98617.384 120578.86 -98411.209 120559.104 -98380.97 120455.724 -98222.734 120455.72 -98222.729 120303.237 -98057.091 120221.382 -97993.381 120125.576 -97918.811 119927.574 -97811.658 119927.572 -97811.657 119927.571 -97811.656 119714.639 -97738.557 119714.63 -97738.555 119670.476 -97731.187 119492.569 -97701.5 119267.431 -97701.5 119119.211 -97726.233 119045.369 -97738.555 119045.36 -97738.557 118832.428 -97811.656 118832.426 -97811.658 118634.426 -97918.81 118634.424 -97918.811 118456.762 -98057.091 118304.279 -98222.729 118304.275 -98222.734 118181.141 -98411.206 118090.703 -98617.386 118090.702 -98617.387 118035.437 -98835.624 118035.436 -98835.63 118035.436 -98835.632 118016.844 -99060 118034.421 -99272.121 118035.437 -99284.375 118090.702 -99502.612 118090.703 -99502.613 118090.704 -99502.616 118121.408 -99572.614 118181.141 -99708.793 118304.275 -99897.265 118304.279 -99897.27 118456.762 -100062.908 118509.11 -100103.652 118634.424 -100201.189 118667.68 -100219.186 118718.071 -100269.2 118733.423 -100338.516 118708.862 -100405.129 118667.68 -100440.813 118634.426 -100458.81 118634.424 -100458.811 118456.762 -100597.091 118304.279 -100762.729 118304.275 -100762.734 118181.141 -100951.206 118090.703 -101157.386 118090.702 -101157.387 118035.437 -101375.624 118035.436 -101375.63 118035.436 -101375.632 118016.844 -101600 118035.359 -101823.444 118035.437 -101824.375 118090.702 -102042.612 118090.703 -102042.613 118181.141 -102248.793 118304.275 -102437.265 118304.279 -102437.27 118456.762 -102602.908 118508.852 -102643.451 118634.424 -102741.189 118667.68 -102759.186 118718.071 -102809.2 118733.423 -102878.516 118708.862 -102945.129 118667.68 -102980.813 118634.426 -102998.81 118634.424 -102998.811 118456.762 -103137.091 118304.279 -103302.729 118304.275 -103302.734 118181.141 -103491.206 118090.703 -103697.386 118090.702 -103697.387 118035.437 -103915.624 118016.844 -104140 118035.437 -104364.375 118090.702 -104582.612 118090.703 -104582.613 118181.141 -104788.793 118304.275 -104977.265 118304.279 -104977.27 118456.762 -105142.908 118511.331 -105185.381 118634.424 -105281.189 118667.68 -105299.186 118718.071 -105349.2 118733.423 -105418.516 118708.862 -105485.129 118667.68 -105520.813 118634.426 -105538.81 118634.424 -105538.811 118456.762 -105677.091 118304.279 -105842.729 118304.275 -105842.734 118181.141 -106031.206 118090.703 -106237.386 118090.702 -106237.387 118035.437 -106455.624 118035.436 -106455.63 118035.436 -106455.632 118016.844 -106680 118022.598 -106749.444 118035.437 -106904.375 118090.702 -107122.612 118090.703 -107122.613 118181.141 -107328.793 118304.275 -107517.265 118304.279 -107517.27 118456.762 -107682.908 118511.331 -107725.381 118634.424 -107821.189 118667.68 -107839.186 118718.071 -107889.2 118733.423 -107958.516 118708.862 -108025.129 118667.68 -108060.813 118634.426 -108078.81 118634.424 -108078.811 118456.762 -108217.091 118304.279 -108382.729 118304.275 -108382.734 118181.141 -108571.206 118090.703 -108777.386 118090.702 -108777.387 118035.437 -108995.624 118016.844 -109220 118035.437 -109444.375 118090.702 -109662.612 118090.703 -109662.613 118181.141 -109868.793 118304.275 -110057.265 118304.279 -110057.27 118447.841 -110213.217 118479.262 -110276.882 118471.276 -110347.428 118426.417 -110402.457 118399.173 -110416.61 118284.039 -110459.553 118284.034 -110459.555 118167.095 -110547.095 118079.555 -110664.034 118079.555 -110664.035 118028.505 -110800.906 118022 -110861.402 118022 -111506 118949.297 -111506 118914.075 -111567.007 118880 -111694.174 118880 -111825.826 118914.075 -111952.993 118949.297 -112014 118022 -112014 118022 -112658.597 118028.505 -112719.093 118079.555 -112855.964 118079.555 -112855.965 118167.095 -112972.904 118284.034 -113060.444 118420.906 -113111.494 118481.402 -113117.999 118481.415 -113118 119126 -113118 119126 -112190.702 119187.007 -112225.925 119314.174 -112260 119445.826 -112260 119572.993 -112225.925 119634 -112190.702 119634 -113118 120278.585 -113118 120278.597 -113117.999 120339.093 -113111.494 120475.964 -113060.444 120475.965 -113060.444 120592.904 -112972.904 120680.444 -112855.965 120680.444 -112855.964 120731.494 -112719.093 120737.999 -112658.597 120738 -112658.585 120738 -112014 119810.703 -112014 119845.925 -111952.993 119880 -111825.826 119880 -111694.174 119845.925 -111567.007 119810.703 -111506 120738 -111506 120738 -110861.414 120737.999 -110861.402 120731.494 -110800.906 120680.444 -110664.035 120680.444 -110664.034 120592.904 -110547.095 120475.966 -110459.556 120360.826 -110416.611 120303.991 -110374.064 120279.18 -110307.543 120294.272 -110238.169 120312.154 -110213.222 120455.722 -110057.268 120578.86 -109868.791 120669.296 -109662.616 120724.564 -109444.368 120743.156 -109220 123096.844 -109220 123115.437 -109444.375 123170.702 -109662.612 123170.703 -109662.613 123261.141 -109868.793 123384.275 -110057.265 123384.279 -110057.27 123527.841 -110213.217 123559.262 -110276.882 123551.276 -110347.428 123506.417 -110402.457 123479.173 -110416.61 123364.039 -110459.553 123364.034 -110459.555 123247.095 -110547.095 123159.555 -110664.034 123159.555 -110664.035 123108.505 -110800.906 123102 -110861.402 123102 -111506 124029.297 -111506 123994.075 -111567.007 123960 -111694.174 123960 -111825.826 123994.075 -111952.993 124029.297 -112014 123102 -112014 123102 -112658.597 123108.505 -112719.093 123159.555 -112855.964 123159.555 -112855.965 123247.095 -112972.904 123364.034 -113060.444 123500.906 -113111.494 123561.402 -113117.999 123561.415 -113118 124206 -113118 124206 -112190.702 124267.007 -112225.925 124394.174 -112260 124525.826 -112260 124652.993 -112225.925 124714 -112190.702 124714 -113118 125358.585 -113118 125358.597 -113117.999 125419.093 -113111.494 125555.964 -113060.444 125555.965 -113060.444 125672.904 -112972.904 125760.444 -112855.965 125760.444 -112855.964 125811.494 -112719.093 125817.999 -112658.597 125818 -112658.585 125818 -112014 124890.703 -112014 124925.925 -111952.993 124935.967 -111915.516 127037 -111915.516 127047.605 -112019.318 127047.606 -112019.321 127103.342 -112187.525 127196.365 -112338.339 127196.37 -112338.345 127321.654 -112463.629 127321.66 -112463.634 127472.474 -112556.657 127640.678 -112612.393 127640.681 -112612.394 127744.483 -112622.999 127744.483 -112623 128016 -112623 128524 -112623 128795.517 -112623 128795.516 -112622.999 128899.318 -112612.394 128899.321 -112612.393 129067.525 -112556.657 129218.339 -112463.634 129218.345 -112463.629 129343.629 -112338.345 129343.634 -112338.339 129436.657 -112187.525 129492.393 -112019.321 129492.394 -112019.318 129502.999 -111915.516 129503 -111915.516 129503 -111781.5 128524 -111781.5 128524 -112623 128016 -112623 128016 -111781.5 127037 -111781.5 127037 -111915.516 124935.967 -111915.516 124960 -111825.826 124960 -111694.174 124925.925 -111567.007 124890.703 -111506 125818 -111506 125818 -110861.414 125817.999 -110861.402 125811.494 -110800.906 125760.444 -110664.035 125760.444 -110664.034 125672.904 -110547.095 125555.966 -110459.556 125440.826 -110416.611 125383.991 -110374.064 125359.18 -110307.543 125374.272 -110238.169 125392.154 -110213.222 125535.722 -110057.268 125609.445 -109944.427 125631.555 -109910.585 125685.558 -109864.496 125737.038 -109853.5 126925.997 -109853.5 126994.118 -109873.502 127040.611 -109927.158 127045.601 -109939.867 127102.883 -110112.734 127195.97 -110263.652 127195.975 -110263.658 127321.345 -110389.028 127324.45 -110391.483 127326.027 -110393.71 127326.537 -110394.22 127326.449 -110394.307 127365.481 -110449.422 127368.673 -110520.347 127333.014 -110581.739 127324.454 -110589.157 127321.654 -110591.37 127196.37 -110716.654 127196.365 -110716.66 127103.342 -110867.474 127047.606 -111035.678 127047.605 -111035.681 127037 -111139.483 127037 -111273.5 129503 -111273.5 129503 -111139.483 129492.394 -111035.681 129492.393 -111035.678 129436.657 -110867.474 129343.634 -110716.66 129343.629 -110716.654 129218.344 -110591.369 129215.551 -110589.161 129214.131 -110587.156 129213.15 -110586.175 129213.317 -110586.007 129174.519 -110531.222 129171.325 -110460.298 129206.983 -110398.905 129215.554 -110391.478 129218.639 -110389.037 129218.652 -110389.03 129344.03 -110263.652 129437.115 -110112.738 129492.887 -109944.426 129503.5 -109840.545 129503.499 -109064.456 129492.887 -108960.574 129437.115 -108792.262 129344.03 -108641.348 129344.029 -108641.347 129344.024 -108641.341 129218.658 -108515.975 129218.652 -108515.97 129067.738 -108422.885 128946.553 -108382.729 128899.427 -108367.113 128899.42 -108367.112 128795.553 -108356.5 127744.455 -108356.5 127640.574 -108367.112 127472.261 -108422.885 127321.347 -108515.97 127307.903 -108529.415 127287.722 -108549.595 127225.413 -108583.62 127198.628 -108586.5 125737.038 -108586.5 125668.917 -108566.498 125631.555 -108529.415 125535.724 -108382.734 125535.72 -108382.729 125383.237 -108217.091 125301.382 -108153.381 125205.576 -108078.811 125007.574 -107971.658 125007.572 -107971.657 125007.571 -107971.656 124794.639 -107898.557 124794.63 -107898.555 124738.567 -107889.2 124572.569 -107861.5 124347.431 -107861.5 124199.211 -107886.233 124125.369 -107898.555 124125.36 -107898.557 123912.428 -107971.656 123912.426 -107971.658 123714.432 -108078.807 123714.426 -108078.81 123714.424 -108078.811 123536.762 -108217.091 123384.279 -108382.729 123384.275 -108382.734 123261.141 -108571.206 123170.703 -108777.386 123170.702 -108777.387 123115.437 -108995.624 123096.844 -109220 120743.156 -109220 120724.564 -108995.632 120673.064 -108792.262 120669.297 -108777.387 120669.296 -108777.386 120669.296 -108777.384 120578.86 -108571.209 120542.771 -108515.97 120455.724 -108382.734 120455.72 -108382.729 120303.237 -108217.091 120221.382 -108153.381 120125.576 -108078.811 120092.319 -108060.813 120041.929 -108010.802 120026.576 -107941.485 120051.136 -107874.872 120092.32 -107839.186 120125.576 -107821.189 120303.24 -107682.906 120455.722 -107517.268 120578.86 -107328.791 120669.296 -107122.616 120724.564 -106904.368 120743.156 -106680 120724.564 -106455.632 120723.795 -106452.594 120697.206 -106347.597 127825.5 -106347.597 127832.005 -106408.093 127883.055 -106544.964 127883.055 -106544.965 127970.595 -106661.904 128087.534 -106749.444 128224.406 -106800.494 128284.902 -106806.999 128284.915 -106807 128651 -106807 128651 -106299 127825.5 -106299 127825.5 -106347.597 120697.206 -106347.597 120669.297 -106237.387 120669.296 -106237.386 120669.296 -106237.384 120578.86 -106031.209 120504.244 -105917 120455.724 -105842.734 120455.72 -105842.729 120303.237 -105677.091 120221.382 -105613.381 120125.576 -105538.811 120123.153 -105537.5 120092.32 -105520.814 120041.929 -105470.802 120026.576 -105401.485 120051.136 -105334.872 120092.32 -105299.186 120125.576 -105281.189 120303.24 -105142.906 120455.722 -104977.268 120551.555 -104830.585 120605.558 -104784.496 120657.038 -104773.5 127058.605 -104773.5 127126.726 -104793.502 127147.7 -104810.404 127604.367 -105267.072 127708.125 -105336.401 127789.647 -105370.168 127789.648 -105370.169 127814.723 -105380.555 127870.004 -105425.103 127892.426 -105492.466 127884.562 -105540.996 127832.005 -105681.906 127825.5 -105742.402 127825.5 -105791 128779 -105791 128847.121 -105811.002 128893.614 -105864.658 128905 -105917 128905 -106045 129033 -106045 129101.121 -106065.002 129147.614 -106118.658 129159 -106171 129159 -106807 129525.085 -106807 129525.097 -106806.999 129585.593 -106800.494 129722.464 -106749.444 129722.465 -106749.444 129839.404 -106661.904 129926.944 -106544.965 129930.944 -106534.241 129973.49 -106477.405 130040.01 -106452.594 130109.384 -106467.685 130159.587 -106517.887 130175 -106578.273 130175 -113539 130154.998 -113607.121 130101.342 -113653.614 130049 -113665 117601 -113665 117532.879 -113644.998 117486.386 -113591.342 117475 -113539 117475 -97281 117495.002 -97212.879 117548.658 -97166.386 117601 -97155 130049 -97155 130117.121 -97175.002"/></g><g id="hc80QB4-5BR5_top_soldermask"><use xlink:href="#XaXXdCsu9rW__pad-10" x="128905" y="-102235"/><use xlink:href="#XaXXdCsu9rW__pad-10" x="128905" y="-103505"/><use xlink:href="#XaXXdCsu9rW__pad-10" x="128905" y="-104775"/><use xlink:href="#XaXXdCsu9rW__pad-10" x="128905" y="-106045"/><use xlink:href="#XaXXdCsu9rW__pad-10" x="135255" y="-106045"/><use xlink:href="#XaXXdCsu9rW__pad-10" x="135255" y="-104775"/><use xlink:href="#XaXXdCsu9rW__pad-10" x="135255" y="-103505"/><use xlink:href="#XaXXdCsu9rW__pad-10" x="135255" y="-102235"/><use xlink:href="#XaXXdCsu9rW__pad-11" x="128270" y="-109452.5"/><use xlink:href="#XaXXdCsu9rW__pad-11" x="128270" y="-111527.5"/><use xlink:href="#XaXXdCsu9rW__pad-11" x="135890" y="-109452.5"/><use xlink:href="#XaXXdCsu9rW__pad-11" x="135890" y="-111527.5"/><use xlink:href="#XaXXdCsu9rW__pad-12" x="125730" y="-101355"/><use xlink:href="#XaXXdCsu9rW__pad-12" x="125730" y="-99305"/><use xlink:href="#XaXXdCsu9rW__pad-12" x="138430" y="-101355"/><use xlink:href="#XaXXdCsu9rW__pad-12" x="138430" y="-99305"/><use xlink:href="#XaXXdCsu9rW__pad-13" x="119380" y="-111760"/><use xlink:href="#XaXXdCsu9rW__pad-14" x="119380" y="-109220"/><use xlink:href="#XaXXdCsu9rW__pad-14" x="119380" y="-106680"/><use xlink:href="#XaXXdCsu9rW__pad-14" x="119380" y="-104140"/><use xlink:href="#XaXXdCsu9rW__pad-14" x="119380" y="-101600"/><use xlink:href="#XaXXdCsu9rW__pad-14" x="119380" y="-99060"/><use xlink:href="#XaXXdCsu9rW__pad-13" x="124460" y="-111760"/><use xlink:href="#XaXXdCsu9rW__pad-14" x="124460" y="-109220"/><use xlink:href="#XaXXdCsu9rW__pad-13" x="144780" y="-111760"/><use xlink:href="#XaXXdCsu9rW__pad-14" x="144780" y="-109220"/><use xlink:href="#XaXXdCsu9rW__pad-14" x="144780" y="-106680"/><use xlink:href="#XaXXdCsu9rW__pad-14" x="144780" y="-104140"/><use xlink:href="#XaXXdCsu9rW__pad-14" x="144780" y="-101600"/><use xlink:href="#XaXXdCsu9rW__pad-14" x="144780" y="-99060"/><use xlink:href="#XaXXdCsu9rW__pad-13" x="139700" y="-111760"/><use xlink:href="#XaXXdCsu9rW__pad-14" x="139700" y="-109220"/><use xlink:href="#XaXXdCsu9rW__pad-15" x="123190" y="-101330"/><use xlink:href="#XaXXdCsu9rW__pad-15" x="123190" y="-99330"/><use xlink:href="#XaXXdCsu9rW__pad-15" x="140970" y="-101330"/><use xlink:href="#XaXXdCsu9rW__pad-15" x="140970" y="-99330"/></g><g id="hc80QB4-5BR5_top_solderpaste"><use xlink:href="#ZyNaO18bgPYI_pad-10" x="128905" y="-102235"/><use xlink:href="#ZyNaO18bgPYI_pad-10" x="128905" y="-103505"/><use xlink:href="#ZyNaO18bgPYI_pad-10" x="128905" y="-104775"/><use xlink:href="#ZyNaO18bgPYI_pad-10" x="128905" y="-106045"/><use xlink:href="#ZyNaO18bgPYI_pad-10" x="135255" y="-106045"/><use xlink:href="#ZyNaO18bgPYI_pad-10" x="135255" y="-104775"/><use xlink:href="#ZyNaO18bgPYI_pad-10" x="135255" y="-103505"/><use xlink:href="#ZyNaO18bgPYI_pad-10" x="135255" y="-102235"/><use xlink:href="#ZyNaO18bgPYI_pad-11" x="128270" y="-109452.5"/><use xlink:href="#ZyNaO18bgPYI_pad-11" x="128270" y="-111527.5"/><use xlink:href="#ZyNaO18bgPYI_pad-11" x="135890" y="-109452.5"/><use xlink:href="#ZyNaO18bgPYI_pad-11" x="135890" y="-111527.5"/><use xlink:href="#ZyNaO18bgPYI_pad-12" x="125730" y="-101355"/><use xlink:href="#ZyNaO18bgPYI_pad-12" x="125730" y="-99305"/><use xlink:href="#ZyNaO18bgPYI_pad-12" x="138430" y="-101355"/><use xlink:href="#ZyNaO18bgPYI_pad-12" x="138430" y="-99305"/><use xlink:href="#ZyNaO18bgPYI_pad-13" x="123190" y="-101330"/><use xlink:href="#ZyNaO18bgPYI_pad-13" x="123190" y="-99330"/><use xlink:href="#ZyNaO18bgPYI_pad-13" x="140970" y="-101330"/><use xlink:href="#ZyNaO18bgPYI_pad-13" x="140970" y="-99330"/></g><g id="hc80QB4-5BR5_top_silkscreen"><path d="M 131318.095 -100292.819 131318.095 -101102.342 131365.714 -101197.58 131413.333 -101245.2 131508.571 -101292.819 131699.047 -101292.819 131794.285 -101245.2 131841.904 -101197.58 131889.523 -101102.342 131889.523 -100292.819 M 132889.523 -101292.819 132318.095 -101292.819 M 132603.809 -101292.819 132603.809 -100292.819 132508.571 -100435.676 132413.333 -100530.914 132318.095 -100578.533 M 128103.333 -108309.58 128055.714 -108357.2 127912.857 -108404.819 127817.619 -108404.819 127674.762 -108357.2 127579.524 -108261.961 127531.905 -108166.723 127484.286 -107976.247 127484.286 -107833.39 127531.905 -107642.914 127579.524 -107547.676 127674.762 -107452.438 127817.619 -107404.819 127912.857 -107404.819 128055.714 -107452.438 128103.333 -107500.057 M 129055.714 -108404.819 128484.286 -108404.819 M 128770 -108404.819 128770 -107404.819 128674.762 -107547.676 128579.524 -107642.914 128484.286 -107690.533 M 135723.333 -108309.58 135675.714 -108357.2 135532.857 -108404.819 135437.619 -108404.819 135294.762 -108357.2 135199.524 -108261.961 135151.905 -108166.723 135104.286 -107976.247 135104.286 -107833.39 135151.905 -107642.914 135199.524 -107547.676 135294.762 -107452.438 135437.619 -107404.819 135532.857 -107404.819 135675.714 -107452.438 135723.333 -107500.057 M 136104.286 -107500.057 136151.905 -107452.438 136247.143 -107404.819 136485.238 -107404.819 136580.476 -107452.438 136628.095 -107500.057 136675.714 -107595.295 136675.714 -107690.533 136628.095 -107833.39 136056.667 -108404.819 136675.714 -108404.819 M 126184.819 -103989.094 125184.819 -103989.094 125184.819 -103750.999 125232.438 -103608.142 125327.676 -103512.904 125422.914 -103465.285 125613.39 -103417.666 125756.247 -103417.666 125946.723 -103465.285 126041.961 -103512.904 126137.2 -103608.142 126184.819 -103750.999 126184.819 -103989.094 M 126184.819 -102465.285 126184.819 -103036.713 M 126184.819 -102750.999 125184.819 -102750.999 125327.676 -102846.237 125422.914 -102941.475 125470.533 -103036.713 M 138884.819 -103989.094 137884.819 -103989.094 137884.819 -103750.999 137932.438 -103608.142 138027.676 -103512.904 138122.914 -103465.285 138313.39 -103417.666 138456.247 -103417.666 138646.723 -103465.285 138741.961 -103512.904 138837.2 -103608.142 138884.819 -103750.999 138884.819 -103989.094 M 137980.057 -103036.713 137932.438 -102989.094 137884.819 -102893.856 137884.819 -102655.761 137932.438 -102560.523 137980.057 -102512.904 138075.295 -102465.285 138170.533 -102465.285 138313.39 -102512.904 138884.819 -103084.332 138884.819 -102465.285 M 121374.819 -105743.333 122089.104 -105743.333 122231.961 -105790.952 122327.2 -105886.19 122374.819 -106029.047 122374.819 -106124.285 M 122374.819 -104743.333 122374.819 -105314.761 M 122374.819 -105029.047 121374.819 -105029.047 121517.676 -105124.285 121612.914 -105219.523 121660.533 -105314.761 M 124126.666 -106261.819 124126.666 -106976.104 124079.047 -107118.961 123983.809 -107214.2 123840.952 -107261.819 123745.714 -107261.819 M 124555.238 -106357.057 124602.857 -106309.438 124698.095 -106261.819 124936.19 -106261.819 125031.428 -106309.438 125079.047 -106357.057 125126.666 -106452.295 125126.666 -106547.533 125079.047 -106690.39 124507.619 -107261.819 125126.666 -107261.819 M 141694.819 -105743.333 142409.104 -105743.333 142551.961 -105790.952 142647.2 -105886.19 142694.819 -106029.047 142694.819 -106124.285 M 141694.819 -105362.38 141694.819 -104743.333 142075.771 -105076.666 142075.771 -104933.809 142123.39 -104838.571 142171.009 -104790.952 142266.247 -104743.333 142504.342 -104743.333 142599.58 -104790.952 142647.2 -104838.571 142694.819 -104933.809 142694.819 -105219.523 142647.2 -105314.761 142599.58 -105362.38 M 139493.666 -106261.819 139493.666 -106976.104 139446.047 -107118.961 139350.809 -107214.2 139207.952 -107261.819 139112.714 -107261.819 M 140398.428 -106595.152 140398.428 -107261.819 M 140160.333 -106214.2 139922.238 -106928.485 140541.285 -106928.485 M 123644.819 -103417.666 123168.628 -103750.999 M 123644.819 -103989.094 122644.819 -103989.094 122644.819 -103608.142 122692.438 -103512.904 122740.057 -103465.285 122835.295 -103417.666 122978.152 -103417.666 123073.39 -103465.285 123121.009 -103512.904 123168.628 -103608.142 123168.628 -103989.094 M 123644.819 -102465.285 123644.819 -103036.713 M 123644.819 -102750.999 122644.819 -102750.999 122787.676 -102846.237 122882.914 -102941.475 122930.533 -103036.713 M 141424.819 -103417.666 140948.628 -103750.999 M 141424.819 -103989.094 140424.819 -103989.094 140424.819 -103608.142 140472.438 -103512.904 140520.057 -103465.285 140615.295 -103417.666 140758.152 -103417.666 140853.39 -103465.285 140901.009 -103512.904 140948.628 -103608.142 140948.628 -103989.094 M 140520.057 -103036.713 140472.438 -102989.094 140424.819 -102893.856 140424.819 -102655.761 140472.438 -102560.523 140520.057 -102512.904 140615.295 -102465.285 140710.533 -102465.285 140853.39 -102512.904 141424.819 -103084.332 141424.819 -102465.285 M 129794 -101600 134366 -101600 M 129794 -106680 129794 -101600 M 131572 -102108 131572 -101600 M 132842 -101600 132842 -102108 131572 -102108 M 134366 -101600 134366 -106680 129794 -106680" fill="none" stroke-width="150"/><path d="M 127535 -110228.748 127535 -110751.252 M 129005 -110228.748 129005 -110751.252 M 135155 -110228.748 135155 -110751.252 M 136625 -110228.748 136625 -110751.252 M 124770 -99330 124770 -102190 126690 -102190 126690 -99330 M 137470 -99330 137470 -102190 139390 -102190 139390 -99330 M 118050 -110490 118050 -97730 M 120710 -97730 118050 -97730 M 120710 -110490 118050 -110490 M 120710 -110490 120710 -97730 M 120710 -111760 120710 -113090 119380 -113090 M 123130 -110490 123130 -107890 M 125790 -107890 123130 -107890 M 125790 -110490 123130 -110490 M 125790 -110490 125790 -107890 M 125790 -111760 125790 -113090 124460 -113090 M 143450 -110490 143450 -97730 M 146110 -97730 143450 -97730 M 146110 -110490 143450 -110490 M 146110 -110490 146110 -97730 M 146110 -111760 146110 -113090 144780 -113090 M 138370 -110490 138370 -107890 M 141030 -107890 138370 -107890 M 141030 -110490 138370 -110490 M 141030 -110490 141030 -107890 M 141030 -111760 141030 -113090 139700 -113090 M 122455 -100557.064 122455 -100102.936 M 123925 -100557.064 123925 -100102.936 M 140235 -100557.064 140235 -100102.936 M 141705 -100557.064 141705 -100102.936" fill="none" stroke-width="120"/></g><g id="hc80QB4-5BR5_top_drill1"><use xlink:href="#T7-ZtegQLxxy_pad-1" x="127508" y="-102235"/><use xlink:href="#T7-ZtegQLxxy_pad-1" x="136652" y="-102235"/><use xlink:href="#T7-ZtegQLxxy_pad-2" x="119380" y="-99060"/><use xlink:href="#T7-ZtegQLxxy_pad-2" x="119380" y="-101600"/><use xlink:href="#T7-ZtegQLxxy_pad-2" x="119380" y="-104140"/><use xlink:href="#T7-ZtegQLxxy_pad-2" x="119380" y="-106680"/><use xlink:href="#T7-ZtegQLxxy_pad-2" x="119380" y="-109220"/><use xlink:href="#T7-ZtegQLxxy_pad-2" x="119380" y="-111760"/><use xlink:href="#T7-ZtegQLxxy_pad-2" x="124460" y="-109220"/><use xlink:href="#T7-ZtegQLxxy_pad-2" x="124460" y="-111760"/><use xlink:href="#T7-ZtegQLxxy_pad-2" x="139700" y="-109220"/><use xlink:href="#T7-ZtegQLxxy_pad-2" x="139700" y="-111760"/><use xlink:href="#T7-ZtegQLxxy_pad-2" x="144780" y="-99060"/><use xlink:href="#T7-ZtegQLxxy_pad-2" x="144780" y="-101600"/><use xlink:href="#T7-ZtegQLxxy_pad-2" x="144780" y="-104140"/><use xlink:href="#T7-ZtegQLxxy_pad-2" x="144780" y="-106680"/><use xlink:href="#T7-ZtegQLxxy_pad-2" x="144780" y="-109220"/><use xlink:href="#T7-ZtegQLxxy_pad-2" x="144780" y="-111760"/></g><clipPath id="hc80QB4-5BR5_top_outline"><path d="M 118110 -96520 147320 -96520 147320 -114300 116840 -114300 116840 -96520 118110 -96520" fill="none" stroke-width="150"/></clipPath><mask id="hc80QB4-5BR5_top_mech-mask"><g fill="#000" stroke="#000"><rect x="116840" y="-114300" width="30480" height="17780" fill="#fff"/><use xlink:href="#hc80QB4-5BR5_top_drill1"/></g></mask><mask id="hc80QB4-5BR5_top_cf-mask"><g fill="#fff" stroke="#fff"><use xlink:href="#hc80QB4-5BR5_top_soldermask"/></g></mask><mask id="hc80QB4-5BR5_top_sm-mask"><g fill="#000" stroke="#000"><rect x="116840" y="-114300" width="30480" height="17780" fill="#fff"/><use xlink:href="#hc80QB4-5BR5_top_soldermask"/></g></mask></defs><g transform="translate(0,-210820) scale(1,-1)"><g mask="url(#hc80QB4-5BR5_top_mech-mask)" clip-path="url(#hc80QB4-5BR5_top_outline)"><rect x="116840" y="-114300" width="30480" height="17780" fill="currentColor" class="hc80QB4-5BR5_fr4"/><use xlink:href="#hc80QB4-5BR5_top_copper" fill="currentColor" stroke="currentColor" class="hc80QB4-5BR5_cu"/><use xlink:href="#hc80QB4-5BR5_top_copper" fill="currentColor" stroke="currentColor" class="hc80QB4-5BR5_cf" mask="url(#hc80QB4-5BR5_top_cf-mask)"/><g mask="url(#hc80QB4-5BR5_top_sm-mask)"><rect x="116840" y="-114300" width="30480" height="17780" fill="currentColor" class="hc80QB4-5BR5_sm"/><use xlink:href="#hc80QB4-5BR5_top_silkscreen" fill="currentColor" stroke="currentColor" class="hc80QB4-5BR5_ss"/></g><use xlink:href="#hc80QB4-5BR5_top_solderpaste" fill="currentColor" stroke="currentColor" class="hc80QB4-5BR5_sp"/></g></g></svg>