<svg version="1.1" xmlns="http://www.w3.org/2000/svg" xmlns:xlink="http://www.w3.org/1999/xlink" stroke-linecap="round" stroke-linejoin="round" stroke-width="0" fill-rule="evenodd" clip-rule="evenodd" id="meIVi-bIt301_top" viewBox="140970 -129540 42545 36830" width="42.545mm" height="36.83mm"><defs><style>.meIVi-bIt301_fr4 {color: #666666;}
.meIVi-bIt301_cu {color: #cccccc;}
.meIVi-bIt301_cf {color: #cc9933;}
.meIVi-bIt301_sm {color: #004200; opacity: 0.7490196078431373;}
.meIVi-bIt301_ss {color: #ffffff;}
.meIVi-bIt301_sp {color: #999999;}
.meIVi-bIt301_out {color: #000000;}</style><rect x="-800" y="-1100" width="1600" height="2200" id="WAYdPEuLqHx1_pad-10"/><g id="WAYdPEuLqHx1_pad-11"><polygon points="475,-337.5 475,337.5 -475,337.5 -475,-337.5"/><circle cx="475" cy="-337.5" r="250"/><circle cx="475" cy="337.5" r="250"/><circle cx="-475" cy="337.5" r="250"/><circle cx="-475" cy="-337.5" r="250"/><polygon points="725,-337.5 725,337.5 225,337.5 225,-337.5"/><polygon points="475,87.5 -475,87.5 -475,587.5 475,587.5"/><polygon points="-225,337.5 -225,-337.5 -725,-337.5 -725,337.5"/><polygon points="-475,-587.5 475,-587.5 475,-87.5 -475,-87.5"/></g><g id="WAYdPEuLqHx1_pad-12"><polygon points="-325,-450 325,-450 325,450 -325,450"/><circle cx="-325" cy="-450" r="250"/><circle cx="325" cy="-450" r="250"/><circle cx="325" cy="450" r="250"/><circle cx="-325" cy="450" r="250"/><polygon points="-325,-700 325,-700 325,-200 -325,-200"/><polygon points="575,-450 575,450 75,450 75,-450"/><polygon points="325,200 -325,200 -325,700 325,700"/><polygon points="-75,450 -75,-450 -575,-450 -575,450"/></g><rect x="-850" y="-850" width="1700" height="1700" id="WAYdPEuLqHx1_pad-13"/><rect x="-850" y="-850" width="1700" height="1700" rx="850" ry="850" id="WAYdPEuLqHx1_pad-14"/><rect x="-500" y="-500" width="1000" height="1000" id="WAYdPEuLqHx1_pad-15"/><rect x="-500" y="-500" width="1000" height="1000" rx="500" ry="500" id="WAYdPEuLqHx1_pad-16"/><g id="WAYdPEuLqHx1_pad-17"><polygon points="-350,-450 350,-450 350,450 -350,450"/><circle cx="-350" cy="-450" r="250"/><circle cx="350" cy="-450" r="250"/><circle cx="350" cy="450" r="250"/><circle cx="-350" cy="450" r="250"/><polygon points="-350,-700 350,-700 350,-200 -350,-200"/><polygon points="600,-450 600,450 100,450 100,-450"/><polygon points="350,200 -350,200 -350,700 350,700"/><polygon points="-100,450 -100,-450 -600,-450 -600,450"/></g><circle cx="0" cy="0" r="1000" id="WAYdPEuLqHx1_pad-18"/><rect x="-1000" y="-500" width="2000" height="1000" id="WAYdPEuLqHx1_pad-19"/><circle cx="0" cy="0" r="400" id="WAYdPEuLqHx1_pad-20"/><rect x="-800" y="-1100" width="1600" height="2200" id="Ox6orZEd78_D_pad-10"/><g id="Ox6orZEd78_D_pad-11"><polygon points="475,-337.5 475,337.5 -475,337.5 -475,-337.5"/><circle cx="475" cy="-337.5" r="250"/><circle cx="475" cy="337.5" r="250"/><circle cx="-475" cy="337.5" r="250"/><circle cx="-475" cy="-337.5" r="250"/><polygon points="725,-337.5 725,337.5 225,337.5 225,-337.5"/><polygon points="475,87.5 -475,87.5 -475,587.5 475,587.5"/><polygon points="-225,337.5 -225,-337.5 -725,-337.5 -725,337.5"/><polygon points="-475,-587.5 475,-587.5 475,-87.5 -475,-87.5"/></g><g id="Ox6orZEd78_D_pad-12"><polygon points="-325,-450 325,-450 325,450 -325,450"/><circle cx="-325" cy="-450" r="250"/><circle cx="325" cy="-450" r="250"/><circle cx="325" cy="450" r="250"/><circle cx="-325" cy="450" r="250"/><polygon points="-325,-700 325,-700 325,-200 -325,-200"/><polygon points="575,-450 575,450 75,450 75,-450"/><polygon points="325,200 -325,200 -325,700 325,700"/><polygon points="-75,450 -75,-450 -575,-450 -575,450"/></g><rect x="-850" y="-850" width="1700" height="1700" id="Ox6orZEd78_D_pad-13"/><rect x="-850" y="-850" width="1700" height="1700" rx="850" ry="850" id="Ox6orZEd78_D_pad-14"/><rect x="-500" y="-500" width="1000" height="1000" id="Ox6orZEd78_D_pad-15"/><rect x="-500" y="-500" width="1000" height="1000" rx="500" ry="500" id="Ox6orZEd78_D_pad-16"/><g id="Ox6orZEd78_D_pad-17"><polygon points="-350,-450 350,-450 350,450 -350,450"/><circle cx="-350" cy="-450" r="250"/><circle cx="350" cy="-450" r="250"/><circle cx="350" cy="450" r="250"/><circle cx="-350" cy="450" r="250"/><polygon points="-350,-700 350,-700 350,-200 -350,-200"/><polygon points="600,-450 600,450 100,450 100,-450"/><polygon points="350,200 -350,200 -350,700 350,700"/><polygon points="-100,450 -100,-450 -600,-450 -600,450"/></g><circle cx="0" cy="0" r="1000" id="Ox6orZEd78_D_pad-18"/><rect x="-1000" y="-500" width="2000" height="1000" id="Ox6orZEd78_D_pad-19"/><rect x="-800" y="-1100" width="1600" height="2200" id="fqIU4iZFmeS-_pad-10"/><g id="fqIU4iZFmeS-_pad-11"><polygon points="475,-337.5 475,337.5 -475,337.5 -475,-337.5"/><circle cx="475" cy="-337.5" r="250"/><circle cx="475" cy="337.5" r="250"/><circle cx="-475" cy="337.5" r="250"/><circle cx="-475" cy="-337.5" r="250"/><polygon points="725,-337.5 725,337.5 225,337.5 225,-337.5"/><polygon points="475,87.5 -475,87.5 -475,587.5 475,587.5"/><polygon points="-225,337.5 -225,-337.5 -725,-337.5 -725,337.5"/><polygon points="-475,-587.5 475,-587.5 475,-87.5 -475,-87.5"/></g><g id="fqIU4iZFmeS-_pad-12"><polygon points="-325,-450 325,-450 325,450 -325,450"/><circle cx="-325" cy="-450" r="250"/><circle cx="325" cy="-450" r="250"/><circle cx="325" cy="450" r="250"/><circle cx="-325" cy="450" r="250"/><polygon points="-325,-700 325,-700 325,-200 -325,-200"/><polygon points="575,-450 575,450 75,450 75,-450"/><polygon points="325,200 -325,200 -325,700 325,700"/><polygon points="-75,450 -75,-450 -575,-450 -575,450"/></g><g id="fqIU4iZFmeS-_pad-13"><polygon points="-350,-450 350,-450 350,450 -350,450"/><circle cx="-350" cy="-450" r="250"/><circle cx="350" cy="-450" r="250"/><circle cx="350" cy="450" r="250"/><circle cx="-350" cy="450" r="250"/><polygon points="-350,-700 350,-700 350,-200 -350,-200"/><polygon points="600,-450 600,450 100,450 100,-450"/><polygon points="350,200 -350,200 -350,700 350,700"/><polygon points="-100,450 -100,-450 -600,-450 -600,450"/></g><rect x="-1000" y="-500" width="2000" height="1000" id="fqIU4iZFmeS-_pad-14"/><circle cx="0" cy="0" r="200" id="WFtQSCbaLy9a_pad-1"/><circle cx="0" cy="0" r="325" id="WFtQSCbaLy9a_pad-2"/><circle cx="0" cy="0" r="500" id="WFtQSCbaLy9a_pad-3"/><circle cx="0" cy="0" r="550" id="WFtQSCbaLy9a_pad-4"/><g id="meIVi-bIt301_top_copper"><use xlink:href="#WAYdPEuLqHx1_pad-10" x="148590" y="-107720"/><use xlink:href="#WAYdPEuLqHx1_pad-10" x="148590" y="-110720"/><use xlink:href="#WAYdPEuLqHx1_pad-11" x="148590" y="-116607.5"/><use xlink:href="#WAYdPEuLqHx1_pad-11" x="148590" y="-114532.5"/><use xlink:href="#WAYdPEuLqHx1_pad-12" x="149390" y="-127000"/><use xlink:href="#WAYdPEuLqHx1_pad-12" x="151440" y="-127000"/><use xlink:href="#WAYdPEuLqHx1_pad-13" x="143510" y="-105410"/><use xlink:href="#WAYdPEuLqHx1_pad-14" x="143510" y="-107950"/><use xlink:href="#WAYdPEuLqHx1_pad-14" x="143510" y="-110490"/><use xlink:href="#WAYdPEuLqHx1_pad-14" x="143510" y="-113030"/><use xlink:href="#WAYdPEuLqHx1_pad-14" x="143510" y="-115570"/><use xlink:href="#WAYdPEuLqHx1_pad-14" x="143510" y="-118110"/><use xlink:href="#WAYdPEuLqHx1_pad-13" x="180975" y="-104140"/><use xlink:href="#WAYdPEuLqHx1_pad-14" x="180975" y="-106680"/><use xlink:href="#WAYdPEuLqHx1_pad-14" x="180975" y="-109220"/><use xlink:href="#WAYdPEuLqHx1_pad-14" x="180975" y="-111760"/><use xlink:href="#WAYdPEuLqHx1_pad-14" x="180975" y="-114300"/><use xlink:href="#WAYdPEuLqHx1_pad-14" x="180975" y="-116840"/><use xlink:href="#WAYdPEuLqHx1_pad-14" x="180975" y="-119380"/><use xlink:href="#WAYdPEuLqHx1_pad-14" x="180975" y="-121920"/><use xlink:href="#WAYdPEuLqHx1_pad-14" x="180975" y="-124460"/><use xlink:href="#WAYdPEuLqHx1_pad-14" x="180975" y="-127000"/><use xlink:href="#WAYdPEuLqHx1_pad-15" x="168275" y="-126365"/><use xlink:href="#WAYdPEuLqHx1_pad-16" x="168275" y="-125095"/><use xlink:href="#WAYdPEuLqHx1_pad-16" x="169545" y="-126365"/><use xlink:href="#WAYdPEuLqHx1_pad-16" x="169545" y="-125095"/><use xlink:href="#WAYdPEuLqHx1_pad-16" x="170815" y="-126365"/><use xlink:href="#WAYdPEuLqHx1_pad-16" x="170815" y="-125095"/><use xlink:href="#WAYdPEuLqHx1_pad-16" x="172085" y="-126365"/><use xlink:href="#WAYdPEuLqHx1_pad-16" x="172085" y="-125095"/><use xlink:href="#WAYdPEuLqHx1_pad-16" x="173355" y="-126365"/><use xlink:href="#WAYdPEuLqHx1_pad-16" x="173355" y="-125095"/><use xlink:href="#WAYdPEuLqHx1_pad-17" x="149415" y="-124460"/><use xlink:href="#WAYdPEuLqHx1_pad-17" x="151415" y="-124460"/><use xlink:href="#WAYdPEuLqHx1_pad-18" x="174625" y="-94615"/><use xlink:href="#WAYdPEuLqHx1_pad-18" x="181125" y="-94615"/><use xlink:href="#WAYdPEuLqHx1_pad-18" x="174625" y="-99115"/><use xlink:href="#WAYdPEuLqHx1_pad-18" x="181125" y="-99115"/><use xlink:href="#WAYdPEuLqHx1_pad-13" x="158242" y="-127000"/><use xlink:href="#WAYdPEuLqHx1_pad-14" x="158242" y="-124460"/><use xlink:href="#WAYdPEuLqHx1_pad-14" x="160782" y="-127000"/><use xlink:href="#WAYdPEuLqHx1_pad-14" x="160782" y="-124460"/><use xlink:href="#WAYdPEuLqHx1_pad-14" x="163322" y="-127000"/><use xlink:href="#WAYdPEuLqHx1_pad-14" x="163322" y="-124460"/><use xlink:href="#WAYdPEuLqHx1_pad-19" x="153670" y="-106391"/><use xlink:href="#WAYdPEuLqHx1_pad-19" x="153670" y="-108341"/><use xlink:href="#WAYdPEuLqHx1_pad-19" x="153670" y="-110341"/><use xlink:href="#WAYdPEuLqHx1_pad-19" x="153670" y="-112395"/><use xlink:href="#WAYdPEuLqHx1_pad-19" x="153670" y="-114391"/><use xlink:href="#WAYdPEuLqHx1_pad-19" x="153670" y="-116391"/><use xlink:href="#WAYdPEuLqHx1_pad-19" x="170670" y="-119291"/><use xlink:href="#WAYdPEuLqHx1_pad-19" x="170670" y="-117541"/><use xlink:href="#WAYdPEuLqHx1_pad-19" x="170670" y="-115791"/><use xlink:href="#WAYdPEuLqHx1_pad-19" x="170670" y="-114041"/><use xlink:href="#WAYdPEuLqHx1_pad-19" x="170670" y="-112291"/><use xlink:href="#WAYdPEuLqHx1_pad-19" x="170670" y="-110491"/><use xlink:href="#WAYdPEuLqHx1_pad-19" x="170670" y="-108741"/><use xlink:href="#WAYdPEuLqHx1_pad-19" x="170670" y="-106991"/><use xlink:href="#WAYdPEuLqHx1_pad-19" x="170670" y="-105241"/><use xlink:href="#WAYdPEuLqHx1_pad-19" x="170670" y="-103491"/><use xlink:href="#WAYdPEuLqHx1_pad-13" x="143535" y="-124480"/><use xlink:href="#WAYdPEuLqHx1_pad-14" x="143535" y="-127020"/><use xlink:href="#WAYdPEuLqHx1_pad-20" x="165354" y="-126898.4"/><path d="M 161125.3 -111071.5 173081.8 -99115 M 174196.6 -125523.4 175673.2 -127000 M 151536.4 -111353.6 150902.8 -110720 M 149611.3 -114391 153670 -114391 M 174196.6 -125523.4 173355 -126365 M 170670 -119291 171995.3 -119291 M 164172 -127850 168568 -127850 M 156260.8 -111353.6 151536.4 -111353.6 M 161125.3 -111071.5 169344.7 -119291 M 170815 -126365 169545 -126365 M 154239.4 -114391 156260.8 -112369.6 M 149065 -124460 143510 -124460 M 149540.3 -114320 149611.3 -114391 M 143510 -115570 144685.3 -115570 M 160843.2 -111353.6 156260.8 -111353.6 M 169545 -126873 169545 -126365 M 171995.3 -119291 174196.6 -121492.3 174196.6 -125523.4 M 145935.3 -114320 148590 -114320 M 156260.8 -111353.6 156260.8 -112369.6 M 181125 -99115 174625 -99115 M 165252.4 -127000 165354 -126898.4 M 168568 -127850 169545 -126873 M 150902.8 -110720 148590 -110720 M 175673.2 -127000 180975 -127000 M 161125.3 -111071.5 160843.2 -111353.6 M 170007.4 -119291 169344.7 -119291 M 173081.8 -99115 174625 -99115 M 153670 -114391 154239.4 -114391 M 148590 -114320 149540.3 -114320 M 163322 -127000 164172 -127850 M 144685.3 -115570 145935.3 -114320 M 163322 -127000 165252.4 -127000 M 153670 -116391 152344.7 -116391 M 143510 -118110 142189.2 -116789.2 142189.2 -110388.4 M 144844.4 -109220 143118.299 -109220 M 158115 -127000 156939.7 -127000 M 146349.7 -118110 144097.7 -118110 M 152344.7 -116391 151915.7 -116820 M 150271.6 -128168.4 144683.4 -128168.4 M 142189.2 -110149.099 142189.2 -110388.4 M 146344.4 -107720 144844.4 -109220 M 144683.4 -128168.4 143535 -127020 M 148590 -116820 147639.7 -116820 M 148590 -107720 146344.4 -107720 M 151915.7 -116820 148590 -116820 M 158242 -127000 151440 -127000 M 143510 -118110 142335 -116935 M 143118.299 -109220 142189.2 -110149.099 M 147639.7 -116820 146349.7 -118110 M 151440 -127000 150271.6 -128168.4 M 180975 -111760 179799.7 -111760 M 176780.7 -108741 179799.7 -111760 M 170670 -108741 176780.7 -108741 M 170670 -110491 175990.7 -110491 M 180975 -114300 179799.7 -114300 M 175990.7 -110491 179799.7 -114300 M 169545 -125095 168686.1 -124236.1 M 168438.4 -123988.4 165774.8 -123988.4 M 162052 -125730 163931.6 -125730 M 164033.2 -125730 163931.6 -125730 M 160782 -124460 162052 -125730 M 165774.8 -123988.4 164033.2 -125730 M 169545 -125095 168438.4 -123988.4 M 170670 -106991 177570.7 -106991 M 164243.6 -123538.4 169258.4 -123538.4 M 177570.7 -106991 179799.7 -109220 M 169258.4 -123538.4 170815 -125095 M 180975 -109220 179799.7 -109220 M 163322 -124460 164243.6 -123538.4 M 159512 -125730 159512 -123799.6 M 180975 -104140 179799.7 -104140 M 170670 -103491 179150.7 -103491 M 159512 -123799.6 160223.2 -123088.4 M 160782 -127000 159512 -125730 M 171348.4 -123088.4 173355 -125095 M 181125 -94615 174625 -94615 M 179150.7 -103491 179799.7 -104140 M 160223.2 -123088.4 171348.4 -123088.4 M 149390 -126485 151415 -124460 M 151709.7 -113030 143510 -113030 M 152344.7 -112395 151709.7 -113030 M 153670 -112395 152344.7 -112395 M 144685.3 -107950 146340.7 -106294.6 M 150298.3 -106294.6 152344.7 -108341 M 153670 -108341 152344.7 -108341 M 143510 -107950 144685.3 -107950 M 146340.7 -106294.6 150298.3 -106294.6 M 145880.7 -109294.6 145880.7 -109287.7 145948.4 -109220 M 143510 -110490 144685.3 -110490 M 145948.4 -109220 151223.7 -109220 152344.7 -110341 M 144685.3 -110490 145880.7 -109294.6 M 152344.7 -110341 153670 -110341 M 151363.7 -105410 143510 -105410 M 152344.7 -106391 151363.7 -105410 M 153670 -106391 152344.7 -106391 M 180975 -121920 179799.7 -121920 M 173670.7 -115791 179799.7 -121920 M 170670 -115791 173670.7 -115791 M 180975 -119380 179799.7 -119380 M 174460.7 -114041 179799.7 -119380 M 170670 -114041 174460.7 -114041 M 178360.7 -105241 179799.7 -106680 M 170670 -105241 178360.7 -105241 M 180975 -106680 179799.7 -106680 M 170670 -112291 175250.7 -112291 179799.7 -116840 M 180975 -116840 179799.7 -116840 M 172880.7 -117541 179799.7 -124460 M 180975 -124460 179799.7 -124460 M 170670 -117541 172880.7 -117541" fill="none" stroke-width="250"/><path d="M 147224.121 -109873.502 147270.614 -109927.158 147282 -109979.5 147282 -110466 149898 -110466 149898 -109979.5 149918.002 -109911.379 149971.658 -109864.886 150024 -109853.5 150909.106 -109853.5 150977.227 -109873.502 150998.201 -109890.405 151852.629 -110744.833 151940.867 -110833.071 152044.625 -110902.4 152118.799 -110933.124 152174.079 -110977.671 152188.635 -111005.498 152219.111 -111087.204 152219.112 -111087.207 152306.737 -111204.259 152306.738 -111204.259 152306.739 -111204.261 152309.685 -111206.466 152390.724 -111267.132 152433.27 -111323.968 152438.334 -111394.784 152404.309 -111457.096 152390.724 -111468.868 152306.737 -111531.74 152219.11 -111648.795 152188.636 -111730.5 152146.089 -111787.336 152118.799 -111802.876 152044.623 -111833.6 151940.867 -111902.927 151484.201 -112359.595 151421.888 -112393.62 151395.105 -112396.5 149843.499 -112396.5 149775.378 -112376.498 149728.885 -112322.842 149718.781 -112252.568 149748.275 -112187.988 149752.477 -112183.474 149840.444 -112065.965 149840.444 -112065.964 149891.494 -111929.093 149897.999 -111868.597 149898 -111868.585 149898 -110974 147282 -110974 147282 -111868.597 147288.505 -111929.093 147339.555 -112065.964 147339.555 -112065.965 147432.496 -112190.118 147430.975 -112191.256 147459.622 -112243.717 147454.557 -112314.532 147412.01 -112371.368 147345.49 -112396.179 147336.501 -112396.5 144787.038 -112396.5 144718.917 -112376.498 144681.555 -112339.415 144585.724 -112192.734 144585.72 -112192.729 144433.237 -112027.091 144351.382 -111963.381 144255.576 -111888.811 144222.319 -111870.813 144171.929 -111820.802 144156.576 -111751.485 144181.136 -111684.872 144222.32 -111649.186 144223.041 -111648.796 144255.576 -111631.189 144433.24 -111492.906 144585.722 -111327.268 144685.578 -111174.427 144739.581 -111128.338 144766.477 -111119.763 144870.085 -111099.155 144985.375 -111051.4 145089.133 -110982.071 146180.799 -109890.405 146243.111 -109856.379 146269.894 -109853.5 147156 -109853.5 147224.121 -109873.502"/><path d="M 149802.121 -92984.002 149848.614 -93037.658 149860 -93090 149860 -101854 169418 -101854 169418 -99115 173112.337 -99115 173130.96 -99351.632 173186.371 -99582.437 173277.206 -99801.733 173391.897 -99988.891 174100.016 -99280.771 174112.482 -99327.292 174184.89 -99452.708 174287.292 -99555.11 174412.708 -99627.518 174459.226 -99639.982 173751.107 -100348.101 173751.107 -100348.102 173938.261 -100462.791 174157.562 -100553.628 174388.367 -100609.039 174625 -100627.662 174861.632 -100609.039 175092.437 -100553.628 175311.738 -100462.791 175498.891 -100348.102 175498.892 -100348.101 174790.773 -99639.982 174837.292 -99627.518 174962.708 -99555.11 175065.11 -99452.708 175137.518 -99327.292 175149.982 -99280.773 175858.101 -99988.892 175858.102 -99988.891 175972.791 -99801.738 176063.628 -99582.437 176119.039 -99351.632 176137.662 -99115 179612.337 -99115 179630.96 -99351.632 179686.371 -99582.437 179777.206 -99801.733 179891.897 -99988.891 180600.016 -99280.771 180612.482 -99327.292 180684.89 -99452.708 180787.292 -99555.11 180912.708 -99627.518 180959.226 -99639.982 180251.107 -100348.101 180251.107 -100348.102 180438.261 -100462.791 180657.562 -100553.628 180888.367 -100609.039 181125 -100627.662 181361.632 -100609.039 181592.437 -100553.628 181811.738 -100462.791 181998.891 -100348.102 181998.892 -100348.101 181290.773 -99639.982 181337.292 -99627.518 181462.708 -99555.11 181565.11 -99452.708 181637.518 -99327.292 181649.982 -99280.773 182358.101 -99988.892 182358.102 -99988.891 182472.791 -99801.738 182563.628 -99582.437 182619.039 -99351.632 182637.662 -99115 182619.039 -98878.367 182563.628 -98647.562 182472.791 -98428.261 182358.102 -98241.107 182358.101 -98241.107 181649.982 -98949.226 181637.518 -98902.708 181565.11 -98777.292 181462.708 -98674.89 181337.292 -98602.482 181290.772 -98590.017 181998.891 -97881.897 181811.733 -97767.206 181592.437 -97676.371 181361.632 -97620.96 181125 -97602.337 180888.367 -97620.96 180657.562 -97676.371 180438.262 -97767.208 180251.107 -97881.896 180251.107 -97881.898 180959.226 -98590.017 180912.708 -98602.482 180787.292 -98674.89 180684.89 -98777.292 180612.482 -98902.708 180600.017 -98949.226 179891.898 -98241.107 179891.896 -98241.107 179777.208 -98428.262 179686.371 -98647.562 179630.96 -98878.367 179612.337 -99115 176137.662 -99115 176119.039 -98878.367 176063.628 -98647.562 175972.791 -98428.261 175858.102 -98241.107 175858.101 -98241.107 175149.982 -98949.226 175137.518 -98902.708 175065.11 -98777.292 174962.708 -98674.89 174837.292 -98602.482 174790.772 -98590.017 175498.891 -97881.897 175311.733 -97767.206 175092.437 -97676.371 174861.632 -97620.96 174625 -97602.337 174388.367 -97620.96 174157.562 -97676.371 173938.262 -97767.208 173751.107 -97881.896 173751.107 -97881.898 174459.226 -98590.017 174412.708 -98602.482 174287.292 -98674.89 174184.89 -98777.292 174112.482 -98902.708 174100.017 -98949.226 173391.898 -98241.107 173391.896 -98241.107 173277.208 -98428.262 173186.371 -98647.562 173130.96 -98878.367 173112.337 -99115 169418 -99115 169418 -93090 169438.002 -93021.879 169491.658 -92975.386 169544 -92964 174035.521 -92964 174103.642 -92984.002 174150.135 -93037.658 174160.239 -93107.932 174130.745 -93172.512 174083.74 -93206.408 174030.628 -93228.407 173938.038 -93266.759 173735.582 -93390.825 173735.58 -93390.826 173555.03 -93545.03 173400.826 -93725.58 173400.825 -93725.582 173276.759 -93928.038 173185.894 -94147.407 173130.465 -94378.289 173111.835 -94615 173130.465 -94851.71 173185.894 -95082.592 173276.759 -95301.961 173400.825 -95504.417 173400.826 -95504.419 173555.03 -95684.969 173735.58 -95839.173 173735.584 -95839.176 173938.037 -95963.24 174157.406 -96054.105 174388.289 -96109.535 174625 -96128.165 174861.711 -96109.535 175092.594 -96054.105 175311.963 -95963.24 175514.416 -95839.176 175694.969 -95684.969 175849.176 -95504.416 175969.134 -95308.662 176021.78 -95261.034 176076.565 -95248.5 179673.435 -95248.5 179741.556 -95268.502 179780.865 -95308.662 179900.824 -95504.416 179900.825 -95504.417 179900.826 -95504.419 180055.03 -95684.969 180235.58 -95839.173 180235.584 -95839.176 180438.037 -95963.24 180657.406 -96054.105 180888.289 -96109.535 181125 -96128.165 181361.711 -96109.535 181592.594 -96054.105 181811.963 -95963.24 182014.416 -95839.176 182194.969 -95684.969 182349.176 -95504.416 182473.24 -95301.963 182564.105 -95082.594 182619.535 -94851.711 182638.165 -94615 182619.535 -94378.289 182564.105 -94147.406 182473.24 -93928.037 182349.176 -93725.584 182349.173 -93725.58 182194.969 -93545.03 182014.419 -93390.826 182014.417 -93390.825 182014.416 -93390.824 181811.963 -93266.76 181666.26 -93206.408 181610.98 -93161.861 181588.559 -93094.497 181606.117 -93025.706 181658.079 -92977.328 181714.479 -92964 183008 -92964 183076.121 -92984.002 183122.614 -93037.658 183134 -93090 183134 -129160 183113.998 -129228.121 183060.342 -129274.614 183008 -129286 141350 -129286 141281.879 -129265.998 141235.386 -129212.342 141224 -129160 141224 -127020 142171.844 -127020 142189.101 -127228.261 142190.437 -127244.375 142245.702 -127462.612 142245.703 -127462.613 142245.704 -127462.616 142332.94 -127661.496 142336.141 -127668.793 142459.275 -127857.265 142459.279 -127857.27 142611.762 -128022.908 142645.316 -128049.024 142789.424 -128161.189 142987.426 -128268.342 142987.427 -128268.342 142987.428 -128268.343 143082.226 -128300.887 143200.365 -128341.444 143422.431 -128378.5 143422.435 -128378.5 143647.565 -128378.5 143647.569 -128378.5 143869.635 -128341.444 143869.651 -128341.438 143872.751 -128340.654 143874.072 -128340.703 143874.777 -128340.586 143874.801 -128340.73 143943.698 -128343.311 143992.795 -128373.699 144279.567 -128660.471 144383.325 -128729.8 144498.615 -128777.555 144621.006 -128801.9 144621.007 -128801.9 150333.993 -128801.9 150333.994 -128801.9 150456.385 -128777.555 150571.675 -128729.8 150675.433 -128660.471 151090.499 -128245.403 151152.812 -128211.379 151179.595 -128208.499 151815.544 -128208.499 151919.426 -128197.887 152087.738 -128142.115 152238.652 -128049.03 152364.03 -127923.652 152457.115 -127772.738 152463.09 -127754.705 152474.635 -127719.867 152515.049 -127661.496 152580.605 -127634.24 152594.239 -127633.5 156757.5 -127633.5 156825.621 -127653.502 156872.114 -127707.158 156883.5 -127759.5 156883.5 -127898.649 156890.009 -127959.196 156890.011 -127959.204 156941.11 -128096.202 156941.112 -128096.207 157028.738 -128213.261 157145.792 -128300.887 157145.794 -128300.888 157145.796 -128300.889 157199.6 -128320.957 157282.795 -128351.988 157282.803 -128351.99 157343.35 -128358.499 157343.355 -128358.499 157343.362 -128358.5 157343.368 -128358.5 159140.632 -128358.5 159140.638 -128358.5 159140.645 -128358.499 159140.649 -128358.499 159201.196 -128351.99 159201.199 -128351.989 159201.201 -128351.989 159338.204 -128300.889 159408.399 -128248.342 159455.261 -128213.261 159542.886 -128096.208 159542.885 -128096.208 159542.889 -128096.204 159586.999 -127977.939 159629.545 -127921.107 159696.066 -127896.296 159765.44 -127911.388 159797.753 -127936.635 159818.529 -127959.204 159858.762 -128002.908 159884.458 -128022.908 160036.424 -128141.189 160234.426 -128248.342 160234.427 -128248.342 160234.428 -128248.343 160292.681 -128268.341 160447.365 -128321.444 160669.431 -128358.5 160669.435 -128358.5 160894.565 -128358.5 160894.569 -128358.5 161116.635 -128321.444 161329.574 -128248.342 161527.576 -128141.189 161705.24 -128002.906 161857.722 -127837.268 161946.816 -127700.898 162000.819 -127654.81 162071.167 -127645.235 162135.524 -127675.212 162157.782 -127700.898 162246.674 -127836.958 162399.097 -128002.534 162576.698 -128140.767 162576.699 -128140.768 162774.628 -128247.882 162774.63 -128247.883 162987.483 -128320.955 162987.492 -128320.957 163068 -128334.391 163068 -127430.702 163129.007 -127465.925 163256.174 -127500 163387.826 -127500 163514.993 -127465.925 163576 -127430.702 163576 -128334.39 163656.507 -128320.957 163656.516 -128320.955 163869.369 -128247.883 163869.371 -128247.882 164067.3 -128140.768 164067.301 -128140.767 164244.902 -128002.534 164397.325 -127836.958 164520.419 -127648.548 164610.82 -127442.456 164610.823 -127442.449 164658.544 -127254 163752.703 -127254 163787.925 -127192.993 163822 -127065.826 163822 -126934.174 163787.925 -126807.007 163752.703 -126746 164658.544 -126746 164658.544 -126745.999 164610.823 -126557.55 164610.82 -126557.543 164520.418 -126351.447 164520.417 -126351.445 164492.307 -126308.421 164471.793 -126240.453 164491.282 -126172.184 164508.694 -126150.41 166000.299 -124658.805 166062.611 -124624.779 166089.394 -124621.9 167194.742 -124621.9 167262.863 -124641.902 167309.356 -124695.558 167319.46 -124765.832 167315.317 -124784.475 167281.09 -124897.305 167261.62 -125094.996 167261.62 -125095.003 167281.09 -125292.694 167281.091 -125292.7 167281.092 -125292.701 167282.477 -125297.268 167338.759 -125482.805 167341.127 -125488.521 167339.204 -125489.317 167351.739 -125549.522 167327.018 -125614.911 167324.113 -125618.791 167324.11 -125618.796 167273.011 -125755.795 167273.009 -125755.803 167266.5 -125816.35 167266.5 -126913.649 167273.009 -126974.196 167273.011 -126974.204 167324.11 -127111.202 167324.112 -127111.207 167411.738 -127228.261 167528.792 -127315.887 167528.794 -127315.888 167528.796 -127315.889 167587.875 -127337.924 167665.795 -127366.988 167665.803 -127366.99 167726.35 -127373.499 167726.355 -127373.499 167726.362 -127373.5 167726.368 -127373.5 168823.632 -127373.5 168823.638 -127373.5 168823.645 -127373.499 168823.649 -127373.499 168884.196 -127366.99 168884.197 -127366.989 168884.201 -127366.989 169021.204 -127315.889 169025.518 -127312.658 169092.035 -127287.845 169150.856 -127300.363 169151.667 -127298.406 169157.388 -127300.775 169291 -127341.305 169799 -127341.305 169932.611 -127300.775 170107.723 -127207.175 170109.994 -127205.659 170111.365 -127205.229 170113.183 -127204.258 170113.367 -127204.602 170177.746 -127184.441 170246.213 -127203.221 170250.006 -127205.659 170252.276 -127207.175 170427.388 -127300.775 170561 -127341.305 170561 -126619 169799 -126619 169799 -127341.305 169291 -127341.305 169291 -126570.618 169345.446 -126625.064 169419.555 -126667.851 169502.213 -126690 169587.787 -126690 169670.445 -126667.851 169744.554 -126625.064 169805.064 -126564.554 169847.851 -126490.445 169870 -126407.787 169870 -126322.213 169847.851 -126239.555 169805.064 -126165.446 169750.618 -126111 170609.382 -126111 170554.936 -126165.446 170512.149 -126239.555 170490 -126322.213 170490 -126407.787 170512.149 -126490.445 170554.936 -126564.554 170615.446 -126625.064 170689.555 -126667.851 170772.213 -126690 170857.787 -126690 170940.445 -126667.851 171014.554 -126625.064 171069 -126570.618 171069 -127341.305 171202.611 -127300.775 171377.716 -127207.179 171379.536 -127205.964 171380.635 -127205.619 171383.183 -127204.258 171383.441 -127204.74 171447.287 -127184.744 171515.755 -127203.522 171519.55 -127205.96 171521.989 -127207.589 171521.996 -127207.595 171697.196 -127301.241 171887.299 -127358.908 171887.303 -127358.908 171887.305 -127358.909 172084.997 -127378.38 172085 -127378.38 172085.003 -127378.38 172282.694 -127358.909 172282.695 -127358.908 172282.701 -127358.908 172472.804 -127301.241 172648.004 -127207.595 172648.014 -127207.585 172650.443 -127205.964 172651.921 -127205.5 172653.463 -127204.677 172653.619 -127204.969 172718.194 -127184.744 172786.663 -127203.522 172790.456 -127205.96 172792.274 -127207.175 172967.388 -127300.775 173101 -127341.305 173609 -127341.305 173742.611 -127300.775 173917.724 -127207.175 174071.211 -127081.211 174197.175 -126927.724 174290.775 -126752.612 174290.776 -126752.61 174331.307 -126619 173609 -126619 173609 -127341.305 173101 -127341.305 173101 -126570.618 173155.446 -126625.064 173229.555 -126667.851 173312.213 -126690 173397.787 -126690 173480.445 -126667.851 173554.554 -126625.064 173615.064 -126564.554 173657.851 -126490.445 173680 -126407.787 173680 -126322.213 173657.851 -126239.555 173615.064 -126165.446 173560.618 -126111 174331.307 -126111 174331.307 -126110.999 174290.776 -125977.389 174290.775 -125977.387 174197.175 -125802.274 174195.96 -125800.456 174195.616 -125799.357 174194.258 -125796.817 174194.739 -125796.559 174174.744 -125732.704 174193.526 -125664.236 174195.964 -125660.443 174197.585 -125658.014 174197.595 -125658.004 174291.241 -125482.804 174348.908 -125292.701 174367.022 -125108.793 174368.38 -125095.003 174368.38 -125094.996 174348.909 -124897.305 174348.908 -124897.303 174348.908 -124897.299 174291.241 -124707.196 174197.595 -124531.996 174071.568 -124378.432 173918.004 -124252.405 173742.804 -124158.759 173552.701 -124101.092 173552.7 -124101.091 173552.694 -124101.09 173355.003 -124081.62 173354.995 -124081.62 173307.361 -124086.311 173237.608 -124073.082 173205.917 -124050.013 171752.235 -122596.331 171752.233 -122596.329 171648.475 -122527 171533.185 -122479.245 171459.486 -122464.585 171410.796 -122454.9 171410.794 -122454.9 160160.806 -122454.9 160160.8 -122454.9 160038.417 -122479.244 160038.409 -122479.246 160004.647 -122493.23 160004.647 -122493.231 159923.125 -122526.999 159819.367 -122596.327 159819.361 -122596.332 159124.936 -123290.758 159062.624 -123324.784 158991.809 -123319.719 158975.872 -123312.477 158882.805 -123262.112 158789.574 -123211.658 158789.572 -123211.657 158789.571 -123211.656 158576.639 -123138.557 158576.63 -123138.555 158516.402 -123128.505 158354.569 -123101.5 158129.431 -123101.5 157981.211 -123126.233 157907.369 -123138.555 157907.36 -123138.557 157694.428 -123211.656 157694.426 -123211.658 157496.432 -123318.807 157496.426 -123318.81 157496.424 -123318.811 157318.762 -123457.091 157166.279 -123622.729 157166.275 -123622.734 157043.141 -123811.206 156952.703 -124017.386 156952.702 -124017.387 156897.437 -124235.624 156897.436 -124235.63 156897.436 -124235.632 156878.844 -124460 156896.493 -124672.993 156897.437 -124684.375 156952.702 -124902.612 156952.703 -124902.613 156952.704 -124902.616 157023.634 -125064.321 157043.141 -125108.793 157166.275 -125297.265 157166.28 -125297.27 157309.475 -125452.82 157340.896 -125516.485 157332.909 -125587.031 157288.051 -125642.06 157260.807 -125656.213 157145.797 -125699.11 157145.792 -125699.112 157028.738 -125786.738 156941.112 -125903.792 156941.11 -125903.797 156890.011 -126040.795 156890.009 -126040.803 156883.5 -126101.35 156883.5 -126240.5 156863.498 -126308.621 156809.842 -126355.114 156757.5 -126366.5 152594.239 -126366.5 152526.118 -126346.498 152479.625 -126292.842 152474.635 -126280.133 152457.116 -126227.265 152457.115 -126227.264 152457.115 -126227.262 152364.03 -126076.348 152364.029 -126076.347 152364.024 -126076.341 152238.658 -125950.975 152238.652 -125950.97 152216.968 -125937.595 152087.738 -125857.885 152062.747 -125849.604 152004.377 -125809.191 151977.121 -125743.635 151989.634 -125673.749 152037.944 -125621.723 152062.746 -125610.396 152087.738 -125602.115 152238.652 -125509.03 152364.03 -125383.652 152457.115 -125232.738 152512.887 -125064.426 152523.5 -124960.545 152523.499 -123959.456 152512.887 -123855.574 152457.115 -123687.262 152364.03 -123536.348 152364.029 -123536.347 152364.024 -123536.341 152238.658 -123410.975 152238.652 -123410.97 152087.738 -123317.885 152003.582 -123289.999 151919.427 -123262.113 151919.42 -123262.112 151815.553 -123251.5 151014.455 -123251.5 150910.574 -123262.112 150742.261 -123317.885 150591.347 -123410.97 150591.341 -123410.975 150503.741 -123498.576 150441.429 -123532.602 150370.614 -123527.537 150325.551 -123498.576 150238.345 -123411.37 150238.339 -123411.365 150087.525 -123318.342 149919.321 -123262.606 149919.318 -123262.605 149815.516 -123252 149669 -123252 149669 -124334 149648.998 -124402.121 149595.342 -124448.614 149543 -124460 149415 -124460 149415 -124588 149394.998 -124656.121 149341.342 -124702.614 149289 -124714 148307 -124714 148307 -124960.516 148317.605 -125064.318 148317.606 -125064.321 148373.342 -125232.525 148466.365 -125383.339 148466.37 -125383.345 148591.654 -125508.629 148591.66 -125508.634 148742.478 -125601.659 148768.047 -125610.132 148826.418 -125650.545 148853.674 -125716.102 148841.161 -125785.987 148792.851 -125838.013 148768.048 -125849.34 148742.264 -125857.884 148742.262 -125857.884 148742.262 -125857.885 148729.211 -125865.935 148591.347 -125950.97 148591.341 -125950.975 148465.975 -126076.341 148465.97 -126076.347 148372.885 -126227.262 148317.113 -126395.572 148317.112 -126395.579 148306.5 -126499.446 148306.5 -126499.454 148306.5 -126499.455 148306.5 -126974.204 148306.501 -127408.9 148286.499 -127477.021 148232.843 -127523.514 148180.501 -127534.9 144997.994 -127534.9 144929.873 -127514.898 144908.899 -127497.995 144884.866 -127473.962 144850.84 -127411.65 144851.816 -127353.937 144879.564 -127244.368 144898.156 -127020 144879.564 -126795.632 144869.879 -126757.386 144824.297 -126577.387 144824.296 -126577.386 144824.296 -126577.384 144733.86 -126371.209 144723.345 -126355.114 144610.724 -126182.734 144610.714 -126182.722 144467.159 -126026.782 144435.737 -125963.117 144443.723 -125892.571 144488.582 -125837.542 144515.827 -125823.388 144630.965 -125780.444 144747.904 -125692.904 144835.444 -125575.965 144835.444 -125575.964 144886.494 -125439.093 144892.999 -125378.597 144893 -125378.585 144893 -124734 143965.703 -124734 144000.925 -124672.993 144035 -124545.826 144035 -124414.174 144000.925 -124287.007 143965.703 -124226 144893 -124226 144893 -123959.483 148307 -123959.483 148307 -124206 149161 -124206 149161 -123252 149014.483 -123252 148910.681 -123262.605 148910.678 -123262.606 148742.474 -123318.342 148591.66 -123411.365 148591.654 -123411.37 148466.37 -123536.654 148466.365 -123536.66 148373.342 -123687.474 148317.606 -123855.678 148317.605 -123855.681 148307 -123959.483 144893 -123959.483 144893 -123581.414 144892.999 -123581.402 144886.494 -123520.906 144835.444 -123384.035 144835.444 -123384.034 144747.904 -123267.095 144630.965 -123179.555 144494.093 -123128.505 144433.597 -123122 143789 -123122 143789 -124049.297 143727.993 -124014.075 143600.826 -123980 143469.174 -123980 143342.007 -124014.075 143281 -124049.297 143281 -123122 142636.402 -123122 142575.906 -123128.505 142439.035 -123179.555 142439.034 -123179.555 142322.095 -123267.095 142234.555 -123384.034 142234.555 -123384.035 142183.505 -123520.906 142177 -123581.402 142177 -124226 143104.297 -124226 143069.075 -124287.007 143035 -124414.174 143035 -124545.826 143069.075 -124672.993 143104.297 -124734 142177 -124734 142177 -125378.597 142183.505 -125439.093 142234.555 -125575.964 142234.555 -125575.965 142322.095 -125692.904 142439.034 -125780.444 142554.172 -125823.388 142611.008 -125865.935 142635.819 -125932.455 142620.728 -126001.829 142602.841 -126026.782 142459.28 -126182.729 142459.275 -126182.734 142336.141 -126371.206 142245.703 -126577.386 142245.702 -126577.387 142190.437 -126795.624 142190.436 -126795.63 142190.436 -126795.632 142171.844 -127020 141224 -127020 141224 -119839.597 169162 -119839.597 169168.505 -119900.093 169219.555 -120036.964 169219.555 -120036.965 169307.095 -120153.904 169424.034 -120241.444 169560.906 -120292.494 169621.402 -120298.999 169621.415 -120299 170416 -120299 170924 -120299 171718.585 -120299 171718.597 -120298.999 171779.093 -120292.494 171915.964 -120241.444 171915.965 -120241.444 172032.904 -120153.904 172120.444 -120036.965 172120.444 -120036.964 172171.494 -119900.093 172177.999 -119839.597 172178 -119839.585 172178 -119545 170924 -119545 170924 -120299 170416 -120299 170416 -119545 169162 -119545 169162 -119839.597 141224 -119839.597 141224 -110086.702 141555.7 -110086.702 141555.7 -110086.705 141555.7 -110326.006 141555.7 -116726.806 141555.7 -116851.594 141580.045 -116973.985 141627.8 -117089.275 141697.129 -117193.033 141697.131 -117193.035 142160.132 -117656.036 142194.158 -117718.348 142193.182 -117776.061 142165.436 -117885.628 142156.026 -117999.186 142146.844 -118110 142157.517 -118238.807 142165.437 -118334.375 142220.702 -118552.612 142220.703 -118552.613 142220.704 -118552.616 142304.432 -118743.499 142311.141 -118758.793 142434.275 -118947.265 142434.279 -118947.27 142586.762 -119112.908 142641.331 -119155.381 142764.424 -119251.189 142962.426 -119358.342 142962.427 -119358.342 142962.428 -119358.343 143074.227 -119396.723 143175.365 -119431.444 143397.431 -119468.5 143397.435 -119468.5 143622.565 -119468.5 143622.569 -119468.5 143844.635 -119431.444 144057.574 -119358.342 144255.576 -119251.189 144433.24 -119112.906 144585.722 -118947.268 144681.555 -118800.585 144735.558 -118754.496 144787.038 -118743.5 146412.093 -118743.5 146412.094 -118743.5 146534.485 -118719.155 146649.775 -118671.4 146753.533 -118602.071 147681.897 -117673.705 147744.206 -117639.683 147810.619 -117643.197 147960.574 -117692.887 148064.455 -117703.5 149115.544 -117703.499 149219.426 -117692.887 149387.738 -117637.115 149538.652 -117544.03 149592.278 -117490.403 149654.588 -117456.38 149681.372 -117453.5 151978.093 -117453.5 151978.094 -117453.5 152100.485 -117429.155 152215.775 -117381.4 152279.442 -117338.858 152347.194 -117317.643 152415.661 -117336.425 152423.216 -117341.572 152423.793 -117341.886 152423.796 -117341.889 152482.875 -117363.924 152560.795 -117392.988 152560.803 -117392.99 152621.35 -117399.499 152621.355 -117399.499 152621.362 -117399.5 152621.368 -117399.5 154718.632 -117399.5 154718.638 -117399.5 154718.645 -117399.499 154718.649 -117399.499 154779.196 -117392.99 154779.199 -117392.989 154779.201 -117392.989 154916.204 -117341.889 154916.628 -117341.572 155033.261 -117254.261 155120.887 -117137.207 155120.887 -117137.206 155120.889 -117137.204 155171.989 -117000.201 155174.808 -116973.987 155178.499 -116939.649 155178.5 -116939.632 155178.5 -115842.367 155178.499 -115842.35 155171.99 -115781.803 155171.988 -115781.795 155129.734 -115668.511 155120.889 -115644.796 155120.888 -115644.794 155120.887 -115644.792 155033.262 -115527.74 155025.745 -115522.113 154984.924 -115491.554 154942.379 -115434.719 154937.315 -115363.903 154971.34 -115301.591 154984.927 -115289.818 155032.904 -115253.903 155120.444 -115136.965 155120.444 -115136.964 155171.494 -115000.093 155177.999 -114939.597 155178 -114939.585 155178 -114645 152162 -114645 152162 -114939.597 152168.505 -115000.093 152219.555 -115136.964 152219.555 -115136.965 152307.095 -115253.903 152355.072 -115289.818 152397.619 -115346.654 152402.685 -115417.47 152368.66 -115479.782 152355.074 -115491.554 152306.739 -115527.737 152219.111 -115644.794 152188.636 -115726.499 152146.089 -115783.334 152118.801 -115798.873 152044.626 -115829.598 152044.625 -115829.598 151940.867 -115898.927 151690.201 -116149.595 151627.888 -116183.62 151601.105 -116186.5 149927.375 -116186.5 149859.254 -116166.498 149812.761 -116112.842 149807.77 -116100.132 149757.115 -115947.262 149664.03 -115796.348 149664.029 -115796.347 149664.024 -115796.341 149538.657 -115670.974 149535.547 -115668.515 149533.967 -115666.284 149533.463 -115665.78 149533.549 -115665.693 149494.518 -115610.575 149491.326 -115539.65 149526.986 -115478.259 149535.558 -115470.832 149538.35 -115468.624 149663.629 -115343.345 149663.634 -115343.339 149756.657 -115192.525 149812.393 -115024.321 149812.394 -115024.318 149822.999 -114920.516 149823 -114920.516 149823 -114786.5 147357 -114786.5 147357 -114920.516 147367.605 -115024.318 147367.606 -115024.321 147423.342 -115192.525 147516.365 -115343.339 147516.37 -115343.345 147641.657 -115468.632 147644.446 -115470.837 147645.863 -115472.838 147646.85 -115473.825 147646.681 -115473.993 147685.479 -115528.775 147688.674 -115599.7 147653.017 -115661.093 147644.457 -115668.511 147641.345 -115670.971 147515.975 -115796.341 147515.97 -115796.347 147422.885 -115947.262 147367.113 -116115.572 147367.112 -116115.579 147359.471 -116190.362 147332.648 -116256.097 147304.127 -116282.319 147235.867 -116327.929 147235.864 -116327.931 146124.201 -117439.595 146061.889 -117473.621 146035.106 -117476.5 144787.038 -117476.5 144718.917 -117456.498 144681.555 -117419.415 144585.724 -117272.734 144585.72 -117272.729 144433.237 -117107.091 144295.905 -117000.201 144255.576 -116968.811 144221.792 -116950.528 144171.402 -116900.516 144156.05 -116831.199 144180.61 -116764.586 144221.793 -116728.901 144255.3 -116710.767 144255.301 -116710.767 144432.902 -116572.534 144585.325 -116406.958 144708.419 -116218.548 144798.82 -116012.456 144798.823 -116012.449 144846.544 -115824 143940.703 -115824 143975.925 -115762.993 144010 -115635.826 144010 -115504.174 143975.925 -115377.007 143940.703 -115316 144846.544 -115316 144846.544 -115315.999 144798.823 -115127.55 144798.82 -115127.543 144708.419 -114921.451 144585.325 -114733.041 144432.902 -114567.465 144255.301 -114429.232 144255.3 -114429.231 144221.791 -114411.097 144171.401 -114361.083 144156.05 -114291.766 144180.612 -114225.153 144221.79 -114189.472 144255.576 -114171.189 144433.24 -114032.906 144585.722 -113867.268 144681.555 -113720.585 144735.558 -113674.496 144787.038 -113663.5 147326.481 -113663.5 147394.602 -113683.502 147441.095 -113737.158 147451.199 -113807.432 147433.722 -113855.646 147423.343 -113872.472 147367.606 -114040.678 147367.605 -114040.681 147357 -114144.483 147357 -114278.5 149823 -114278.5 149823 -114144.483 149812.394 -114040.681 149812.393 -114040.678 149756.656 -113872.472 149746.278 -113855.646 149727.541 -113787.167 149748.801 -113719.428 149803.308 -113673.937 149853.519 -113663.5 151772.093 -113663.5 151772.094 -113663.5 151894.485 -113639.155 152009.775 -113591.4 152009.779 -113591.397 152014.113 -113589.602 152084.703 -113582.012 152148.19 -113613.79 152184.419 -113674.848 152181.886 -113745.799 152180.39 -113750.04 152168.505 -113781.906 152162 -113842.402 152162 -114137 155178 -114137 155178 -113842.414 155177.999 -113842.402 155171.494 -113781.906 155120.444 -113645.035 155120.444 -113645.034 155032.904 -113528.095 154987.598 -113494.18 154945.051 -113437.344 154939.987 -113366.529 154974.012 -113304.217 154987.598 -113292.444 155033.261 -113258.261 155120.887 -113141.207 155120.887 -113141.206 155120.889 -113141.204 155165.542 -113021.485 155171.988 -113004.204 155171.99 -113004.196 155178.499 -112943.649 155178.5 -112943.632 155178.5 -111846.367 155178.499 -111846.35 155171.99 -111785.803 155171.988 -111785.795 155133.2 -111681.803 155120.889 -111648.796 155120.888 -111648.794 155120.887 -111648.792 155033.261 -111531.738 154949.276 -111468.868 154906.729 -111412.032 154901.665 -111341.217 154935.69 -111278.904 154949.276 -111267.132 155033.261 -111204.261 155120.887 -111087.207 155120.887 -111087.206 155120.889 -111087.204 155171.989 -110950.201 155174.943 -110922.729 155178.499 -110889.649 155178.5 -110889.632 155178.5 -109792.367 155178.499 -109792.35 155171.99 -109731.803 155171.988 -109731.795 155133.176 -109627.739 155120.889 -109594.796 155120.888 -109594.794 155120.887 -109594.792 155033.261 -109477.738 154985.343 -109441.868 154942.796 -109385.033 154937.731 -109314.217 154971.756 -109251.905 154985.343 -109240.132 155033.261 -109204.261 155120.887 -109087.207 155120.887 -109087.206 155120.889 -109087.204 155171.989 -108950.201 155178.5 -108889.638 155178.5 -107792.362 155178.299 -107790.49 155171.99 -107731.803 155171.988 -107731.795 155120.889 -107594.797 155120.887 -107594.792 155033.261 -107477.739 155018.74 -107466.869 154976.193 -107410.034 154971.127 -107339.218 155005.152 -107276.906 155018.74 -107265.131 155033.261 -107254.261 155120.889 -107137.204 155171.989 -107000.201 155172.047 -106999.67 155178.499 -106939.649 155178.5 -106939.632 155178.5 -105842.367 155178.499 -105842.35 155171.99 -105781.803 155171.988 -105781.795 155136.697 -105687.179 155120.889 -105644.796 155120.888 -105644.794 155120.887 -105644.792 155033.261 -105527.738 154916.207 -105440.112 154916.202 -105440.11 154779.204 -105389.011 154779.196 -105389.009 154718.649 -105382.5 154718.638 -105382.5 152621.362 -105382.5 152621.35 -105382.5 152560.803 -105389.009 152560.795 -105389.011 152423.793 -105440.111 152419.846 -105442.267 152415.455 -105443.221 152415.353 -105443.26 152415.347 -105443.245 152350.471 -105457.353 152283.953 -105432.538 152270.374 -105420.77 151767.535 -104917.931 151767.533 -104917.929 151663.775 -104848.6 151548.485 -104800.845 151474.786 -104786.185 151426.096 -104776.5 151426.094 -104776.5 144994.5 -104776.5 144926.379 -104756.498 144879.886 -104702.842 144868.5 -104650.5 144868.5 -104511.367 144868.499 -104511.35 144861.99 -104450.803 144861.988 -104450.795 144810.889 -104313.797 144810.887 -104313.792 144723.261 -104196.738 144606.207 -104109.112 144606.202 -104109.11 144469.204 -104058.011 144469.196 -104058.009 144408.649 -104051.5 144408.638 -104051.5 142611.362 -104051.5 142611.35 -104051.5 142550.803 -104058.009 142550.795 -104058.011 142413.797 -104109.11 142413.792 -104109.112 142296.738 -104196.738 142209.112 -104313.792 142209.11 -104313.797 142158.011 -104450.795 142158.009 -104450.803 142151.5 -104511.35 142151.5 -106308.649 142158.009 -106369.196 142158.011 -106369.204 142209.11 -106506.202 142209.112 -106506.207 142296.738 -106623.261 142413.791 -106710.886 142413.792 -106710.886 142413.796 -106710.889 142528.81 -106753.787 142585.642 -106796.332 142610.453 -106862.852 142595.362 -106932.226 142577.475 -106957.179 142434.28 -107112.729 142434.275 -107112.734 142311.141 -107301.206 142220.703 -107507.386 142220.702 -107507.387 142165.437 -107725.624 142165.436 -107725.63 142165.436 -107725.632 142146.844 -107950 142161.912 -108131.846 142165.437 -108174.375 142220.702 -108392.612 142220.703 -108392.613 142220.704 -108392.616 142273.44 -108512.842 142311.141 -108598.793 142427.821 -108777.386 142434.278 -108787.268 142453.124 -108807.74 142458.254 -108813.313 142489.674 -108876.979 142481.687 -108947.525 142454.648 -108987.745 141785.367 -109657.028 141697.127 -109745.268 141697.126 -109745.27 141676.905 -109775.534 141627.8 -109849.024 141624.289 -109857.5 141601.972 -109911.379 141580.045 -109964.314 141573.16 -109998.926 141555.7 -110086.702 141224 -110086.702 141224 -102942.35 169161.5 -102942.35 169161.5 -104039.649 169168.009 -104100.196 169168.011 -104100.204 169219.11 -104237.202 169219.112 -104237.206 169259.001 -104290.492 169283.811 -104357.012 169268.719 -104426.386 169259.001 -104441.508 169219.112 -104494.793 169219.11 -104494.797 169168.011 -104631.795 169168.009 -104631.803 169161.5 -104692.35 169161.5 -105789.649 169168.009 -105850.196 169168.011 -105850.204 169219.11 -105987.202 169219.112 -105987.206 169259.001 -106040.492 169283.811 -106107.012 169268.719 -106176.386 169259.001 -106191.508 169219.112 -106244.793 169219.11 -106244.797 169168.011 -106381.795 169168.009 -106381.803 169161.5 -106442.35 169161.5 -107539.649 169168.009 -107600.196 169168.011 -107600.204 169219.11 -107737.202 169219.112 -107737.206 169259.001 -107790.492 169283.811 -107857.012 169268.719 -107926.386 169259.001 -107941.508 169219.112 -107994.793 169219.11 -107994.797 169168.011 -108131.795 169168.009 -108131.803 169161.5 -108192.35 169161.5 -109289.649 169168.009 -109350.196 169168.011 -109350.204 169219.11 -109487.202 169219.112 -109487.206 169259.001 -109540.492 169283.811 -109607.012 169268.719 -109676.386 169259.001 -109691.508 169219.112 -109744.793 169219.11 -109744.797 169168.011 -109881.795 169168.009 -109881.803 169161.5 -109942.35 169161.5 -111039.649 169168.009 -111100.196 169168.011 -111100.204 169219.11 -111237.202 169219.113 -111237.207 169277.715 -111315.491 169302.526 -111382.011 169287.434 -111451.386 169277.715 -111466.509 169219.113 -111544.792 169219.11 -111544.797 169168.011 -111681.795 169168.009 -111681.803 169161.5 -111742.35 169161.5 -112839.649 169168.009 -112900.196 169168.011 -112900.204 169219.11 -113037.202 169219.112 -113037.206 169259.001 -113090.492 169283.811 -113157.012 169268.719 -113226.386 169259.001 -113241.508 169219.112 -113294.793 169219.11 -113294.797 169168.011 -113431.795 169168.009 -113431.803 169161.5 -113492.35 169161.5 -114589.649 169168.009 -114650.196 169168.011 -114650.204 169219.11 -114787.202 169219.112 -114787.206 169259.001 -114840.492 169283.811 -114907.012 169268.719 -114976.386 169259.001 -114991.508 169219.112 -115044.793 169219.11 -115044.797 169168.011 -115181.795 169168.009 -115181.803 169161.5 -115242.35 169161.5 -116339.649 169168.009 -116400.196 169168.011 -116400.204 169219.11 -116537.202 169219.112 -116537.206 169259.001 -116590.492 169283.811 -116657.012 169268.719 -116726.386 169259.001 -116741.508 169219.112 -116794.793 169219.11 -116794.797 169168.011 -116931.795 169168.009 -116931.803 169161.5 -116992.35 169161.5 -118089.649 169168.009 -118150.196 169168.011 -118150.204 169219.11 -118287.202 169219.112 -118287.207 169259.312 -118340.907 169284.123 -118407.427 169269.032 -118476.801 169259.313 -118491.924 169219.555 -118545.035 169168.505 -118681.906 169162 -118742.402 169162 -119037 172178 -119037 172178 -118742.414 172177.999 -118742.402 172171.494 -118681.906 172120.444 -118545.035 172120.443 -118545.034 172080.687 -118491.925 172055.876 -118425.404 172070.968 -118356.03 172080.688 -118340.906 172120.886 -118287.208 172120.885 -118287.208 172120.889 -118287.204 172132.354 -118256.466 172174.901 -118199.631 172241.422 -118174.821 172250.409 -118174.5 172566.106 -118174.5 172634.227 -118194.502 172655.2 -118211.404 179395.867 -124952.072 179499.625 -125021.401 179581.147 -125055.168 179614.915 -125069.155 179718.52 -125089.763 179781.429 -125122.671 179799.421 -125144.426 179899.279 -125297.27 180051.762 -125462.908 180077.326 -125482.805 180229.424 -125601.189 180263.205 -125619.47 180313.596 -125669.482 180328.949 -125738.799 180304.389 -125805.412 180263.209 -125841.096 180229.704 -125859.228 180229.698 -125859.232 180052.097 -125997.465 179899.674 -126163.041 179776.58 -126351.451 179686.179 -126557.543 179686.176 -126557.55 179638.455 -126745.999 179638.456 -126746 180544.297 -126746 180509.075 -126807.007 180475 -126934.174 180475 -127065.826 180509.075 -127192.993 180544.297 -127254 179638.455 -127254 179686.176 -127442.449 179686.179 -127442.456 179776.58 -127648.548 179899.674 -127836.958 180052.097 -128002.534 180229.698 -128140.767 180229.699 -128140.768 180427.628 -128247.882 180427.63 -128247.883 180640.483 -128320.955 180640.492 -128320.957 180721 -128334.391 180721 -127430.702 180782.007 -127465.925 180909.174 -127500 181040.826 -127500 181167.993 -127465.925 181229 -127430.702 181229 -128334.39 181309.507 -128320.957 181309.516 -128320.955 181522.369 -128247.883 181522.371 -128247.882 181720.3 -128140.768 181720.301 -128140.767 181897.902 -128002.534 182050.325 -127836.958 182173.419 -127648.548 182263.82 -127442.456 182263.823 -127442.449 182311.544 -127254 181405.703 -127254 181440.925 -127192.993 181475 -127065.826 181475 -126934.174 181440.925 -126807.007 181405.703 -126746 182311.544 -126746 182311.544 -126745.999 182263.823 -126557.55 182263.82 -126557.543 182173.419 -126351.451 182050.325 -126163.041 181897.902 -125997.465 181720.301 -125859.232 181720.3 -125859.231 181686.791 -125841.097 181636.401 -125791.083 181621.05 -125721.766 181645.612 -125655.153 181686.79 -125619.472 181720.576 -125601.189 181898.24 -125462.906 182050.722 -125297.268 182173.86 -125108.791 182264.296 -124902.616 182319.564 -124684.368 182338.156 -124460 182319.564 -124235.632 182280.563 -124081.62 182264.297 -124017.387 182264.296 -124017.386 182264.296 -124017.384 182173.86 -123811.209 182128.58 -123741.902 182050.724 -123622.734 182050.72 -123622.729 181898.237 -123457.091 181804.375 -123384.035 181720.576 -123318.811 181719.709 -123318.342 181687.32 -123300.814 181636.929 -123250.802 181621.576 -123181.485 181646.136 -123114.872 181687.32 -123079.186 181720.576 -123061.189 181898.24 -122922.906 182050.722 -122757.268 182173.86 -122568.791 182264.296 -122362.616 182319.564 -122144.368 182338.156 -121920 182319.564 -121695.632 182264.296 -121477.384 182173.86 -121271.209 182167.14 -121260.924 182050.724 -121082.734 182050.72 -121082.729 181898.237 -120917.091 181816.382 -120853.381 181720.576 -120778.811 181687.319 -120760.813 181636.929 -120710.802 181621.576 -120641.485 181646.136 -120574.872 181687.32 -120539.186 181720.576 -120521.189 181898.24 -120382.906 182050.722 -120217.268 182173.86 -120028.791 182264.296 -119822.616 182319.564 -119604.368 182338.156 -119380 182319.564 -119155.632 182289.522 -119037 182264.297 -118937.387 182264.296 -118937.386 182264.296 -118937.384 182173.86 -118731.209 182134.784 -118671.398 182050.724 -118542.734 182050.72 -118542.729 181898.237 -118377.091 181816.382 -118313.381 181720.576 -118238.811 181687.319 -118220.813 181636.929 -118170.802 181621.576 -118101.485 181646.136 -118034.872 181687.32 -117999.186 181720.576 -117981.189 181898.24 -117842.906 182050.722 -117677.268 182173.86 -117488.791 182264.296 -117282.616 182319.564 -117064.368 182338.156 -116840 182319.564 -116615.632 182291.919 -116506.466 182264.297 -116397.387 182264.296 -116397.386 182264.296 -116397.384 182173.86 -116191.209 182124.449 -116115.579 182050.724 -116002.734 182050.72 -116002.729 181903.094 -115842.367 181898.24 -115837.094 181898.239 -115837.093 181898.237 -115837.091 181756.149 -115726.499 181720.576 -115698.811 181719.077 -115698 181687.32 -115680.814 181636.929 -115630.802 181621.576 -115561.485 181646.136 -115494.872 181687.32 -115459.186 181720.576 -115441.189 181898.24 -115302.906 182050.722 -115137.268 182173.86 -114948.791 182264.296 -114742.616 182319.564 -114524.368 182338.156 -114300 182319.564 -114075.632 182268.117 -113872.472 182264.297 -113857.387 182264.296 -113857.386 182264.296 -113857.384 182173.86 -113651.209 182133.61 -113589.602 182050.724 -113462.734 182050.72 -113462.729 181898.237 -113297.091 181744.894 -113177.739 181720.576 -113158.811 181712.168 -113154.261 181703.163 -113149.387 181687.319 -113140.813 181636.929 -113090.802 181621.576 -113021.485 181646.136 -112954.872 181687.32 -112919.186 181720.576 -112901.189 181898.24 -112762.906 182050.722 -112597.268 182173.86 -112408.791 182264.296 -112202.616 182319.564 -111984.368 182338.156 -111760 182319.564 -111535.632 182288.264 -111412.032 182264.297 -111317.387 182264.296 -111317.386 182264.296 -111317.384 182173.86 -111111.209 182158.177 -111087.204 182050.724 -110922.734 182050.72 -110922.729 181898.237 -110757.091 181816.382 -110693.381 181720.576 -110618.811 181687.319 -110600.813 181636.929 -110550.802 181621.576 -110481.485 181646.136 -110414.872 181687.32 -110379.186 181720.576 -110361.189 181898.24 -110222.906 182050.722 -110057.268 182173.86 -109868.791 182264.296 -109662.616 182319.564 -109444.368 182338.156 -109220 182319.564 -108995.632 182295.919 -108902.259 182264.297 -108777.387 182264.296 -108777.386 182264.296 -108777.384 182173.86 -108571.209 182135.727 -108512.842 182050.724 -108382.734 182050.72 -108382.729 181898.237 -108217.091 181816.382 -108153.381 181720.576 -108078.811 181687.319 -108060.813 181636.929 -108010.802 181621.576 -107941.485 181646.136 -107874.872 181687.32 -107839.186 181720.576 -107821.189 181898.24 -107682.906 182050.722 -107517.268 182173.86 -107328.791 182264.296 -107122.616 182319.564 -106904.368 182338.156 -106680 182319.564 -106455.632 182300.866 -106381.795 182264.297 -106237.387 182264.296 -106237.386 182264.296 -106237.384 182173.86 -106031.209 182167.14 -106020.924 182050.724 -105842.734 182050.719 -105842.729 181907.524 -105687.179 181876.103 -105623.514 181884.09 -105552.968 181928.948 -105497.939 181956.183 -105483.789 182071.204 -105440.889 182072.244 -105440.111 182188.261 -105353.261 182275.887 -105236.207 182275.887 -105236.206 182275.889 -105236.204 182326.989 -105099.201 182333.5 -105038.638 182333.5 -103241.362 182333.499 -103241.35 182326.99 -103180.803 182326.988 -103180.795 182275.889 -103043.797 182275.887 -103043.792 182188.261 -102926.738 182071.207 -102839.112 182071.202 -102839.11 181934.204 -102788.011 181934.196 -102788.009 181873.649 -102781.5 181873.638 -102781.5 180076.362 -102781.5 180076.35 -102781.5 180015.803 -102788.009 180015.795 -102788.011 179878.797 -102839.11 179878.792 -102839.112 179761.739 -102926.738 179728.198 -102971.543 179671.362 -103014.088 179600.546 -103019.152 179557.329 -103000.797 179513.547 -102971.543 179450.775 -102929.6 179335.485 -102881.845 179261.786 -102867.185 179213.096 -102857.5 179213.094 -102857.5 172250.409 -102857.5 172182.288 -102837.498 172135.795 -102783.842 172132.354 -102775.534 172120.889 -102744.797 172120.889 -102744.796 172120.887 -102744.794 172120.887 -102744.792 172033.261 -102627.738 171916.207 -102540.112 171916.202 -102540.11 171779.204 -102489.011 171779.196 -102489.009 171718.649 -102482.5 171718.638 -102482.5 169621.362 -102482.5 169621.35 -102482.5 169560.803 -102489.009 169560.795 -102489.011 169423.797 -102540.11 169423.792 -102540.112 169306.738 -102627.738 169219.112 -102744.792 169219.11 -102744.797 169168.011 -102881.795 169168.009 -102881.803 169161.5 -102942.35 141224 -102942.35 141224 -93090 141244.002 -93021.879 141297.658 -92975.386 141350 -92964 149734 -92964 149802.121 -92984.002"/></g><g id="meIVi-bIt301_top_soldermask"><use xlink:href="#Ox6orZEd78_D_pad-10" x="148590" y="-107720"/><use xlink:href="#Ox6orZEd78_D_pad-10" x="148590" y="-110720"/><use xlink:href="#Ox6orZEd78_D_pad-11" x="148590" y="-116607.5"/><use xlink:href="#Ox6orZEd78_D_pad-11" x="148590" y="-114532.5"/><use xlink:href="#Ox6orZEd78_D_pad-12" x="149390" y="-127000"/><use xlink:href="#Ox6orZEd78_D_pad-12" x="151440" y="-127000"/><use xlink:href="#Ox6orZEd78_D_pad-13" x="143510" y="-105410"/><use xlink:href="#Ox6orZEd78_D_pad-14" x="143510" y="-107950"/><use xlink:href="#Ox6orZEd78_D_pad-14" x="143510" y="-110490"/><use xlink:href="#Ox6orZEd78_D_pad-14" x="143510" y="-113030"/><use xlink:href="#Ox6orZEd78_D_pad-14" x="143510" y="-115570"/><use xlink:href="#Ox6orZEd78_D_pad-14" x="143510" y="-118110"/><use xlink:href="#Ox6orZEd78_D_pad-13" x="180975" y="-104140"/><use xlink:href="#Ox6orZEd78_D_pad-14" x="180975" y="-106680"/><use xlink:href="#Ox6orZEd78_D_pad-14" x="180975" y="-109220"/><use xlink:href="#Ox6orZEd78_D_pad-14" x="180975" y="-111760"/><use xlink:href="#Ox6orZEd78_D_pad-14" x="180975" y="-114300"/><use xlink:href="#Ox6orZEd78_D_pad-14" x="180975" y="-116840"/><use xlink:href="#Ox6orZEd78_D_pad-14" x="180975" y="-119380"/><use xlink:href="#Ox6orZEd78_D_pad-14" x="180975" y="-121920"/><use xlink:href="#Ox6orZEd78_D_pad-14" x="180975" y="-124460"/><use xlink:href="#Ox6orZEd78_D_pad-14" x="180975" y="-127000"/><use xlink:href="#Ox6orZEd78_D_pad-15" x="168275" y="-126365"/><use xlink:href="#Ox6orZEd78_D_pad-16" x="168275" y="-125095"/><use xlink:href="#Ox6orZEd78_D_pad-16" x="169545" y="-126365"/><use xlink:href="#Ox6orZEd78_D_pad-16" x="169545" y="-125095"/><use xlink:href="#Ox6orZEd78_D_pad-16" x="170815" y="-126365"/><use xlink:href="#Ox6orZEd78_D_pad-16" x="170815" y="-125095"/><use xlink:href="#Ox6orZEd78_D_pad-16" x="172085" y="-126365"/><use xlink:href="#Ox6orZEd78_D_pad-16" x="172085" y="-125095"/><use xlink:href="#Ox6orZEd78_D_pad-16" x="173355" y="-126365"/><use xlink:href="#Ox6orZEd78_D_pad-16" x="173355" y="-125095"/><use xlink:href="#Ox6orZEd78_D_pad-17" x="149415" y="-124460"/><use xlink:href="#Ox6orZEd78_D_pad-17" x="151415" y="-124460"/><use xlink:href="#Ox6orZEd78_D_pad-18" x="174625" y="-94615"/><use xlink:href="#Ox6orZEd78_D_pad-18" x="181125" y="-94615"/><use xlink:href="#Ox6orZEd78_D_pad-18" x="174625" y="-99115"/><use xlink:href="#Ox6orZEd78_D_pad-18" x="181125" y="-99115"/><use xlink:href="#Ox6orZEd78_D_pad-13" x="158242" y="-127000"/><use xlink:href="#Ox6orZEd78_D_pad-14" x="158242" y="-124460"/><use xlink:href="#Ox6orZEd78_D_pad-14" x="160782" y="-127000"/><use xlink:href="#Ox6orZEd78_D_pad-14" x="160782" y="-124460"/><use xlink:href="#Ox6orZEd78_D_pad-14" x="163322" y="-127000"/><use xlink:href="#Ox6orZEd78_D_pad-14" x="163322" y="-124460"/><use xlink:href="#Ox6orZEd78_D_pad-19" x="153670" y="-106391"/><use xlink:href="#Ox6orZEd78_D_pad-19" x="153670" y="-108341"/><use xlink:href="#Ox6orZEd78_D_pad-19" x="153670" y="-110341"/><use xlink:href="#Ox6orZEd78_D_pad-19" x="153670" y="-112395"/><use xlink:href="#Ox6orZEd78_D_pad-19" x="153670" y="-114391"/><use xlink:href="#Ox6orZEd78_D_pad-19" x="153670" y="-116391"/><use xlink:href="#Ox6orZEd78_D_pad-19" x="170670" y="-119291"/><use xlink:href="#Ox6orZEd78_D_pad-19" x="170670" y="-117541"/><use xlink:href="#Ox6orZEd78_D_pad-19" x="170670" y="-115791"/><use xlink:href="#Ox6orZEd78_D_pad-19" x="170670" y="-114041"/><use xlink:href="#Ox6orZEd78_D_pad-19" x="170670" y="-112291"/><use xlink:href="#Ox6orZEd78_D_pad-19" x="170670" y="-110491"/><use xlink:href="#Ox6orZEd78_D_pad-19" x="170670" y="-108741"/><use xlink:href="#Ox6orZEd78_D_pad-19" x="170670" y="-106991"/><use xlink:href="#Ox6orZEd78_D_pad-19" x="170670" y="-105241"/><use xlink:href="#Ox6orZEd78_D_pad-19" x="170670" y="-103491"/><use xlink:href="#Ox6orZEd78_D_pad-13" x="143535" y="-124480"/><use xlink:href="#Ox6orZEd78_D_pad-14" x="143535" y="-127020"/></g><g id="meIVi-bIt301_top_solderpaste"><use xlink:href="#fqIU4iZFmeS-_pad-10" x="148590" y="-107720"/><use xlink:href="#fqIU4iZFmeS-_pad-10" x="148590" y="-110720"/><use xlink:href="#fqIU4iZFmeS-_pad-11" x="148590" y="-116607.5"/><use xlink:href="#fqIU4iZFmeS-_pad-11" x="148590" y="-114532.5"/><use xlink:href="#fqIU4iZFmeS-_pad-12" x="149390" y="-127000"/><use xlink:href="#fqIU4iZFmeS-_pad-12" x="151440" y="-127000"/><use xlink:href="#fqIU4iZFmeS-_pad-13" x="149415" y="-124460"/><use xlink:href="#fqIU4iZFmeS-_pad-13" x="151415" y="-124460"/><use xlink:href="#fqIU4iZFmeS-_pad-14" x="153670" y="-106391"/><use xlink:href="#fqIU4iZFmeS-_pad-14" x="153670" y="-108341"/><use xlink:href="#fqIU4iZFmeS-_pad-14" x="153670" y="-110341"/><use xlink:href="#fqIU4iZFmeS-_pad-14" x="153670" y="-112395"/><use xlink:href="#fqIU4iZFmeS-_pad-14" x="153670" y="-114391"/><use xlink:href="#fqIU4iZFmeS-_pad-14" x="153670" y="-116391"/><use xlink:href="#fqIU4iZFmeS-_pad-14" x="170670" y="-119291"/><use xlink:href="#fqIU4iZFmeS-_pad-14" x="170670" y="-117541"/><use xlink:href="#fqIU4iZFmeS-_pad-14" x="170670" y="-115791"/><use xlink:href="#fqIU4iZFmeS-_pad-14" x="170670" y="-114041"/><use xlink:href="#fqIU4iZFmeS-_pad-14" x="170670" y="-112291"/><use xlink:href="#fqIU4iZFmeS-_pad-14" x="170670" y="-110491"/><use xlink:href="#fqIU4iZFmeS-_pad-14" x="170670" y="-108741"/><use xlink:href="#fqIU4iZFmeS-_pad-14" x="170670" y="-106991"/><use xlink:href="#fqIU4iZFmeS-_pad-14" x="170670" y="-105241"/><use xlink:href="#fqIU4iZFmeS-_pad-14" x="170670" y="-103491"/></g><g id="meIVi-bIt301_top_silkscreen"><path d="M 151649.58 -109386.666 151697.2 -109434.285 151744.819 -109577.142 151744.819 -109672.38 151697.2 -109815.237 151601.961 -109910.475 151506.723 -109958.094 151316.247 -110005.713 151173.39 -110005.713 150982.914 -109958.094 150887.676 -109910.475 150792.438 -109815.237 150744.819 -109672.38 150744.819 -109577.142 150792.438 -109434.285 150840.057 -109386.666 M 151744.819 -108434.285 151744.819 -109005.713 M 151744.819 -108719.999 150744.819 -108719.999 150887.676 -108815.237 150982.914 -108910.475 151030.533 -109005.713 M 147269.58 -115736.666 147317.2 -115784.285 147364.819 -115927.142 147364.819 -116022.38 147317.2 -116165.237 147221.961 -116260.475 147126.723 -116308.094 146936.247 -116355.713 146793.39 -116355.713 146602.914 -116308.094 146507.676 -116260.475 146412.438 -116165.237 146364.819 -116022.38 146364.819 -115927.142 146412.438 -115784.285 146460.057 -115736.666 M 146460.057 -115355.713 146412.438 -115308.094 146364.819 -115212.856 146364.819 -114974.761 146412.438 -114879.523 146460.057 -114831.904 146555.295 -114784.285 146650.533 -114784.285 146793.39 -114831.904 147364.819 -115403.332 147364.819 -114784.285 M 149676.905 -125804.819 149676.905 -124804.819 149915 -124804.819 150057.857 -124852.438 150153.095 -124947.676 150200.714 -125042.914 150248.333 -125233.39 150248.333 -125376.247 150200.714 -125566.723 150153.095 -125661.961 150057.857 -125757.2 149915 -125804.819 149676.905 -125804.819 M 151200.714 -125804.819 150629.286 -125804.819 M 150915 -125804.819 150915 -124804.819 150819.762 -124947.676 150724.524 -125042.914 150629.286 -125090.533 M 143176.666 -102534.819 143176.666 -103249.104 143129.047 -103391.961 143033.809 -103487.2 142890.952 -103534.819 142795.714 -103534.819 M 144176.666 -103534.819 143605.238 -103534.819 M 143890.952 -103534.819 143890.952 -102534.819 143795.714 -102677.676 143700.476 -102772.914 143605.238 -102820.533 M 180641.666 -101264.819 180641.666 -101979.104 180594.047 -102121.961 180498.809 -102217.2 180355.952 -102264.819 180260.714 -102264.819 M 181070.238 -101360.057 181117.857 -101312.438 181213.095 -101264.819 181451.19 -101264.819 181546.428 -101312.438 181594.047 -101360.057 181641.666 -101455.295 181641.666 -101550.533 181594.047 -101693.39 181022.619 -102264.819 181641.666 -102264.819 M 166034.819 -126063.333 166749.104 -126063.333 166891.961 -126110.952 166987.2 -126206.19 167034.819 -126349.047 167034.819 -126444.285 M 166368.152 -125158.571 167034.819 -125158.571 M 165987.2 -125396.666 166701.485 -125634.761 166701.485 -125015.714 M 150248.333 -123264.819 149915 -122788.628 M 149676.905 -123264.819 149676.905 -122264.819 150057.857 -122264.819 150153.095 -122312.438 150200.714 -122360.057 150248.333 -122455.295 150248.333 -122598.152 150200.714 -122693.39 150153.095 -122741.009 150057.857 -122788.628 149676.905 -122788.628 M 151200.714 -123264.819 150629.286 -123264.819 M 150915 -123264.819 150915 -122264.819 150819.762 -122407.676 150724.524 -122502.914 150629.286 -122550.533 M 176517.467 -97282.8 176660.324 -97330.419 176898.419 -97330.419 176993.657 -97282.8 177041.276 -97235.18 177088.895 -97139.942 177088.895 -97044.704 177041.276 -96949.466 176993.657 -96901.847 176898.419 -96854.228 176707.943 -96806.609 176612.705 -96758.99 176565.086 -96711.371 176517.467 -96616.133 176517.467 -96520.895 176565.086 -96425.657 176612.705 -96378.038 176707.943 -96330.419 176946.038 -96330.419 177088.895 -96378.038 M 177422.229 -96330.419 177660.324 -97330.419 177850.8 -96616.133 178041.276 -97330.419 178279.372 -96330.419 M 179184.133 -97330.419 178612.705 -97330.419 M 178898.419 -97330.419 178898.419 -96330.419 178803.181 -96473.276 178707.943 -96568.514 178612.705 -96616.133 M 155366.819 -126063.333 156081.104 -126063.333 156223.961 -126110.952 156319.2 -126206.19 156366.819 -126349.047 156366.819 -126444.285 M 155366.819 -125110.952 155366.819 -125587.142 155843.009 -125634.761 155795.39 -125587.142 155747.771 -125491.904 155747.771 -125253.809 155795.39 -125158.571 155843.009 -125110.952 155938.247 -125063.333 156176.342 -125063.333 156271.58 -125110.952 156319.2 -125158.571 156366.819 -125253.809 156366.819 -125491.904 156319.2 -125587.142 156271.58 -125634.761 M 158796.095 -118451.819 158796.095 -119261.342 158843.714 -119356.58 158891.333 -119404.2 158986.571 -119451.819 159177.047 -119451.819 159272.285 -119404.2 159319.904 -119356.58 159367.523 -119261.342 159367.523 -118451.819 M 160367.523 -119451.819 159796.095 -119451.819 M 160081.809 -119451.819 160081.809 -118451.819 159986.571 -118594.676 159891.333 -118689.914 159796.095 -118737.533 M 143201.666 -121604.819 143201.666 -122319.104 143154.047 -122461.961 143058.809 -122557.2 142915.952 -122604.819 142820.714 -122604.819 M 143582.619 -121604.819 144201.666 -121604.819 143868.333 -121985.771 144011.19 -121985.771 144106.428 -122033.39 144154.047 -122081.009 144201.666 -122176.247 144201.666 -122414.342 144154.047 -122509.58 144106.428 -122557.2 144011.19 -122604.819 143725.476 -122604.819 143630.238 -122557.2 143582.619 -122509.58" fill="none" stroke-width="150"/><path d="M 146830 -108349.437 146830 -110980 147530 -110980 M 147530 -107649.437 146830 -108349.437 M 149650 -107649.437 150350 -108349.437 M 150025 -106845 150025 -107220 M 150212.5 -107032.5 149837.5 -107032.5 M 150350 -108349.437 150350 -110980 149650 -110980 M 147855 -115831.252 147855 -115308.748 M 149325 -115831.252 149325 -115308.748 M 148555 -126040 148555 -127960 151415 -127960 M 151415 -126040 148555 -126040 M 142180 -104080 143510 -104080 M 142180 -105410 142180 -104080 M 142180 -106680 142180 -119440 M 142180 -106680 144840 -106680 M 142180 -119440 144840 -119440 M 144840 -106680 144840 -119440 M 179645 -102810 180975 -102810 M 179645 -104140 179645 -102810 M 179645 -105410 179645 -128330 M 179645 -105410 182305 -105410 M 179645 -128330 182305 -128330 M 182305 -105410 182305 -128330 M 167515 -127495 167515 -126365 M 167580 -123965 174050 -123965 M 167580 -124787.47 167580 -123965 M 167580 -125605 167580 -125402.53 M 167711.529 -125605 167580 -125605 M 168275 -127495 167515 -127495 M 168981.529 -125605 168838.471 -125605 M 169035 -125801.529 169035 -125658.471 M 169035 -127495 169035 -126928.471 M 169035 -127495 174050 -127495 M 174050 -124787.47 174050 -123965 M 174050 -126057.47 174050 -125402.53 M 174050 -127495 174050 -126672.53 M 150187.936 -123725 150642.064 -123725 M 150187.936 -125195 150642.064 -125195 M 174375 -96115 174375 -97615 M 175625 -100115 180125 -100115 M 180125 -93615 175625 -93615 M 181375 -97615 181375 -96115 M 156912 -123130 164652 -123130 M 156912 -125730 156912 -123130 M 156912 -128330 156912 -127000 M 158242 -128330 156912 -128330 M 159512 -125730 156912 -125730 M 159512 -128330 159512 -125730 M 159512 -128330 164652 -128330 164652 -123130" fill="none" stroke-width="120"/><path d="M 152670 -96391 166670 -96391 M 152670 -100391 152670 -96391 M 153670 -105391 156670 -105391 M 153670 -117391 153670 -105391 M 156670 -100391 152670 -100391 M 156670 -105391 156670 -100391 M 156670 -117391 153670 -117391 M 156670 -120391 156670 -117391" fill="none" stroke-width="100"/><path d="M 157272 -103503 169210 -103503 M 157272 -119759 157272 -103503" fill="none" stroke-width="150"/><path d="M 166670 -96391 166670 -102391 170670 -102391" fill="none" stroke-width="100"/><path d="M 169210 -103503 169210 -119759 157272 -119759" fill="none" stroke-width="150"/><path d="M 170670 -102391 170670 -120391 156670 -120391" fill="none" stroke-width="100"/><path d="M 142205 -123150 143535 -123150 M 142205 -124480 142205 -123150 M 142205 -125750 142205 -128350 M 142205 -125750 144865 -125750 M 142205 -128350 144865 -128350 M 144865 -125750 144865 -128350" fill="none" stroke-width="120"/></g><g id="meIVi-bIt301_top_drill1"><use xlink:href="#WFtQSCbaLy9a_pad-1" x="165354" y="-126898"/><use xlink:href="#WFtQSCbaLy9a_pad-2" x="168275" y="-125095"/><use xlink:href="#WFtQSCbaLy9a_pad-2" x="168275" y="-126365"/><use xlink:href="#WFtQSCbaLy9a_pad-2" x="169545" y="-125095"/><use xlink:href="#WFtQSCbaLy9a_pad-2" x="169545" y="-126365"/><use xlink:href="#WFtQSCbaLy9a_pad-2" x="170815" y="-125095"/><use xlink:href="#WFtQSCbaLy9a_pad-2" x="170815" y="-126365"/><use xlink:href="#WFtQSCbaLy9a_pad-2" x="172085" y="-125095"/><use xlink:href="#WFtQSCbaLy9a_pad-2" x="172085" y="-126365"/><use xlink:href="#WFtQSCbaLy9a_pad-2" x="173355" y="-125095"/><use xlink:href="#WFtQSCbaLy9a_pad-2" x="173355" y="-126365"/><use xlink:href="#WFtQSCbaLy9a_pad-3" x="143510" y="-105410"/><use xlink:href="#WFtQSCbaLy9a_pad-3" x="143510" y="-107950"/><use xlink:href="#WFtQSCbaLy9a_pad-3" x="143510" y="-110490"/><use xlink:href="#WFtQSCbaLy9a_pad-3" x="143510" y="-113030"/><use xlink:href="#WFtQSCbaLy9a_pad-3" x="143510" y="-115570"/><use xlink:href="#WFtQSCbaLy9a_pad-3" x="143510" y="-118110"/><use xlink:href="#WFtQSCbaLy9a_pad-3" x="143535" y="-124480"/><use xlink:href="#WFtQSCbaLy9a_pad-3" x="143535" y="-127020"/><use xlink:href="#WFtQSCbaLy9a_pad-3" x="158242" y="-124460"/><use xlink:href="#WFtQSCbaLy9a_pad-3" x="158242" y="-127000"/><use xlink:href="#WFtQSCbaLy9a_pad-3" x="160782" y="-124460"/><use xlink:href="#WFtQSCbaLy9a_pad-3" x="160782" y="-127000"/><use xlink:href="#WFtQSCbaLy9a_pad-3" x="163322" y="-124460"/><use xlink:href="#WFtQSCbaLy9a_pad-3" x="163322" y="-127000"/><use xlink:href="#WFtQSCbaLy9a_pad-3" x="180975" y="-104140"/><use xlink:href="#WFtQSCbaLy9a_pad-3" x="180975" y="-106680"/><use xlink:href="#WFtQSCbaLy9a_pad-3" x="180975" y="-109220"/><use xlink:href="#WFtQSCbaLy9a_pad-3" x="180975" y="-111760"/><use xlink:href="#WFtQSCbaLy9a_pad-3" x="180975" y="-114300"/><use xlink:href="#WFtQSCbaLy9a_pad-3" x="180975" y="-116840"/><use xlink:href="#WFtQSCbaLy9a_pad-3" x="180975" y="-119380"/><use xlink:href="#WFtQSCbaLy9a_pad-3" x="180975" y="-121920"/><use xlink:href="#WFtQSCbaLy9a_pad-3" x="180975" y="-124460"/><use xlink:href="#WFtQSCbaLy9a_pad-3" x="180975" y="-127000"/><use xlink:href="#WFtQSCbaLy9a_pad-4" x="174625" y="-94615"/><use xlink:href="#WFtQSCbaLy9a_pad-4" x="174625" y="-99115"/><use xlink:href="#WFtQSCbaLy9a_pad-4" x="181125" y="-94615"/><use xlink:href="#WFtQSCbaLy9a_pad-4" x="181125" y="-99115"/></g><clipPath id="meIVi-bIt301_top_outline"><path d="M 140970 -129540 183515 -129540 183515 -92710 140970 -92710 140970 -129540" fill="none" stroke-width="200"/></clipPath><mask id="meIVi-bIt301_top_mech-mask"><g fill="#000" stroke="#000"><rect x="140970" y="-129540" width="42545" height="36830" fill="#fff"/><use xlink:href="#meIVi-bIt301_top_drill1"/></g></mask><mask id="meIVi-bIt301_top_cf-mask"><g fill="#fff" stroke="#fff"><use xlink:href="#meIVi-bIt301_top_soldermask"/></g></mask><mask id="meIVi-bIt301_top_sm-mask"><g fill="#000" stroke="#000"><rect x="140970" y="-129540" width="42545" height="36830" fill="#fff"/><use xlink:href="#meIVi-bIt301_top_soldermask"/></g></mask></defs><g transform="translate(0,-222250) scale(1,-1)"><g mask="url(#meIVi-bIt301_top_mech-mask)" clip-path="url(#meIVi-bIt301_top_outline)"><rect x="140970" y="-129540" width="42545" height="36830" fill="currentColor" class="meIVi-bIt301_fr4"/><use xlink:href="#meIVi-bIt301_top_copper" fill="currentColor" stroke="currentColor" class="meIVi-bIt301_cu"/><use xlink:href="#meIVi-bIt301_top_copper" fill="currentColor" stroke="currentColor" class="meIVi-bIt301_cf" mask="url(#meIVi-bIt301_top_cf-mask)"/><g mask="url(#meIVi-bIt301_top_sm-mask)"><rect x="140970" y="-129540" width="42545" height="36830" fill="currentColor" class="meIVi-bIt301_sm"/><use xlink:href="#meIVi-bIt301_top_silkscreen" fill="currentColor" stroke="currentColor" class="meIVi-bIt301_ss"/></g><use xlink:href="#meIVi-bIt301_top_solderpaste" fill="currentColor" stroke="currentColor" class="meIVi-bIt301_sp"/></g></g></svg>