<svg version="1.1" xmlns="http://www.w3.org/2000/svg" xmlns:xlink="http://www.w3.org/1999/xlink" stroke-linecap="round" stroke-linejoin="round" stroke-width="0" fill-rule="evenodd" clip-rule="evenodd" id="meIVi-bIt301_bottom" viewBox="140970 -129540 42545 36830" width="42.545mm" height="36.83mm"><defs><style>.meIVi-bIt301_fr4 {color: #666666;}
.meIVi-bIt301_cu {color: #cccccc;}
.meIVi-bIt301_cf {color: #cc9933;}
.meIVi-bIt301_sm {color: #004200; opacity: 0.7490196078431373;}
.meIVi-bIt301_ss {color: #ffffff;}
.meIVi-bIt301_sp {color: #999999;}
.meIVi-bIt301_out {color: #000000;}</style><rect x="-850" y="-850" width="1700" height="1700" id="N7iR91ORrRlL_pad-10"/><rect x="-850" y="-850" width="1700" height="1700" rx="850" ry="850" id="N7iR91ORrRlL_pad-11"/><rect x="-500" y="-500" width="1000" height="1000" id="N7iR91ORrRlL_pad-12"/><rect x="-500" y="-500" width="1000" height="1000" rx="500" ry="500" id="N7iR91ORrRlL_pad-13"/><circle cx="0" cy="0" r="1000" id="N7iR91ORrRlL_pad-14"/><circle cx="0" cy="0" r="400" id="N7iR91ORrRlL_pad-15"/><rect x="-850" y="-850" width="1700" height="1700" id="U9G2O1QZhphq_pad-10"/><rect x="-850" y="-850" width="1700" height="1700" rx="850" ry="850" id="U9G2O1QZhphq_pad-11"/><rect x="-500" y="-500" width="1000" height="1000" id="U9G2O1QZhphq_pad-12"/><rect x="-500" y="-500" width="1000" height="1000" rx="500" ry="500" id="U9G2O1QZhphq_pad-13"/><circle cx="0" cy="0" r="1000" id="U9G2O1QZhphq_pad-14"/><circle cx="0" cy="0" r="200" id="WFtQSCbaLy9a_pad-1"/><circle cx="0" cy="0" r="325" id="WFtQSCbaLy9a_pad-2"/><circle cx="0" cy="0" r="500" id="WFtQSCbaLy9a_pad-3"/><circle cx="0" cy="0" r="550" id="WFtQSCbaLy9a_pad-4"/><g id="meIVi-bIt301_bottom_copper"><use xlink:href="#N7iR91ORrRlL_pad-10" x="143510" y="-105410"/><use xlink:href="#N7iR91ORrRlL_pad-11" x="143510" y="-107950"/><use xlink:href="#N7iR91ORrRlL_pad-11" x="143510" y="-110490"/><use xlink:href="#N7iR91ORrRlL_pad-11" x="143510" y="-113030"/><use xlink:href="#N7iR91ORrRlL_pad-11" x="143510" y="-115570"/><use xlink:href="#N7iR91ORrRlL_pad-11" x="143510" y="-118110"/><use xlink:href="#N7iR91ORrRlL_pad-10" x="180975" y="-104140"/><use xlink:href="#N7iR91ORrRlL_pad-11" x="180975" y="-106680"/><use xlink:href="#N7iR91ORrRlL_pad-11" x="180975" y="-109220"/><use xlink:href="#N7iR91ORrRlL_pad-11" x="180975" y="-111760"/><use xlink:href="#N7iR91ORrRlL_pad-11" x="180975" y="-114300"/><use xlink:href="#N7iR91ORrRlL_pad-11" x="180975" y="-116840"/><use xlink:href="#N7iR91ORrRlL_pad-11" x="180975" y="-119380"/><use xlink:href="#N7iR91ORrRlL_pad-11" x="180975" y="-121920"/><use xlink:href="#N7iR91ORrRlL_pad-11" x="180975" y="-124460"/><use xlink:href="#N7iR91ORrRlL_pad-11" x="180975" y="-127000"/><use xlink:href="#N7iR91ORrRlL_pad-12" x="168275" y="-126365"/><use xlink:href="#N7iR91ORrRlL_pad-13" x="168275" y="-125095"/><use xlink:href="#N7iR91ORrRlL_pad-13" x="169545" y="-126365"/><use xlink:href="#N7iR91ORrRlL_pad-13" x="169545" y="-125095"/><use xlink:href="#N7iR91ORrRlL_pad-13" x="170815" y="-126365"/><use xlink:href="#N7iR91ORrRlL_pad-13" x="170815" y="-125095"/><use xlink:href="#N7iR91ORrRlL_pad-13" x="172085" y="-126365"/><use xlink:href="#N7iR91ORrRlL_pad-13" x="172085" y="-125095"/><use xlink:href="#N7iR91ORrRlL_pad-13" x="173355" y="-126365"/><use xlink:href="#N7iR91ORrRlL_pad-13" x="173355" y="-125095"/><use xlink:href="#N7iR91ORrRlL_pad-14" x="174625" y="-94615"/><use xlink:href="#N7iR91ORrRlL_pad-14" x="181125" y="-94615"/><use xlink:href="#N7iR91ORrRlL_pad-14" x="174625" y="-99115"/><use xlink:href="#N7iR91ORrRlL_pad-14" x="181125" y="-99115"/><use xlink:href="#N7iR91ORrRlL_pad-10" x="158242" y="-127000"/><use xlink:href="#N7iR91ORrRlL_pad-11" x="158242" y="-124460"/><use xlink:href="#N7iR91ORrRlL_pad-11" x="160782" y="-127000"/><use xlink:href="#N7iR91ORrRlL_pad-11" x="160782" y="-124460"/><use xlink:href="#N7iR91ORrRlL_pad-11" x="163322" y="-127000"/><use xlink:href="#N7iR91ORrRlL_pad-11" x="163322" y="-124460"/><use xlink:href="#N7iR91ORrRlL_pad-10" x="143535" y="-124480"/><use xlink:href="#N7iR91ORrRlL_pad-11" x="143535" y="-127020"/><use xlink:href="#N7iR91ORrRlL_pad-15" x="165354" y="-126898.4"/><path d="M 171649.4 -127199.4 170815 -126365 M 142334.7 -122109.4 142334.7 -116745.3 143510 -115570 M 173355 -126365 172520.6 -127199.4 M 143510 -123284.7 142334.7 -122109.4 M 143510 -124460 143510 -123284.7 M 172520.6 -127199.4 171649.4 -127199.4 M 165639.4 -128175.3 160782 -128175.3 M 159417.3 -128175.3 158242 -127000 M 144881.6 -120656.9 144685.3 -120460.6 143510 -119285.3 M 167449.7 -126365 165639.4 -128175.3 M 143510 -118110 143510 -119285.3 M 168275 -126365 167449.7 -126365 M 144881.6 -125673.4 144881.6 -120656.9 M 160782 -128175.3 160098.2 -128175.3 M 143535 -127020 144710 -125845 M 143535 -127020 144881.6 -125673.4 M 160782 -128175.3 159417.3 -128175.3 M 166216.5 -125095 165581.5 -125730 M 168275 -125095 166216.5 -125095 M 168275 -124460 168275 -125095 M 180975 -111760 168275 -124460 M 165581.5 -125730 159512 -125730 158242 -124460 M 180340 -114300 169545 -125095 M 180975 -114300 180340 -114300 M 170815 -125095 180335 -115575 M 182150.3 -110395.3 180975 -109220 M 180335 -115575 181364.3 -115575 182150.3 -114789 182150.3 -110395.3 M 180975 -104140 182600.3 -105765.3 M 182600.3 -117119.7 181610 -118110 M 182600.3 -105765.3 182600.3 -117119.7 M 180975 -104114.6 182575.2 -102514.4 M 180975 -104140 180975 -104114.6 M 182575.2 -96065.2 182575.2 -102514.4 M 180340 -118110 173355 -125095 M 182490.1 -95980.1 181125 -94615 182575.2 -96065.2 M 181610 -118110 180340 -118110" fill="none" stroke-width="250"/><path d="M 149802.121 -92984.002 149848.614 -93037.658 149860 -93090 149860 -101854 169418 -101854 169418 -99115 173112.337 -99115 173130.96 -99351.632 173186.371 -99582.437 173277.206 -99801.733 173391.897 -99988.891 174100.016 -99280.771 174112.482 -99327.292 174184.89 -99452.708 174287.292 -99555.11 174412.708 -99627.518 174459.226 -99639.982 173751.107 -100348.101 173751.107 -100348.102 173938.261 -100462.791 174157.562 -100553.628 174388.367 -100609.039 174625 -100627.662 174861.632 -100609.039 175092.437 -100553.628 175311.738 -100462.791 175498.891 -100348.102 175498.892 -100348.101 174790.773 -99639.982 174837.292 -99627.518 174962.708 -99555.11 175065.11 -99452.708 175137.518 -99327.292 175149.982 -99280.773 175858.101 -99988.892 175858.102 -99988.891 175972.791 -99801.738 176063.628 -99582.437 176119.039 -99351.632 176137.662 -99115 176119.039 -98878.367 176063.628 -98647.562 175972.791 -98428.261 175858.102 -98241.107 175858.101 -98241.107 175149.982 -98949.226 175137.518 -98902.708 175065.11 -98777.292 174962.708 -98674.89 174837.292 -98602.482 174790.772 -98590.017 175498.891 -97881.897 175311.733 -97767.206 175092.437 -97676.371 174861.632 -97620.96 174625 -97602.337 174388.367 -97620.96 174157.562 -97676.371 173938.262 -97767.208 173751.107 -97881.896 173751.107 -97881.898 174459.226 -98590.017 174412.708 -98602.482 174287.292 -98674.89 174184.89 -98777.292 174112.482 -98902.708 174100.017 -98949.226 173391.898 -98241.107 173391.896 -98241.107 173277.208 -98428.262 173186.371 -98647.562 173130.96 -98878.367 173112.337 -99115 169418 -99115 169418 -93090 169438.002 -93021.879 169491.658 -92975.386 169544 -92964 174035.521 -92964 174103.642 -92984.002 174150.135 -93037.658 174160.239 -93107.932 174130.745 -93172.512 174083.74 -93206.408 174030.628 -93228.407 173938.038 -93266.759 173735.582 -93390.825 173735.58 -93390.826 173555.03 -93545.03 173400.826 -93725.58 173400.825 -93725.582 173276.759 -93928.038 173185.894 -94147.407 173130.465 -94378.289 173111.835 -94615 173130.465 -94851.71 173185.894 -95082.592 173276.759 -95301.961 173400.825 -95504.417 173400.826 -95504.419 173555.03 -95684.969 173735.58 -95839.173 173735.584 -95839.176 173938.037 -95963.24 174157.406 -96054.105 174388.289 -96109.535 174625 -96128.165 174861.711 -96109.535 175092.594 -96054.105 175311.963 -95963.24 175514.416 -95839.176 175694.969 -95684.969 175849.176 -95504.416 175973.24 -95301.963 176064.105 -95082.594 176119.535 -94851.711 176138.165 -94615 176119.535 -94378.289 176064.105 -94147.406 175973.24 -93928.037 175849.176 -93725.584 175849.173 -93725.58 175694.969 -93545.03 175514.419 -93390.826 175514.417 -93390.825 175514.416 -93390.824 175311.963 -93266.76 175166.26 -93206.408 175110.98 -93161.861 175088.559 -93094.497 175106.117 -93025.706 175158.079 -92977.328 175214.479 -92964 180535.521 -92964 180603.642 -92984.002 180650.135 -93037.658 180660.239 -93107.932 180630.745 -93172.512 180583.74 -93206.408 180530.628 -93228.407 180438.038 -93266.759 180235.582 -93390.825 180235.58 -93390.826 180055.03 -93545.03 179900.826 -93725.58 179900.825 -93725.582 179776.759 -93928.038 179685.894 -94147.407 179630.465 -94378.289 179611.835 -94615 179630.465 -94851.71 179685.894 -95082.592 179776.759 -95301.961 179900.825 -95504.417 179900.826 -95504.419 180055.03 -95684.969 180235.58 -95839.173 180235.584 -95839.176 180438.037 -95963.24 180657.406 -96054.105 180888.289 -96109.535 181125 -96128.165 181361.711 -96109.535 181584.95 -96055.94 181655.857 -96059.487 181703.458 -96089.363 181904.795 -96290.699 181938.82 -96353.011 181941.7 -96379.795 181941.7 -97632.468 181921.698 -97700.589 181868.042 -97747.082 181797.768 -97757.186 181767.482 -97748.877 181592.437 -97676.371 181361.632 -97620.96 181125 -97602.337 180888.367 -97620.96 180657.562 -97676.371 180438.262 -97767.208 180251.107 -97881.896 180251.107 -97881.898 180959.226 -98590.017 180912.708 -98602.482 180787.292 -98674.89 180684.89 -98777.292 180612.482 -98902.708 180600.017 -98949.226 179891.898 -98241.107 179891.896 -98241.107 179777.208 -98428.262 179686.371 -98647.562 179630.96 -98878.367 179612.337 -99115 179630.96 -99351.632 179686.371 -99582.437 179777.206 -99801.733 179891.897 -99988.891 180600.016 -99280.771 180612.482 -99327.292 180684.89 -99452.708 180787.292 -99555.11 180912.708 -99627.518 180959.225 -99639.982 180251.107 -100348.1 180251.107 -100348.102 180438.261 -100462.791 180657.562 -100553.628 180888.367 -100609.039 181125 -100627.662 181361.632 -100609.039 181592.436 -100553.628 181767.482 -100481.122 181838.072 -100473.533 181901.559 -100505.312 181937.786 -100566.37 181941.7 -100597.531 181941.7 -102199.805 181921.698 -102267.926 181904.795 -102288.9 181449.1 -102744.595 181386.788 -102778.621 181360.005 -102781.5 180076.35 -102781.5 180015.803 -102788.009 180015.795 -102788.011 179878.797 -102839.11 179878.792 -102839.112 179761.738 -102926.738 179674.112 -103043.792 179674.11 -103043.797 179623.011 -103180.795 179623.009 -103180.803 179616.5 -103241.35 179616.5 -105038.649 179623.009 -105099.196 179623.011 -105099.204 179674.11 -105236.202 179674.112 -105236.207 179761.738 -105353.261 179878.791 -105440.886 179878.792 -105440.886 179878.796 -105440.889 179993.81 -105483.787 180050.642 -105526.332 180075.453 -105592.852 180060.362 -105662.226 180042.475 -105687.179 179899.28 -105842.729 179899.275 -105842.734 179776.141 -106031.206 179685.703 -106237.386 179685.702 -106237.387 179630.437 -106455.624 179630.436 -106455.63 179630.436 -106455.632 179611.844 -106680 179619.177 -106768.5 179630.437 -106904.375 179685.702 -107122.612 179685.703 -107122.613 179776.141 -107328.793 179899.275 -107517.265 179899.279 -107517.27 180051.762 -107682.908 180106.331 -107725.381 180229.424 -107821.189 180262.68 -107839.186 180313.071 -107889.2 180328.423 -107958.516 180303.862 -108025.129 180262.68 -108060.814 180229.426 -108078.81 180229.424 -108078.811 180051.762 -108217.091 179899.279 -108382.729 179899.275 -108382.734 179776.141 -108571.206 179685.703 -108777.386 179685.702 -108777.387 179630.437 -108995.624 179630.436 -108995.63 179630.436 -108995.632 179611.844 -109220 179622.517 -109348.807 179630.437 -109444.375 179685.702 -109662.612 179685.703 -109662.613 179776.141 -109868.793 179899.275 -110057.265 179899.279 -110057.27 180051.762 -110222.908 180106.331 -110265.381 180229.424 -110361.189 180262.68 -110379.186 180313.071 -110429.2 180328.423 -110498.516 180303.862 -110565.129 180262.68 -110600.814 180229.426 -110618.81 180229.424 -110618.811 180051.762 -110757.091 179899.279 -110922.729 179899.275 -110922.734 179776.141 -111111.206 179685.703 -111317.386 179685.702 -111317.387 179630.437 -111535.624 179630.436 -111535.63 179630.436 -111535.632 179616.882 -111699.2 179611.844 -111760 179630.436 -111984.371 179658.182 -112093.937 179655.514 -112164.883 179625.132 -112213.962 167871.167 -123967.929 167782.931 -124056.164 167782.926 -124056.171 167713.599 -124159.925 167713.597 -124159.93 167668.468 -124268.879 167631.995 -124318.058 167558.43 -124378.432 167528.067 -124415.432 167469.391 -124455.402 167430.667 -124461.5 166154.1 -124461.5 166031.717 -124485.844 166031.709 -124485.846 165997.947 -124499.83 165997.947 -124499.831 165916.425 -124533.599 165812.667 -124602.927 165356.001 -125059.595 165293.688 -125093.62 165266.905 -125096.5 164719.108 -125096.5 164650.987 -125076.498 164604.494 -125022.842 164594.39 -124952.568 164603.721 -124919.886 164605.964 -124914.769 164611.296 -124902.616 164666.564 -124684.368 164685.156 -124460 164666.564 -124235.632 164628.751 -124086.311 164611.297 -124017.387 164611.296 -124017.386 164611.296 -124017.384 164520.86 -123811.209 164514.14 -123800.924 164397.724 -123622.734 164397.72 -123622.729 164245.237 -123457.091 164151.375 -123384.035 164067.576 -123318.811 163869.574 -123211.658 163869.572 -123211.657 163869.571 -123211.656 163656.639 -123138.557 163656.63 -123138.555 163596.402 -123128.505 163434.569 -123101.5 163209.431 -123101.5 163061.211 -123126.233 162987.369 -123138.555 162987.36 -123138.557 162774.428 -123211.656 162774.426 -123211.658 162576.432 -123318.807 162576.426 -123318.81 162576.424 -123318.811 162398.762 -123457.091 162246.279 -123622.729 162157.483 -123758.643 162103.479 -123804.731 162033.131 -123814.306 161968.774 -123784.329 161946.517 -123758.643 161857.72 -123622.729 161705.237 -123457.091 161611.375 -123384.035 161527.576 -123318.811 161329.574 -123211.658 161329.572 -123211.657 161329.571 -123211.656 161116.639 -123138.557 161116.63 -123138.555 161056.402 -123128.505 160894.569 -123101.5 160669.431 -123101.5 160521.211 -123126.233 160447.369 -123138.555 160447.36 -123138.557 160234.428 -123211.656 160234.426 -123211.658 160036.432 -123318.807 160036.426 -123318.81 160036.424 -123318.811 159858.762 -123457.091 159706.279 -123622.729 159617.483 -123758.643 159563.479 -123804.731 159493.131 -123814.306 159428.774 -123784.329 159406.517 -123758.643 159317.72 -123622.729 159165.237 -123457.091 159071.375 -123384.035 158987.576 -123318.811 158789.574 -123211.658 158789.572 -123211.657 158789.571 -123211.656 158576.639 -123138.557 158576.63 -123138.555 158516.402 -123128.505 158354.569 -123101.5 158129.431 -123101.5 157981.211 -123126.233 157907.369 -123138.555 157907.36 -123138.557 157694.428 -123211.656 157694.426 -123211.658 157496.432 -123318.807 157496.426 -123318.81 157496.424 -123318.811 157318.762 -123457.091 157166.279 -123622.729 157166.275 -123622.734 157043.141 -123811.206 156952.703 -124017.386 156952.702 -124017.387 156897.437 -124235.624 156897.436 -124235.63 156897.436 -124235.632 156878.844 -124460 156896.493 -124672.993 156897.437 -124684.375 156952.702 -124902.612 156952.703 -124902.613 156952.704 -124902.616 157037.091 -125095 157043.141 -125108.793 157166.275 -125297.265 157166.28 -125297.27 157309.475 -125452.82 157340.896 -125516.485 157332.909 -125587.031 157288.051 -125642.06 157260.807 -125656.213 157145.797 -125699.11 157145.792 -125699.112 157028.738 -125786.738 156941.112 -125903.792 156941.11 -125903.797 156890.011 -126040.795 156890.009 -126040.803 156883.5 -126101.35 156883.5 -127898.649 156890.009 -127959.196 156890.011 -127959.204 156941.11 -128096.202 156941.112 -128096.207 157028.738 -128213.261 157145.792 -128300.887 157145.794 -128300.888 157145.796 -128300.889 157199.6 -128320.957 157282.795 -128351.988 157282.803 -128351.99 157343.35 -128358.499 157343.355 -128358.499 157343.362 -128358.5 158652.406 -128358.5 158720.527 -128378.502 158741.501 -128395.405 159013.467 -128667.371 159117.225 -128736.7 159232.515 -128784.455 159354.906 -128808.8 159354.907 -128808.8 165701.793 -128808.8 165701.794 -128808.8 165824.185 -128784.455 165939.475 -128736.7 166043.233 -128667.371 167375.376 -127335.226 167437.685 -127301.204 167508.5 -127306.268 167524.848 -127313.734 167528.793 -127315.888 167665.795 -127366.988 167665.803 -127366.99 167726.35 -127373.499 167726.355 -127373.499 167726.362 -127373.5 167726.368 -127373.5 168823.632 -127373.5 168823.638 -127373.5 168823.645 -127373.499 168823.649 -127373.499 168884.196 -127366.99 168884.197 -127366.989 168884.201 -127366.989 169021.204 -127315.889 169025.518 -127312.658 169092.035 -127287.845 169150.856 -127300.363 169151.667 -127298.406 169157.388 -127300.775 169291 -127341.305 169799 -127341.305 169932.611 -127300.775 170107.723 -127207.175 170109.994 -127205.659 170111.365 -127205.229 170113.183 -127204.258 170113.367 -127204.602 170177.746 -127184.441 170246.213 -127203.221 170250.006 -127205.659 170252.276 -127207.175 170427.388 -127300.775 170561 -127341.305 170561 -126619 169799 -126619 169799 -127341.305 169291 -127341.305 169291 -126570.618 169345.446 -126625.064 169419.555 -126667.851 169502.213 -126690 169587.787 -126690 169670.445 -126667.851 169744.554 -126625.064 169805.064 -126564.554 169847.851 -126490.445 169870 -126407.787 169870 -126322.213 169847.851 -126239.555 169805.064 -126165.446 169750.618 -126111 170609.382 -126111 170554.936 -126165.446 170512.149 -126239.555 170490 -126322.213 170490 -126407.787 170512.149 -126490.445 170554.936 -126564.554 170615.446 -126625.064 170689.555 -126667.851 170772.213 -126690 170857.787 -126690 170940.445 -126667.851 171014.554 -126625.064 171069 -126570.618 171069 -127341.305 171202.611 -127300.775 171377.716 -127207.179 171379.536 -127205.964 171380.635 -127205.619 171383.183 -127204.258 171383.441 -127204.74 171447.287 -127184.744 171515.755 -127203.522 171519.55 -127205.96 171521.989 -127207.589 171521.996 -127207.595 171697.196 -127301.241 171887.299 -127358.908 171887.303 -127358.908 171887.305 -127358.909 172084.997 -127378.38 172085 -127378.38 172085.003 -127378.38 172282.694 -127358.909 172282.695 -127358.908 172282.701 -127358.908 172472.804 -127301.241 172648.004 -127207.595 172648.014 -127207.585 172650.443 -127205.964 172651.921 -127205.5 172653.463 -127204.677 172653.619 -127204.969 172718.194 -127184.744 172786.663 -127203.522 172790.456 -127205.96 172792.274 -127207.175 172967.388 -127300.775 173101 -127341.305 173609 -127341.305 173742.611 -127300.775 173917.724 -127207.175 174071.211 -127081.211 174197.175 -126927.724 174290.775 -126752.612 174290.776 -126752.61 174331.307 -126619 173609 -126619 173609 -127341.305 173101 -127341.305 173101 -126570.618 173155.446 -126625.064 173229.555 -126667.851 173312.213 -126690 173397.787 -126690 173480.445 -126667.851 173554.554 -126625.064 173615.064 -126564.554 173657.851 -126490.445 173680 -126407.787 173680 -126322.213 173657.851 -126239.555 173615.064 -126165.446 173560.618 -126111 174331.307 -126111 174331.307 -126110.999 174290.776 -125977.389 174290.775 -125977.387 174197.175 -125802.274 174195.96 -125800.456 174195.616 -125799.357 174194.258 -125796.817 174194.739 -125796.559 174174.744 -125732.704 174193.526 -125664.236 174195.964 -125660.443 174197.585 -125658.014 174197.595 -125658.004 174291.241 -125482.804 174348.908 -125292.701 174367.022 -125108.793 174368.38 -125095.003 174368.38 -125095.001 174368.244 -125093.62 174363.687 -125047.362 174376.914 -124977.612 174399.982 -124945.92 179505.782 -119840.121 179568.092 -119806.097 179638.907 -119811.162 179695.743 -119853.709 179710.263 -119878.605 179776.141 -120028.793 179899.275 -120217.265 179899.279 -120217.27 180051.762 -120382.908 180106.331 -120425.381 180229.424 -120521.189 180262.68 -120539.186 180313.071 -120589.2 180328.423 -120658.516 180303.862 -120725.129 180262.68 -120760.813 180229.426 -120778.81 180229.424 -120778.811 180051.762 -120917.091 179899.279 -121082.729 179899.275 -121082.734 179776.141 -121271.206 179685.703 -121477.386 179685.702 -121477.387 179630.437 -121695.624 179611.844 -121920 179630.437 -122144.375 179685.702 -122362.612 179685.703 -122362.613 179776.141 -122568.793 179899.275 -122757.265 179899.279 -122757.27 180051.762 -122922.908 180106.331 -122965.381 180229.424 -123061.189 180262.68 -123079.186 180313.071 -123129.2 180328.423 -123198.516 180303.862 -123265.129 180262.68 -123300.813 180229.426 -123318.81 180229.424 -123318.811 180051.762 -123457.091 179899.279 -123622.729 179899.275 -123622.734 179776.141 -123811.206 179685.703 -124017.386 179685.702 -124017.387 179630.437 -124235.624 179630.436 -124235.63 179630.436 -124235.632 179611.844 -124460 179629.493 -124672.993 179630.437 -124684.375 179685.702 -124902.612 179685.703 -124902.613 179685.704 -124902.616 179770.091 -125095 179776.141 -125108.793 179899.275 -125297.265 179899.279 -125297.27 180051.762 -125462.908 180106.331 -125505.381 180229.424 -125601.189 180263.205 -125619.47 180313.596 -125669.482 180328.949 -125738.799 180304.389 -125805.412 180263.209 -125841.096 180229.704 -125859.228 180229.698 -125859.232 180052.097 -125997.465 179899.674 -126163.041 179776.58 -126351.451 179686.179 -126557.543 179686.176 -126557.55 179638.455 -126745.999 179638.456 -126746 180544.297 -126746 180509.075 -126807.007 180475 -126934.174 180475 -127065.826 180509.075 -127192.993 180544.297 -127254 179638.455 -127254 179686.176 -127442.449 179686.179 -127442.456 179776.58 -127648.548 179899.674 -127836.958 180052.097 -128002.534 180229.698 -128140.767 180229.699 -128140.768 180427.628 -128247.882 180427.63 -128247.883 180640.483 -128320.955 180640.492 -128320.957 180721 -128334.391 180721 -127430.702 180782.007 -127465.925 180909.174 -127500 181040.826 -127500 181167.993 -127465.925 181229 -127430.702 181229 -128334.39 181309.507 -128320.957 181309.516 -128320.955 181522.369 -128247.883 181522.371 -128247.882 181720.3 -128140.768 181720.301 -128140.767 181897.902 -128002.534 182050.325 -127836.958 182173.419 -127648.548 182263.82 -127442.456 182263.823 -127442.449 182311.544 -127254 181405.703 -127254 181440.925 -127192.993 181475 -127065.826 181475 -126934.174 181440.925 -126807.007 181405.703 -126746 182311.544 -126746 182311.544 -126745.999 182263.823 -126557.55 182263.82 -126557.543 182173.419 -126351.451 182050.325 -126163.041 181897.902 -125997.465 181720.301 -125859.232 181720.3 -125859.231 181686.791 -125841.097 181636.401 -125791.083 181621.05 -125721.766 181645.612 -125655.153 181686.79 -125619.472 181720.576 -125601.189 181898.24 -125462.906 182050.722 -125297.268 182173.86 -125108.791 182264.296 -124902.616 182319.564 -124684.368 182338.156 -124460 182319.564 -124235.632 182281.751 -124086.311 182264.297 -124017.387 182264.296 -124017.386 182264.296 -124017.384 182173.86 -123811.209 182167.14 -123800.924 182050.724 -123622.734 182050.72 -123622.729 181898.237 -123457.091 181804.375 -123384.035 181720.576 -123318.811 181687.319 -123300.813 181636.929 -123250.802 181621.576 -123181.485 181646.136 -123114.872 181687.32 -123079.186 181720.576 -123061.189 181898.24 -122922.906 182050.722 -122757.268 182173.86 -122568.791 182264.296 -122362.616 182319.564 -122144.368 182338.156 -121920 182319.564 -121695.632 182264.296 -121477.384 182173.86 -121271.209 182167.14 -121260.924 182050.724 -121082.734 182050.72 -121082.729 181898.237 -120917.091 181816.382 -120853.381 181720.576 -120778.811 181687.319 -120760.813 181636.929 -120710.802 181621.576 -120641.485 181646.136 -120574.872 181687.32 -120539.186 181720.576 -120521.189 181898.24 -120382.906 182050.722 -120217.268 182173.86 -120028.791 182264.296 -119822.616 182319.564 -119604.368 182338.156 -119380 182319.564 -119155.632 182308.744 -119112.906 182264.297 -118937.387 182264.296 -118937.386 182264.296 -118937.384 182173.86 -118731.209 182115.554 -118641.966 182095.043 -118574.002 182114.532 -118505.732 182131.939 -118483.963 182918.908 -117696.995 182981.217 -117662.973 183052.033 -117668.038 183108.868 -117710.585 183133.679 -117777.105 183134 -117786.094 183134 -129160 183113.998 -129228.121 183060.342 -129274.614 183008 -129286 141350 -129286 141281.879 -129265.998 141235.386 -129212.342 141224 -129160 141224 -107950 142146.844 -107950 142156.026 -108060.814 142165.437 -108174.375 142220.702 -108392.612 142220.703 -108392.613 142311.141 -108598.793 142434.275 -108787.265 142434.279 -108787.27 142586.762 -108952.908 142641.331 -108995.381 142764.424 -109091.189 142797.68 -109109.186 142848.071 -109159.2 142863.423 -109228.516 142838.862 -109295.129 142797.68 -109330.813 142764.426 -109348.81 142764.424 -109348.811 142586.762 -109487.091 142434.279 -109652.729 142434.275 -109652.734 142311.141 -109841.206 142220.703 -110047.386 142220.702 -110047.387 142165.437 -110265.624 142165.436 -110265.63 142165.436 -110265.632 142146.844 -110490 142156.026 -110600.814 142165.437 -110714.375 142220.702 -110932.612 142220.703 -110932.613 142311.141 -111138.793 142434.275 -111327.265 142434.279 -111327.27 142586.762 -111492.908 142641.331 -111535.381 142764.424 -111631.189 142797.68 -111649.186 142848.071 -111699.2 142863.423 -111768.516 142838.862 -111835.129 142797.68 -111870.813 142764.426 -111888.81 142764.424 -111888.811 142586.762 -112027.091 142434.279 -112192.729 142434.275 -112192.734 142311.141 -112381.206 142220.703 -112587.386 142220.702 -112587.387 142165.437 -112805.624 142146.844 -113030 142165.437 -113254.375 142220.702 -113472.612 142220.703 -113472.613 142311.141 -113678.793 142434.275 -113867.265 142434.279 -113867.27 142586.762 -114032.908 142641.331 -114075.381 142764.424 -114171.189 142798.205 -114189.47 142848.596 -114239.482 142863.949 -114308.799 142839.389 -114375.412 142798.209 -114411.096 142764.704 -114429.228 142764.698 -114429.232 142587.097 -114567.465 142434.674 -114733.041 142311.58 -114921.451 142221.179 -115127.543 142221.176 -115127.55 142173.455 -115315.999 142173.456 -115316 143079.297 -115316 143044.075 -115377.007 143010 -115504.174 143010 -115635.826 143044.075 -115762.993 143079.297 -115824 142173.455 -115824 142221.176 -116012.449 142221.179 -116012.456 142311.58 -116218.548 142434.674 -116406.958 142587.097 -116572.534 142764.698 -116710.767 142764.704 -116710.771 142798.207 -116728.902 142848.597 -116778.915 142863.949 -116848.232 142839.388 -116914.845 142798.207 -116950.528 142764.43 -116968.807 142764.424 -116968.811 142586.762 -117107.091 142434.279 -117272.729 142434.275 -117272.734 142311.141 -117461.206 142220.703 -117667.386 142220.702 -117667.387 142165.437 -117885.624 142146.844 -118110 142165.437 -118334.375 142220.702 -118552.612 142220.703 -118552.613 142220.704 -118552.616 142230.085 -118574.002 142311.141 -118758.793 142434.275 -118947.265 142434.279 -118947.27 142586.762 -119112.908 142641.331 -119155.381 142764.424 -119251.189 142764.43 -119251.192 142816.445 -119279.341 142866.836 -119329.354 142880.056 -119365.573 142900.845 -119470.085 142948.6 -119585.375 143017.929 -119689.133 143017.931 -119689.135 144211.195 -120882.399 144245.221 -120944.711 144248.1 -120971.494 144248.1 -122996 144228.098 -123064.121 144174.442 -123110.614 144122.1 -123122 143789 -123122 143789 -124049.297 143727.993 -124014.075 143600.826 -123980 143469.174 -123980 143342.007 -124014.075 143281 -124049.297 143281 -123122 142636.402 -123122 142575.906 -123128.505 142439.035 -123179.555 142439.034 -123179.555 142322.095 -123267.095 142234.555 -123384.034 142234.555 -123384.035 142183.505 -123520.906 142177 -123581.402 142177 -124226 143104.297 -124226 143069.075 -124287.007 143035 -124414.174 143035 -124545.826 143069.075 -124672.993 143104.297 -124734 142177 -124734 142177 -125378.597 142183.505 -125439.093 142234.555 -125575.964 142234.555 -125575.965 142322.095 -125692.904 142439.034 -125780.444 142554.172 -125823.388 142611.008 -125865.935 142635.819 -125932.455 142620.728 -126001.829 142602.841 -126026.782 142459.28 -126182.729 142459.275 -126182.734 142336.141 -126371.206 142245.703 -126577.386 142245.702 -126577.387 142190.437 -126795.624 142190.436 -126795.63 142190.436 -126795.632 142171.844 -127020 142189.101 -127228.261 142190.437 -127244.375 142245.702 -127462.612 142245.703 -127462.613 142245.704 -127462.616 142279.174 -127538.921 142336.141 -127668.793 142459.275 -127857.265 142459.279 -127857.27 142611.762 -128022.908 142666.331 -128065.381 142789.424 -128161.189 142987.426 -128268.342 142987.427 -128268.342 142987.428 -128268.343 143082.226 -128300.887 143200.365 -128341.444 143422.431 -128378.5 143422.435 -128378.5 143647.565 -128378.5 143647.569 -128378.5 143869.635 -128341.444 144082.574 -128268.342 144280.576 -128161.189 144458.24 -128022.906 144610.722 -127857.268 144733.86 -127668.791 144824.296 -127462.616 144879.564 -127244.368 144898.156 -127020 144879.564 -126795.632 144851.817 -126686.062 144854.484 -126615.118 144884.864 -126566.038 145202.071 -126248.833 145373.671 -126077.233 145443 -125973.475 145490.755 -125858.185 145515.1 -125735.794 145515.1 -125611.006 145515.1 -120594.506 145490.755 -120472.115 145443 -120356.825 145373.671 -120253.067 145285.433 -120164.829 145089.133 -119968.529 144421.817 -119301.213 144387.791 -119238.901 144392.856 -119168.086 144430.166 -119117.263 144429.405 -119116.436 144433.237 -119112.908 144433.24 -119112.906 144585.722 -118947.268 144708.86 -118758.791 144799.296 -118552.616 144854.564 -118334.368 144873.156 -118110 144854.564 -117885.632 144810.236 -117710.585 144799.297 -117667.387 144799.296 -117667.386 144799.296 -117667.384 144708.86 -117461.209 144681.79 -117419.775 144585.724 -117272.734 144585.72 -117272.729 144433.237 -117107.091 144351.382 -117043.381 144255.576 -116968.811 144221.792 -116950.528 144171.402 -116900.516 144156.05 -116831.199 144180.61 -116764.586 144221.793 -116728.901 144255.3 -116710.767 144255.301 -116710.767 144432.902 -116572.534 144585.325 -116406.958 144708.419 -116218.548 144798.82 -116012.456 144798.823 -116012.449 144846.544 -115824 143940.703 -115824 143975.925 -115762.993 144010 -115635.826 144010 -115504.174 143975.925 -115377.007 143940.703 -115316 144846.544 -115316 144846.544 -115315.999 144798.823 -115127.55 144798.82 -115127.543 144708.419 -114921.451 144585.325 -114733.041 144432.902 -114567.465 144255.301 -114429.232 144255.3 -114429.231 144221.791 -114411.097 144171.401 -114361.083 144156.05 -114291.766 144180.612 -114225.153 144221.79 -114189.472 144255.576 -114171.189 144433.24 -114032.906 144585.722 -113867.268 144708.86 -113678.791 144799.296 -113472.616 144854.564 -113254.368 144873.156 -113030 144854.564 -112805.632 144799.296 -112587.384 144708.86 -112381.209 144702.14 -112370.924 144585.724 -112192.734 144585.72 -112192.729 144433.237 -112027.091 144351.382 -111963.381 144255.576 -111888.811 144222.319 -111870.813 144171.929 -111820.802 144156.576 -111751.485 144181.136 -111684.872 144222.32 -111649.186 144255.576 -111631.189 144433.24 -111492.906 144585.722 -111327.268 144708.86 -111138.791 144799.296 -110932.616 144854.564 -110714.368 144873.156 -110490 144854.564 -110265.632 144843.744 -110222.906 144799.297 -110047.387 144799.296 -110047.386 144799.296 -110047.384 144708.86 -109841.209 144592.178 -109662.613 144585.724 -109652.734 144585.72 -109652.729 144433.237 -109487.091 144351.382 -109423.381 144255.576 -109348.811 144222.319 -109330.813 144171.929 -109280.802 144156.576 -109211.485 144181.136 -109144.872 144222.32 -109109.186 144255.576 -109091.189 144433.24 -108952.906 144585.722 -108787.268 144708.86 -108598.791 144799.296 -108392.616 144854.564 -108174.368 144873.156 -107950 144854.564 -107725.632 144843.744 -107682.906 144799.297 -107507.387 144799.296 -107507.386 144799.296 -107507.384 144708.86 -107301.209 144592.178 -107122.613 144585.724 -107112.734 144585.719 -107112.729 144442.524 -106957.179 144411.103 -106893.514 144419.09 -106822.968 144463.948 -106767.939 144491.183 -106753.789 144606.204 -106710.889 144723.261 -106623.261 144810.889 -106506.204 144861.989 -106369.201 144868.5 -106308.638 144868.5 -104511.362 144868.499 -104511.35 144861.99 -104450.803 144861.988 -104450.795 144810.889 -104313.797 144810.887 -104313.792 144723.261 -104196.738 144606.207 -104109.112 144606.202 -104109.11 144469.204 -104058.011 144469.196 -104058.009 144408.649 -104051.5 144408.638 -104051.5 142611.362 -104051.5 142611.35 -104051.5 142550.803 -104058.009 142550.795 -104058.011 142413.797 -104109.11 142413.792 -104109.112 142296.738 -104196.738 142209.112 -104313.792 142209.11 -104313.797 142158.011 -104450.795 142158.009 -104450.803 142151.5 -104511.35 142151.5 -106308.649 142158.009 -106369.196 142158.011 -106369.204 142209.11 -106506.202 142209.112 -106506.207 142296.738 -106623.261 142413.791 -106710.886 142413.792 -106710.886 142413.796 -106710.889 142528.81 -106753.787 142585.642 -106796.332 142610.453 -106862.852 142595.362 -106932.226 142577.475 -106957.179 142434.28 -107112.729 142434.275 -107112.734 142311.141 -107301.206 142220.703 -107507.386 142220.702 -107507.387 142165.437 -107725.624 142165.436 -107725.63 142165.436 -107725.632 142146.844 -107950 141224 -107950 141224 -93090 141244.002 -93021.879 141297.658 -92975.386 141350 -92964 149734 -92964 149802.121 -92984.002"/><path d="M 166954.227 -125748.502 167000.72 -125802.158 167010.824 -125872.432 166981.33 -125937.012 166975.201 -125943.595 165413.901 -127504.895 165351.589 -127538.921 165324.806 -127541.8 164747.548 -127541.8 164679.427 -127521.798 164632.934 -127468.142 164622.83 -127397.868 164625.404 -127384.869 164658.544 -127254 163752.703 -127254 163787.925 -127192.993 163822 -127065.826 163822 -126934.174 163787.925 -126807.007 163752.703 -126746 164658.544 -126746 164658.544 -126745.999 164610.823 -126557.55 164610.82 -126557.543 164603.176 -126540.116 164594.128 -126469.698 164624.587 -126405.567 164684.882 -126368.085 164718.562 -126363.5 165643.893 -126363.5 165643.894 -126363.5 165766.285 -126339.155 165881.575 -126291.4 165985.333 -126222.071 166442.001 -125765.404 166504.313 -125731.379 166531.096 -125728.5 166886.106 -125728.5 166954.227 -125748.502"/></g><g id="meIVi-bIt301_bottom_soldermask"><use xlink:href="#U9G2O1QZhphq_pad-10" x="143510" y="-105410"/><use xlink:href="#U9G2O1QZhphq_pad-11" x="143510" y="-107950"/><use xlink:href="#U9G2O1QZhphq_pad-11" x="143510" y="-110490"/><use xlink:href="#U9G2O1QZhphq_pad-11" x="143510" y="-113030"/><use xlink:href="#U9G2O1QZhphq_pad-11" x="143510" y="-115570"/><use xlink:href="#U9G2O1QZhphq_pad-11" x="143510" y="-118110"/><use xlink:href="#U9G2O1QZhphq_pad-10" x="180975" y="-104140"/><use xlink:href="#U9G2O1QZhphq_pad-11" x="180975" y="-106680"/><use xlink:href="#U9G2O1QZhphq_pad-11" x="180975" y="-109220"/><use xlink:href="#U9G2O1QZhphq_pad-11" x="180975" y="-111760"/><use xlink:href="#U9G2O1QZhphq_pad-11" x="180975" y="-114300"/><use xlink:href="#U9G2O1QZhphq_pad-11" x="180975" y="-116840"/><use xlink:href="#U9G2O1QZhphq_pad-11" x="180975" y="-119380"/><use xlink:href="#U9G2O1QZhphq_pad-11" x="180975" y="-121920"/><use xlink:href="#U9G2O1QZhphq_pad-11" x="180975" y="-124460"/><use xlink:href="#U9G2O1QZhphq_pad-11" x="180975" y="-127000"/><use xlink:href="#U9G2O1QZhphq_pad-12" x="168275" y="-126365"/><use xlink:href="#U9G2O1QZhphq_pad-13" x="168275" y="-125095"/><use xlink:href="#U9G2O1QZhphq_pad-13" x="169545" y="-126365"/><use xlink:href="#U9G2O1QZhphq_pad-13" x="169545" y="-125095"/><use xlink:href="#U9G2O1QZhphq_pad-13" x="170815" y="-126365"/><use xlink:href="#U9G2O1QZhphq_pad-13" x="170815" y="-125095"/><use xlink:href="#U9G2O1QZhphq_pad-13" x="172085" y="-126365"/><use xlink:href="#U9G2O1QZhphq_pad-13" x="172085" y="-125095"/><use xlink:href="#U9G2O1QZhphq_pad-13" x="173355" y="-126365"/><use xlink:href="#U9G2O1QZhphq_pad-13" x="173355" y="-125095"/><use xlink:href="#U9G2O1QZhphq_pad-14" x="174625" y="-94615"/><use xlink:href="#U9G2O1QZhphq_pad-14" x="181125" y="-94615"/><use xlink:href="#U9G2O1QZhphq_pad-14" x="174625" y="-99115"/><use xlink:href="#U9G2O1QZhphq_pad-14" x="181125" y="-99115"/><use xlink:href="#U9G2O1QZhphq_pad-10" x="158242" y="-127000"/><use xlink:href="#U9G2O1QZhphq_pad-11" x="158242" y="-124460"/><use xlink:href="#U9G2O1QZhphq_pad-11" x="160782" y="-127000"/><use xlink:href="#U9G2O1QZhphq_pad-11" x="160782" y="-124460"/><use xlink:href="#U9G2O1QZhphq_pad-11" x="163322" y="-127000"/><use xlink:href="#U9G2O1QZhphq_pad-11" x="163322" y="-124460"/><use xlink:href="#U9G2O1QZhphq_pad-10" x="143535" y="-124480"/><use xlink:href="#U9G2O1QZhphq_pad-11" x="143535" y="-127020"/></g><g id="meIVi-bIt301_bottom_silkscreen"><path d="M 173917.144 -111230.87 173917.144 -109730.87 M 173274.287 -111230.87 173274.287 -110445.156 173345.715 -110302.299 173488.572 -110230.87 173702.858 -110230.87 173845.715 -110302.299 173917.144 -110373.727 M 172774.286 -110230.87 172202.858 -110230.87 M 172560.001 -109730.87 172560.001 -111016.584 172488.572 -111159.442 172345.715 -111230.87 172202.858 -111230.87 M 171917.143 -110230.87 171345.715 -110230.87 M 171702.858 -109730.87 171702.858 -111016.584 171631.429 -111159.442 171488.572 -111230.87 171345.715 -111230.87 M 170845.715 -110230.87 170845.715 -111730.87 M 170845.715 -110302.299 170702.858 -110230.87 170417.143 -110230.87 170274.286 -110302.299 170202.858 -110373.727 170131.429 -110516.584 170131.429 -110945.156 170202.858 -111088.013 170274.286 -111159.442 170417.143 -111230.87 170702.858 -111230.87 170845.715 -111159.442 M 169560 -111159.442 169417.143 -111230.87 169131.429 -111230.87 168988.572 -111159.442 168917.143 -111016.584 168917.143 -110945.156 168988.572 -110802.299 169131.429 -110730.87 169345.715 -110730.87 169488.572 -110659.442 169560 -110516.584 169560 -110445.156 169488.572 -110302.299 169345.715 -110230.87 169131.429 -110230.87 168988.572 -110302.299 M 168274.286 -111088.013 168202.857 -111159.442 168274.286 -111230.87 168345.714 -111159.442 168274.286 -111088.013 168274.286 -111230.87 M 168274.286 -110302.299 168202.857 -110373.727 168274.286 -110445.156 168345.714 -110373.727 168274.286 -110302.299 168274.286 -110445.156 M 166488.571 -109659.442 167774.285 -111588.013 M 164917.142 -109659.442 166202.856 -111588.013 M 163774.285 -110230.87 163774.285 -111445.156 163845.713 -111588.013 163917.142 -111659.442 164059.999 -111730.87 164274.285 -111730.87 164417.142 -111659.442 M 163774.285 -111159.442 163917.142 -111230.87 164202.856 -111230.87 164345.713 -111159.442 164417.142 -111088.013 164488.57 -110945.156 164488.57 -110516.584 164417.142 -110373.727 164345.713 -110302.299 164202.856 -110230.87 163917.142 -110230.87 163774.285 -110302.299 M 163059.999 -111230.87 163059.999 -110230.87 M 163059.999 -109730.87 163131.427 -109802.299 163059.999 -109873.727 162988.57 -109802.299 163059.999 -109730.87 163059.999 -109873.727 M 162559.998 -110230.87 161988.57 -110230.87 M 162345.713 -109730.87 162345.713 -111016.584 162274.284 -111159.442 162131.427 -111230.87 161988.57 -111230.87 M 161488.57 -111230.87 161488.57 -109730.87 M 160845.713 -111230.87 160845.713 -110445.156 160917.141 -110302.299 161059.998 -110230.87 161274.284 -110230.87 161417.141 -110302.299 161488.57 -110373.727 M 159488.57 -110230.87 159488.57 -111230.87 M 160131.427 -110230.87 160131.427 -111016.584 160059.998 -111159.442 159917.141 -111230.87 159702.855 -111230.87 159559.998 -111159.442 159488.57 -111088.013 M 158774.284 -111230.87 158774.284 -109730.87 M 158774.284 -110302.299 158631.427 -110230.87 158345.712 -110230.87 158202.855 -110302.299 158131.427 -110373.727 158059.998 -110516.584 158059.998 -110945.156 158131.427 -111088.013 158202.855 -111159.442 158345.712 -111230.87 158631.427 -111230.87 158774.284 -111159.442 M 157417.141 -111088.013 157345.712 -111159.442 157417.141 -111230.87 157488.569 -111159.442 157417.141 -111088.013 157417.141 -111230.87 M 156059.998 -111159.442 156202.855 -111230.87 156488.569 -111230.87 156631.426 -111159.442 156702.855 -111088.013 156774.283 -110945.156 156774.283 -110516.584 156702.855 -110373.727 156631.426 -110302.299 156488.569 -110230.87 156202.855 -110230.87 156059.998 -110302.299 M 155202.855 -111230.87 155345.712 -111159.442 155417.141 -111088.013 155488.569 -110945.156 155488.569 -110516.584 155417.141 -110373.727 155345.712 -110302.299 155202.855 -110230.87 154988.569 -110230.87 154845.712 -110302.299 154774.284 -110373.727 154702.855 -110516.584 154702.855 -110945.156 154774.284 -111088.013 154845.712 -111159.442 154988.569 -111230.87 155202.855 -111230.87 M 154059.998 -111230.87 154059.998 -110230.87 M 154059.998 -110373.727 153988.569 -110302.299 153845.712 -110230.87 153631.426 -110230.87 153488.569 -110302.299 153417.141 -110445.156 153417.141 -111230.87 M 153417.141 -110445.156 153345.712 -110302.299 153202.855 -110230.87 152988.569 -110230.87 152845.712 -110302.299 152774.283 -110445.156 152774.283 -111230.87 M 150988.569 -109659.442 152274.283 -111588.013 M 176560.001 -113645.786 176560.001 -112145.786 M 176560.001 -112717.215 176417.144 -112645.786 176131.429 -112645.786 175988.572 -112717.215 175917.144 -112788.643 175845.715 -112931.5 175845.715 -113360.072 175917.144 -113502.929 175988.572 -113574.358 176131.429 -113645.786 176417.144 -113645.786 176560.001 -113574.358 M 174560.001 -113645.786 174560.001 -112860.072 174631.429 -112717.215 174774.286 -112645.786 175060.001 -112645.786 175202.858 -112717.215 M 174560.001 -113574.358 174702.858 -113645.786 175060.001 -113645.786 175202.858 -113574.358 175274.286 -113431.5 175274.286 -113288.643 175202.858 -113145.786 175060.001 -113074.358 174702.858 -113074.358 174560.001 -113002.929 M 173917.143 -113574.358 173774.286 -113645.786 173488.572 -113645.786 173345.715 -113574.358 173274.286 -113431.5 173274.286 -113360.072 173345.715 -113217.215 173488.572 -113145.786 173702.858 -113145.786 173845.715 -113074.358 173917.143 -112931.5 173917.143 -112860.072 173845.715 -112717.215 173702.858 -112645.786 173488.572 -112645.786 173345.715 -112717.215 M 172631.429 -113645.786 172631.429 -112645.786 M 172631.429 -112145.786 172702.857 -112217.215 172631.429 -112288.643 172560 -112217.215 172631.429 -112145.786 172631.429 -112288.643 M 171702.857 -113645.786 171845.714 -113574.358 171917.143 -113431.5 171917.143 -112145.786 M 171345.714 -112645.786 170774.286 -112645.786 M 171131.429 -113645.786 171131.429 -112360.072 171060 -112217.215 170917.143 -112145.786 170774.286 -112145.786 M 170417.143 -113645.786 169631.429 -112645.786 M 170417.143 -112645.786 169631.429 -113645.786 M 167988.571 -112074.358 169274.285 -114002.929 M 167702.856 -112145.786 166845.714 -112145.786 M 167274.285 -113645.786 167274.285 -112145.786 M 165488.571 -113645.786 165988.571 -112931.5 M 166345.714 -113645.786 166345.714 -112145.786 165774.285 -112145.786 165631.428 -112217.215 165559.999 -112288.643 165488.571 -112431.5 165488.571 -112645.786 165559.999 -112788.643 165631.428 -112860.072 165774.285 -112931.5 166345.714 -112931.5 M 164917.142 -113217.215 164202.857 -113217.215 M 165059.999 -113645.786 164559.999 -112145.786 164059.999 -113645.786 M 163560 -113645.786 163560 -112145.786 163202.857 -112145.786 162988.571 -112217.215 162845.714 -112360.072 162774.285 -112502.929 162702.857 -112788.643 162702.857 -113002.929 162774.285 -113288.643 162845.714 -113431.5 162988.571 -113574.358 163202.857 -113645.786 163560 -113645.786 M 161560 -112860.072 162060 -112860.072 M 162060 -113645.786 162060 -112145.786 161345.714 -112145.786 M 159917.143 -113645.786 160417.143 -112931.5 M 160774.286 -113645.786 160774.286 -112145.786 160202.857 -112145.786 160060 -112217.215 159988.571 -112288.643 159917.143 -112431.5 159917.143 -112645.786 159988.571 -112788.643 160060 -112860.072 160202.857 -112931.5 160774.286 -112931.5 M 159274.286 -113645.786 159274.286 -112145.786 M 158560 -113074.358 157417.143 -113074.358 M 156702.857 -113645.786 156702.857 -112145.786 M 156702.857 -112860.072 155845.714 -112860.072 M 155845.714 -113645.786 155845.714 -112145.786 M 154488.571 -113645.786 154488.571 -112860.072 154559.999 -112717.215 154702.856 -112645.786 154988.571 -112645.786 155131.428 -112717.215 M 154488.571 -113574.358 154631.428 -113645.786 154988.571 -113645.786 155131.428 -113574.358 155202.856 -113431.5 155202.856 -113288.643 155131.428 -113145.786 154988.571 -113074.358 154631.428 -113074.358 154488.571 -113002.929 M 153131.428 -113574.358 153274.285 -113645.786 153559.999 -113645.786 153702.856 -113574.358 153774.285 -113502.929 153845.713 -113360.072 153845.713 -112931.5 153774.285 -112788.643 153702.856 -112717.215 153559.999 -112645.786 153274.285 -112645.786 153131.428 -112717.215 M 152488.571 -113645.786 152488.571 -112145.786 M 152345.714 -113074.358 151917.142 -113645.786 M 151917.142 -112645.786 152488.571 -113217.215 M 151274.285 -113645.786 151274.285 -112645.786 M 151274.285 -112145.786 151345.713 -112217.215 151274.285 -112288.643 151202.856 -112217.215 151274.285 -112145.786 151274.285 -112288.643 M 150559.999 -112645.786 150559.999 -113645.786 M 150559.999 -112788.643 150488.57 -112717.215 150345.713 -112645.786 150131.427 -112645.786 149988.57 -112717.215 149917.142 -112860.072 149917.142 -113645.786 M 148559.999 -112645.786 148559.999 -113860.072 148631.427 -114002.929 148702.856 -114074.358 148845.713 -114145.786 149059.999 -114145.786 149202.856 -114074.358 M 148559.999 -113574.358 148702.856 -113645.786 148988.57 -113645.786 149131.427 -113574.358 149202.856 -113502.929 149274.284 -113360.072 149274.284 -112931.5 149202.856 -112788.643 149131.427 -112717.215 148988.57 -112645.786 148702.856 -112645.786 148559.999 -112717.215" fill="none" stroke-width="300"/></g><g id="meIVi-bIt301_bottom_drill1"><use xlink:href="#WFtQSCbaLy9a_pad-1" x="165354" y="-126898"/><use xlink:href="#WFtQSCbaLy9a_pad-2" x="168275" y="-125095"/><use xlink:href="#WFtQSCbaLy9a_pad-2" x="168275" y="-126365"/><use xlink:href="#WFtQSCbaLy9a_pad-2" x="169545" y="-125095"/><use xlink:href="#WFtQSCbaLy9a_pad-2" x="169545" y="-126365"/><use xlink:href="#WFtQSCbaLy9a_pad-2" x="170815" y="-125095"/><use xlink:href="#WFtQSCbaLy9a_pad-2" x="170815" y="-126365"/><use xlink:href="#WFtQSCbaLy9a_pad-2" x="172085" y="-125095"/><use xlink:href="#WFtQSCbaLy9a_pad-2" x="172085" y="-126365"/><use xlink:href="#WFtQSCbaLy9a_pad-2" x="173355" y="-125095"/><use xlink:href="#WFtQSCbaLy9a_pad-2" x="173355" y="-126365"/><use xlink:href="#WFtQSCbaLy9a_pad-3" x="143510" y="-105410"/><use xlink:href="#WFtQSCbaLy9a_pad-3" x="143510" y="-107950"/><use xlink:href="#WFtQSCbaLy9a_pad-3" x="143510" y="-110490"/><use xlink:href="#WFtQSCbaLy9a_pad-3" x="143510" y="-113030"/><use xlink:href="#WFtQSCbaLy9a_pad-3" x="143510" y="-115570"/><use xlink:href="#WFtQSCbaLy9a_pad-3" x="143510" y="-118110"/><use xlink:href="#WFtQSCbaLy9a_pad-3" x="143535" y="-124480"/><use xlink:href="#WFtQSCbaLy9a_pad-3" x="143535" y="-127020"/><use xlink:href="#WFtQSCbaLy9a_pad-3" x="158242" y="-124460"/><use xlink:href="#WFtQSCbaLy9a_pad-3" x="158242" y="-127000"/><use xlink:href="#WFtQSCbaLy9a_pad-3" x="160782" y="-124460"/><use xlink:href="#WFtQSCbaLy9a_pad-3" x="160782" y="-127000"/><use xlink:href="#WFtQSCbaLy9a_pad-3" x="163322" y="-124460"/><use xlink:href="#WFtQSCbaLy9a_pad-3" x="163322" y="-127000"/><use xlink:href="#WFtQSCbaLy9a_pad-3" x="180975" y="-104140"/><use xlink:href="#WFtQSCbaLy9a_pad-3" x="180975" y="-106680"/><use xlink:href="#WFtQSCbaLy9a_pad-3" x="180975" y="-109220"/><use xlink:href="#WFtQSCbaLy9a_pad-3" x="180975" y="-111760"/><use xlink:href="#WFtQSCbaLy9a_pad-3" x="180975" y="-114300"/><use xlink:href="#WFtQSCbaLy9a_pad-3" x="180975" y="-116840"/><use xlink:href="#WFtQSCbaLy9a_pad-3" x="180975" y="-119380"/><use xlink:href="#WFtQSCbaLy9a_pad-3" x="180975" y="-121920"/><use xlink:href="#WFtQSCbaLy9a_pad-3" x="180975" y="-124460"/><use xlink:href="#WFtQSCbaLy9a_pad-3" x="180975" y="-127000"/><use xlink:href="#WFtQSCbaLy9a_pad-4" x="174625" y="-94615"/><use xlink:href="#WFtQSCbaLy9a_pad-4" x="174625" y="-99115"/><use xlink:href="#WFtQSCbaLy9a_pad-4" x="181125" y="-94615"/><use xlink:href="#WFtQSCbaLy9a_pad-4" x="181125" y="-99115"/></g><clipPath id="meIVi-bIt301_bottom_outline"><path d="M 140970 -129540 183515 -129540 183515 -92710 140970 -92710 140970 -129540" fill="none" stroke-width="200"/></clipPath><mask id="meIVi-bIt301_bottom_mech-mask"><g fill="#000" stroke="#000"><rect x="140970" y="-129540" width="42545" height="36830" fill="#fff"/><use xlink:href="#meIVi-bIt301_bottom_drill1"/></g></mask><mask id="meIVi-bIt301_bottom_cf-mask"><g fill="#fff" stroke="#fff"><use xlink:href="#meIVi-bIt301_bottom_soldermask"/></g></mask><mask id="meIVi-bIt301_bottom_sm-mask"><g fill="#000" stroke="#000"><rect x="140970" y="-129540" width="42545" height="36830" fill="#fff"/><use xlink:href="#meIVi-bIt301_bottom_soldermask"/></g></mask></defs><g transform="translate(0,-222250) scale(1,-1)"><g mask="url(#meIVi-bIt301_bottom_mech-mask)" clip-path="url(#meIVi-bIt301_bottom_outline)" transform="translate(324485,0) scale(-1,1)"><rect x="140970" y="-129540" width="42545" height="36830" fill="currentColor" class="meIVi-bIt301_fr4"/><use xlink:href="#meIVi-bIt301_bottom_copper" fill="currentColor" stroke="currentColor" class="meIVi-bIt301_cu"/><use xlink:href="#meIVi-bIt301_bottom_copper" fill="currentColor" stroke="currentColor" class="meIVi-bIt301_cf" mask="url(#meIVi-bIt301_bottom_cf-mask)"/><g mask="url(#meIVi-bIt301_bottom_sm-mask)"><rect x="140970" y="-129540" width="42545" height="36830" fill="currentColor" class="meIVi-bIt301_sm"/><use xlink:href="#meIVi-bIt301_bottom_silkscreen" fill="currentColor" stroke="currentColor" class="meIVi-bIt301_ss"/></g></g></g></svg>